G04 This is an RS-274x file exported by *
G04 gerbv version 2.6.0 *
G04 More information is available about gerbv at *
G04 http://gerbv.gpleda.org/ *
G04 --End of header info--*
%MOIN*%
%FSLAX34Y34*%
%IPPOS*%
G04 --Define apertures--*
%ADD10C,0.0060*%
%ADD11R,0.0600X0.0600*%
%ADD12R,0.0650X0.0650*%
%ADD13C,0.0650*%
%ADD14R,0.0256X0.0630*%
%ADD15R,0.0256X0.0394*%
%ADD16C,0.0160*%
%ADD17C,0.0080*%
%ADD18C,0.0200*%
G04 --Start main section--*
G54D11*
G01X0052250Y-036000D03*
G01X0062750Y-036250D03*
G01X0052250Y-039000D03*
G01X0062750Y-038750D03*
G54D12*
G01X0052000Y-034000D03*
G54D13*
G01X0053000Y-034000D03*
G01X0054000Y-034000D03*
G01X0055000Y-034000D03*
G01X0056000Y-034000D03*
G01X0057000Y-034000D03*
G01X0058000Y-034000D03*
G01X0059000Y-034000D03*
G01X0060000Y-034000D03*
G01X0061000Y-034000D03*
G01X0062000Y-034000D03*
G01X0063000Y-034000D03*
G54D12*
G01X0052000Y-041000D03*
G54D13*
G01X0053000Y-041000D03*
G01X0054000Y-041000D03*
G01X0055000Y-041000D03*
G01X0056000Y-041000D03*
G01X0057000Y-041000D03*
G01X0058000Y-041000D03*
G01X0059000Y-041000D03*
G01X0060000Y-041000D03*
G01X0061000Y-041000D03*
G01X0062000Y-041000D03*
G01X0063000Y-041000D03*
G54D14*
G01X0055335Y-039075D03*
G01X0055728Y-039075D03*
G01X0056122Y-039075D03*
G01X0056516Y-039075D03*
G01X0056909Y-039075D03*
G01X0057303Y-039075D03*
G01X0057697Y-039075D03*
G01X0058091Y-039075D03*
G01X0058484Y-039075D03*
G01X0058878Y-039075D03*
G01X0059272Y-039075D03*
G01X0059665Y-039075D03*
G01X0059665Y-035925D03*
G01X0059272Y-035925D03*
G01X0058878Y-035925D03*
G01X0058484Y-035925D03*
G01X0058091Y-035925D03*
G01X0057697Y-035925D03*
G01X0057303Y-035925D03*
G01X0056909Y-035925D03*
G01X0056516Y-035925D03*
G01X0056122Y-035925D03*
G01X0055728Y-035925D03*
G01X0055335Y-035925D03*
G54D15*
G01X0059666Y-036693D03*
G01X0059666Y-037205D03*
G01X0056516Y-038288D03*
G01X0056516Y-037776D03*
G01X0056910Y-038288D03*
G01X0056910Y-037776D03*
G01X0057304Y-038288D03*
G01X0057304Y-037776D03*
G01X0057697Y-038288D03*
G01X0057697Y-037776D03*
G01X0058091Y-038288D03*
G01X0058091Y-037776D03*
G01X0058485Y-038288D03*
G01X0058485Y-037776D03*
G01X0058878Y-038288D03*
G01X0058878Y-037776D03*
G01X0059272Y-038288D03*
G01X0059272Y-037776D03*
G01X0059666Y-038288D03*
G01X0059666Y-037776D03*
G01X0059272Y-036693D03*
G01X0059272Y-037205D03*
G01X0058878Y-036693D03*
G01X0058878Y-037205D03*
G01X0058485Y-036693D03*
G01X0058485Y-037205D03*
G01X0058091Y-036693D03*
G01X0058091Y-037205D03*
G01X0057697Y-036693D03*
G01X0057697Y-037205D03*
G01X0057304Y-036693D03*
G01X0057304Y-037205D03*
G01X0056910Y-036693D03*
G01X0056910Y-037205D03*
G01X0056516Y-036693D03*
G01X0056516Y-037205D03*
G01X0056122Y-036693D03*
G01X0056122Y-037205D03*
G01X0055729Y-036693D03*
G01X0055729Y-037205D03*
G01X0055335Y-036693D03*
G01X0055335Y-037205D03*
G01X0056122Y-038288D03*
G01X0056122Y-037776D03*
G01X0055729Y-038288D03*
G01X0055729Y-037776D03*
G01X0055335Y-038288D03*
G01X0055335Y-037776D03*
G54D16*
G01X0055335Y-039232D02*
G01X0055335Y-038288D01*
G01X0058878Y-039232D02*
G01X0058878Y-038288D01*
G01X0059272Y-039232D02*
G01X0059272Y-038288D01*
G01X0059665Y-038289D02*
G01X0059666Y-038288D01*
G01X0059665Y-039232D02*
G01X0059665Y-038289D01*
G01X0059665Y-035768D02*
G01X0059665Y-036692D01*
G01X0059665Y-036692D02*
G01X0059666Y-036693D01*
G01X0059272Y-036693D02*
G01X0059272Y-035768D01*
G01X0058878Y-036693D02*
G01X0058878Y-035768D01*
G01X0058485Y-035769D02*
G01X0058484Y-035768D01*
G01X0058485Y-036693D02*
G01X0058485Y-035769D01*
G01X0058091Y-036693D02*
G01X0058091Y-035768D01*
G01X0057697Y-036693D02*
G01X0057697Y-035768D01*
G01X0057304Y-036693D02*
G01X0057304Y-035769D01*
G01X0057304Y-035769D02*
G01X0057303Y-035768D01*
G01X0055728Y-039232D02*
G01X0055728Y-038289D01*
G01X0055728Y-038289D02*
G01X0055729Y-038288D01*
G01X0056910Y-036693D02*
G01X0056910Y-035769D01*
G01X0056910Y-035769D02*
G01X0056909Y-035768D01*
G01X0056516Y-036693D02*
G01X0056516Y-035768D01*
G01X0056122Y-036693D02*
G01X0056122Y-035768D01*
G01X0055729Y-036693D02*
G01X0055729Y-035769D01*
G01X0055729Y-035769D02*
G01X0055728Y-035768D01*
G01X0055335Y-035768D02*
G01X0055335Y-036693D01*
G01X0056122Y-039232D02*
G01X0056122Y-038288D01*
G01X0056516Y-039232D02*
G01X0056516Y-038288D01*
G01X0056909Y-039232D02*
G01X0056909Y-038289D01*
G01X0056909Y-038289D02*
G01X0056910Y-038288D01*
G01X0057303Y-038289D02*
G01X0057304Y-038288D01*
G01X0057303Y-039232D02*
G01X0057303Y-038289D01*
G01X0057697Y-039232D02*
G01X0057697Y-038288D01*
G01X0058091Y-039232D02*
G01X0058091Y-038288D01*
G01X0058484Y-038289D02*
G01X0058485Y-038288D01*
G01X0058484Y-039232D02*
G01X0058484Y-038289D01*
G54D17*
G01X0055335Y-038288D02*
G01X0055335Y-037776D01*
G54D10*
G36*
G01X0063325Y-040587D02*
G01X0063251Y-040537D01*
G01X0063249Y-040536D01*
G01X0063249Y-036570D01*
G01X0063249Y-036531D01*
G01X0063249Y-035930D01*
G01X0063241Y-035892D01*
G01X0063226Y-035856D01*
G01X0063205Y-035823D01*
G01X0063177Y-035796D01*
G01X0063145Y-035774D01*
G01X0063109Y-035759D01*
G01X0063070Y-035751D01*
G01X0063031Y-035751D01*
G01X0062430Y-035751D01*
G01X0062392Y-035759D01*
G01X0062356Y-035774D01*
G01X0062323Y-035795D01*
G01X0062296Y-035823D01*
G01X0062274Y-035855D01*
G01X0062259Y-035891D01*
G01X0062251Y-035930D01*
G01X0062251Y-035969D01*
G01X0062251Y-036570D01*
G01X0062259Y-036608D01*
G01X0062274Y-036644D01*
G01X0062295Y-036677D01*
G01X0062323Y-036704D01*
G01X0062355Y-036726D01*
G01X0062391Y-036741D01*
G01X0062430Y-036749D01*
G01X0062469Y-036749D01*
G01X0063070Y-036749D01*
G01X0063108Y-036741D01*
G01X0063144Y-036726D01*
G01X0063177Y-036705D01*
G01X0063204Y-036677D01*
G01X0063226Y-036645D01*
G01X0063241Y-036609D01*
G01X0063249Y-036570D01*
G01X0063249Y-040536D01*
G01X0063156Y-040497D01*
G01X0063055Y-040476D01*
G01X0062953Y-040476D01*
G01X0062852Y-040495D01*
G01X0062756Y-040533D01*
G01X0062670Y-040589D01*
G01X0062597Y-040661D01*
G01X0062539Y-040746D01*
G01X0062499Y-040836D01*
G01X0062465Y-040753D01*
G01X0062408Y-040668D01*
G01X0062336Y-040595D01*
G01X0062251Y-040537D01*
G01X0062156Y-040497D01*
G01X0062055Y-040476D01*
G01X0061953Y-040476D01*
G01X0061852Y-040495D01*
G01X0061756Y-040533D01*
G01X0061670Y-040589D01*
G01X0061597Y-040661D01*
G01X0061539Y-040746D01*
G01X0061499Y-040836D01*
G01X0061465Y-040753D01*
G01X0061408Y-040668D01*
G01X0061336Y-040595D01*
G01X0061251Y-040537D01*
G01X0061156Y-040497D01*
G01X0061055Y-040476D01*
G01X0060953Y-040476D01*
G01X0060852Y-040495D01*
G01X0060756Y-040533D01*
G01X0060670Y-040589D01*
G01X0060597Y-040661D01*
G01X0060539Y-040746D01*
G01X0060499Y-040836D01*
G01X0060465Y-040753D01*
G01X0060408Y-040668D01*
G01X0060336Y-040595D01*
G01X0060251Y-040537D01*
G01X0060156Y-040497D01*
G01X0060055Y-040476D01*
G01X0059993Y-040476D01*
G01X0059993Y-038505D01*
G01X0059993Y-038466D01*
G01X0059993Y-038071D01*
G01X0059993Y-036910D01*
G01X0059993Y-036871D01*
G01X0059993Y-036476D01*
G01X0059985Y-036438D01*
G01X0059970Y-036402D01*
G01X0059949Y-036369D01*
G01X0059947Y-036367D01*
G01X0059969Y-036335D01*
G01X0059984Y-036299D01*
G01X0059992Y-036260D01*
G01X0059992Y-036221D01*
G01X0059992Y-035590D01*
G01X0059984Y-035552D01*
G01X0059969Y-035516D01*
G01X0059948Y-035483D01*
G01X0059920Y-035456D01*
G01X0059888Y-035434D01*
G01X0059852Y-035419D01*
G01X0059813Y-035411D01*
G01X0059774Y-035411D01*
G01X0059517Y-035411D01*
G01X0059479Y-035419D01*
G01X0059469Y-035423D01*
G01X0059459Y-035419D01*
G01X0059420Y-035411D01*
G01X0059381Y-035411D01*
G01X0059124Y-035411D01*
G01X0059086Y-035419D01*
G01X0059075Y-035423D01*
G01X0059065Y-035419D01*
G01X0059026Y-035411D01*
G01X0058987Y-035411D01*
G01X0058730Y-035411D01*
G01X0058692Y-035419D01*
G01X0058681Y-035423D01*
G01X0058671Y-035419D01*
G01X0058632Y-035411D01*
G01X0058593Y-035411D01*
G01X0058336Y-035411D01*
G01X0058298Y-035419D01*
G01X0058288Y-035423D01*
G01X0058278Y-035419D01*
G01X0058239Y-035411D01*
G01X0058200Y-035411D01*
G01X0057943Y-035411D01*
G01X0057905Y-035419D01*
G01X0057894Y-035423D01*
G01X0057884Y-035419D01*
G01X0057845Y-035411D01*
G01X0057806Y-035411D01*
G01X0057549Y-035411D01*
G01X0057511Y-035419D01*
G01X0057500Y-035423D01*
G01X0057490Y-035419D01*
G01X0057451Y-035411D01*
G01X0057412Y-035411D01*
G01X0057155Y-035411D01*
G01X0057117Y-035419D01*
G01X0057106Y-035423D01*
G01X0057096Y-035419D01*
G01X0057057Y-035411D01*
G01X0057018Y-035411D01*
G01X0056761Y-035411D01*
G01X0056723Y-035419D01*
G01X0056713Y-035423D01*
G01X0056703Y-035419D01*
G01X0056664Y-035411D01*
G01X0056625Y-035411D01*
G01X0056368Y-035411D01*
G01X0056330Y-035419D01*
G01X0056319Y-035423D01*
G01X0056309Y-035419D01*
G01X0056270Y-035411D01*
G01X0056231Y-035411D01*
G01X0055974Y-035411D01*
G01X0055936Y-035419D01*
G01X0055925Y-035423D01*
G01X0055915Y-035419D01*
G01X0055876Y-035411D01*
G01X0055837Y-035411D01*
G01X0055580Y-035411D01*
G01X0055542Y-035419D01*
G01X0055532Y-035423D01*
G01X0055522Y-035419D01*
G01X0055483Y-035411D01*
G01X0055444Y-035411D01*
G01X0055187Y-035411D01*
G01X0055149Y-035419D01*
G01X0055113Y-035434D01*
G01X0055080Y-035455D01*
G01X0055053Y-035483D01*
G01X0055031Y-035515D01*
G01X0055016Y-035551D01*
G01X0055008Y-035590D01*
G01X0055008Y-035629D01*
G01X0055008Y-036260D01*
G01X0055016Y-036298D01*
G01X0055031Y-036334D01*
G01X0055052Y-036367D01*
G01X0055053Y-036368D01*
G01X0055053Y-036369D01*
G01X0055031Y-036401D01*
G01X0055016Y-036437D01*
G01X0055008Y-036476D01*
G01X0055008Y-036515D01*
G01X0055008Y-036910D01*
G01X0055016Y-036948D01*
G01X0055031Y-036984D01*
G01X0055052Y-037017D01*
G01X0055080Y-037044D01*
G01X0055112Y-037066D01*
G01X0055148Y-037081D01*
G01X0055187Y-037089D01*
G01X0055226Y-037089D01*
G01X0055483Y-037089D01*
G01X0055521Y-037081D01*
G01X0055531Y-037076D01*
G01X0055542Y-037081D01*
G01X0055581Y-037089D01*
G01X0055620Y-037089D01*
G01X0055877Y-037089D01*
G01X0055915Y-037081D01*
G01X0055925Y-037076D01*
G01X0055935Y-037081D01*
G01X0055974Y-037089D01*
G01X0056013Y-037089D01*
G01X0056270Y-037089D01*
G01X0056308Y-037081D01*
G01X0056318Y-037076D01*
G01X0056329Y-037081D01*
G01X0056368Y-037089D01*
G01X0056407Y-037089D01*
G01X0056664Y-037089D01*
G01X0056702Y-037081D01*
G01X0056712Y-037076D01*
G01X0056723Y-037081D01*
G01X0056762Y-037089D01*
G01X0056801Y-037089D01*
G01X0057058Y-037089D01*
G01X0057096Y-037081D01*
G01X0057106Y-037076D01*
G01X0057117Y-037081D01*
G01X0057156Y-037089D01*
G01X0057195Y-037089D01*
G01X0057452Y-037089D01*
G01X0057490Y-037081D01*
G01X0057500Y-037076D01*
G01X0057510Y-037081D01*
G01X0057549Y-037089D01*
G01X0057588Y-037089D01*
G01X0057845Y-037089D01*
G01X0057883Y-037081D01*
G01X0057893Y-037076D01*
G01X0057904Y-037081D01*
G01X0057943Y-037089D01*
G01X0057982Y-037089D01*
G01X0058239Y-037089D01*
G01X0058277Y-037081D01*
G01X0058287Y-037076D01*
G01X0058298Y-037081D01*
G01X0058337Y-037089D01*
G01X0058376Y-037089D01*
G01X0058633Y-037089D01*
G01X0058671Y-037081D01*
G01X0058681Y-037076D01*
G01X0058691Y-037081D01*
G01X0058730Y-037089D01*
G01X0058769Y-037089D01*
G01X0059026Y-037089D01*
G01X0059064Y-037081D01*
G01X0059074Y-037076D01*
G01X0059085Y-037081D01*
G01X0059124Y-037089D01*
G01X0059163Y-037089D01*
G01X0059420Y-037089D01*
G01X0059458Y-037081D01*
G01X0059468Y-037076D01*
G01X0059479Y-037081D01*
G01X0059518Y-037089D01*
G01X0059557Y-037089D01*
G01X0059814Y-037089D01*
G01X0059852Y-037081D01*
G01X0059888Y-037066D01*
G01X0059921Y-037045D01*
G01X0059948Y-037017D01*
G01X0059970Y-036985D01*
G01X0059985Y-036949D01*
G01X0059993Y-036910D01*
G01X0059993Y-038071D01*
G01X0059985Y-038033D01*
G01X0059970Y-037997D01*
G01X0059949Y-037964D01*
G01X0059921Y-037937D01*
G01X0059889Y-037915D01*
G01X0059853Y-037900D01*
G01X0059814Y-037892D01*
G01X0059775Y-037892D01*
G01X0059518Y-037892D01*
G01X0059480Y-037900D01*
G01X0059469Y-037904D01*
G01X0059459Y-037900D01*
G01X0059420Y-037892D01*
G01X0059381Y-037892D01*
G01X0059124Y-037892D01*
G01X0059086Y-037900D01*
G01X0059075Y-037904D01*
G01X0059065Y-037900D01*
G01X0059026Y-037892D01*
G01X0058987Y-037892D01*
G01X0058730Y-037892D01*
G01X0058692Y-037900D01*
G01X0058682Y-037904D01*
G01X0058672Y-037900D01*
G01X0058633Y-037892D01*
G01X0058594Y-037892D01*
G01X0058337Y-037892D01*
G01X0058299Y-037900D01*
G01X0058288Y-037904D01*
G01X0058278Y-037900D01*
G01X0058239Y-037892D01*
G01X0058200Y-037892D01*
G01X0057943Y-037892D01*
G01X0057905Y-037900D01*
G01X0057894Y-037904D01*
G01X0057884Y-037900D01*
G01X0057845Y-037892D01*
G01X0057806Y-037892D01*
G01X0057549Y-037892D01*
G01X0057511Y-037900D01*
G01X0057501Y-037904D01*
G01X0057491Y-037900D01*
G01X0057452Y-037892D01*
G01X0057413Y-037892D01*
G01X0057156Y-037892D01*
G01X0057118Y-037900D01*
G01X0057107Y-037904D01*
G01X0057097Y-037900D01*
G01X0057058Y-037892D01*
G01X0057019Y-037892D01*
G01X0056762Y-037892D01*
G01X0056724Y-037900D01*
G01X0056713Y-037904D01*
G01X0056703Y-037900D01*
G01X0056664Y-037892D01*
G01X0056625Y-037892D01*
G01X0056368Y-037892D01*
G01X0056330Y-037900D01*
G01X0056319Y-037904D01*
G01X0056309Y-037900D01*
G01X0056270Y-037892D01*
G01X0056231Y-037892D01*
G01X0055974Y-037892D01*
G01X0055936Y-037900D01*
G01X0055926Y-037904D01*
G01X0055916Y-037900D01*
G01X0055877Y-037892D01*
G01X0055838Y-037892D01*
G01X0055581Y-037892D01*
G01X0055543Y-037900D01*
G01X0055532Y-037904D01*
G01X0055522Y-037900D01*
G01X0055483Y-037892D01*
G01X0055444Y-037892D01*
G01X0055187Y-037892D01*
G01X0055149Y-037900D01*
G01X0055113Y-037915D01*
G01X0055080Y-037936D01*
G01X0055053Y-037964D01*
G01X0055031Y-037996D01*
G01X0055016Y-038032D01*
G01X0055008Y-038071D01*
G01X0055008Y-038110D01*
G01X0055008Y-038505D01*
G01X0055016Y-038543D01*
G01X0055031Y-038579D01*
G01X0055052Y-038612D01*
G01X0055055Y-038614D01*
G01X0055055Y-038630D01*
G01X0055053Y-038633D01*
G01X0055031Y-038665D01*
G01X0055016Y-038701D01*
G01X0055008Y-038740D01*
G01X0055008Y-038779D01*
G01X0055008Y-039410D01*
G01X0055016Y-039448D01*
G01X0055031Y-039484D01*
G01X0055052Y-039517D01*
G01X0055080Y-039544D01*
G01X0055112Y-039566D01*
G01X0055148Y-039581D01*
G01X0055187Y-039589D01*
G01X0055226Y-039589D01*
G01X0055483Y-039589D01*
G01X0055521Y-039581D01*
G01X0055531Y-039576D01*
G01X0055541Y-039581D01*
G01X0055580Y-039589D01*
G01X0055619Y-039589D01*
G01X0055876Y-039589D01*
G01X0055914Y-039581D01*
G01X0055924Y-039576D01*
G01X0055935Y-039581D01*
G01X0055974Y-039589D01*
G01X0056013Y-039589D01*
G01X0056270Y-039589D01*
G01X0056308Y-039581D01*
G01X0056318Y-039576D01*
G01X0056329Y-039581D01*
G01X0056368Y-039589D01*
G01X0056407Y-039589D01*
G01X0056664Y-039589D01*
G01X0056702Y-039581D01*
G01X0056712Y-039576D01*
G01X0056722Y-039581D01*
G01X0056761Y-039589D01*
G01X0056800Y-039589D01*
G01X0057057Y-039589D01*
G01X0057095Y-039581D01*
G01X0057105Y-039576D01*
G01X0057116Y-039581D01*
G01X0057155Y-039589D01*
G01X0057194Y-039589D01*
G01X0057451Y-039589D01*
G01X0057489Y-039581D01*
G01X0057499Y-039576D01*
G01X0057510Y-039581D01*
G01X0057549Y-039589D01*
G01X0057588Y-039589D01*
G01X0057845Y-039589D01*
G01X0057883Y-039581D01*
G01X0057893Y-039576D01*
G01X0057904Y-039581D01*
G01X0057943Y-039589D01*
G01X0057982Y-039589D01*
G01X0058239Y-039589D01*
G01X0058277Y-039581D01*
G01X0058287Y-039576D01*
G01X0058297Y-039581D01*
G01X0058336Y-039589D01*
G01X0058375Y-039589D01*
G01X0058632Y-039589D01*
G01X0058670Y-039581D01*
G01X0058680Y-039576D01*
G01X0058691Y-039581D01*
G01X0058730Y-039589D01*
G01X0058769Y-039589D01*
G01X0059026Y-039589D01*
G01X0059064Y-039581D01*
G01X0059074Y-039576D01*
G01X0059085Y-039581D01*
G01X0059124Y-039589D01*
G01X0059163Y-039589D01*
G01X0059420Y-039589D01*
G01X0059458Y-039581D01*
G01X0059468Y-039576D01*
G01X0059478Y-039581D01*
G01X0059517Y-039589D01*
G01X0059556Y-039589D01*
G01X0059813Y-039589D01*
G01X0059851Y-039581D01*
G01X0059887Y-039566D01*
G01X0059920Y-039545D01*
G01X0059947Y-039517D01*
G01X0059969Y-039485D01*
G01X0059984Y-039449D01*
G01X0059992Y-039410D01*
G01X0059992Y-039371D01*
G01X0059992Y-038740D01*
G01X0059984Y-038702D01*
G01X0059969Y-038666D01*
G01X0059948Y-038633D01*
G01X0059945Y-038630D01*
G01X0059945Y-038615D01*
G01X0059948Y-038612D01*
G01X0059970Y-038580D01*
G01X0059985Y-038544D01*
G01X0059993Y-038505D01*
G01X0059993Y-040476D01*
G01X0059953Y-040476D01*
G01X0059852Y-040495D01*
G01X0059756Y-040533D01*
G01X0059670Y-040589D01*
G01X0059597Y-040661D01*
G01X0059539Y-040746D01*
G01X0059499Y-040836D01*
G01X0059465Y-040753D01*
G01X0059408Y-040668D01*
G01X0059336Y-040595D01*
G01X0059251Y-040537D01*
G01X0059156Y-040497D01*
G01X0059055Y-040476D01*
G01X0058953Y-040476D01*
G01X0058852Y-040495D01*
G01X0058756Y-040533D01*
G01X0058670Y-040589D01*
G01X0058597Y-040661D01*
G01X0058539Y-040746D01*
G01X0058499Y-040836D01*
G01X0058465Y-040753D01*
G01X0058408Y-040668D01*
G01X0058336Y-040595D01*
G01X0058251Y-040537D01*
G01X0058156Y-040497D01*
G01X0058055Y-040476D01*
G01X0057953Y-040476D01*
G01X0057852Y-040495D01*
G01X0057756Y-040533D01*
G01X0057670Y-040589D01*
G01X0057597Y-040661D01*
G01X0057539Y-040746D01*
G01X0057499Y-040836D01*
G01X0057465Y-040753D01*
G01X0057408Y-040668D01*
G01X0057336Y-040595D01*
G01X0057251Y-040537D01*
G01X0057156Y-040497D01*
G01X0057055Y-040476D01*
G01X0056953Y-040476D01*
G01X0056852Y-040495D01*
G01X0056756Y-040533D01*
G01X0056670Y-040589D01*
G01X0056597Y-040661D01*
G01X0056539Y-040746D01*
G01X0056499Y-040836D01*
G01X0056465Y-040753D01*
G01X0056408Y-040668D01*
G01X0056336Y-040595D01*
G01X0056251Y-040537D01*
G01X0056156Y-040497D01*
G01X0056055Y-040476D01*
G01X0055953Y-040476D01*
G01X0055852Y-040495D01*
G01X0055756Y-040533D01*
G01X0055670Y-040589D01*
G01X0055597Y-040661D01*
G01X0055539Y-040746D01*
G01X0055499Y-040836D01*
G01X0055465Y-040753D01*
G01X0055408Y-040668D01*
G01X0055336Y-040595D01*
G01X0055251Y-040537D01*
G01X0055156Y-040497D01*
G01X0055055Y-040476D01*
G01X0054953Y-040476D01*
G01X0054852Y-040495D01*
G01X0054756Y-040533D01*
G01X0054670Y-040589D01*
G01X0054597Y-040661D01*
G01X0054539Y-040746D01*
G01X0054499Y-040836D01*
G01X0054465Y-040753D01*
G01X0054408Y-040668D01*
G01X0054336Y-040595D01*
G01X0054251Y-040537D01*
G01X0054156Y-040497D01*
G01X0054055Y-040476D01*
G01X0053953Y-040476D01*
G01X0053852Y-040495D01*
G01X0053756Y-040533D01*
G01X0053670Y-040589D01*
G01X0053597Y-040661D01*
G01X0053539Y-040746D01*
G01X0053499Y-040836D01*
G01X0053465Y-040753D01*
G01X0053408Y-040668D01*
G01X0053336Y-040595D01*
G01X0053251Y-040537D01*
G01X0053156Y-040497D01*
G01X0053055Y-040476D01*
G01X0052953Y-040476D01*
G01X0052852Y-040495D01*
G01X0052756Y-040533D01*
G01X0052749Y-040537D01*
G01X0052749Y-036320D01*
G01X0052749Y-036281D01*
G01X0052749Y-035680D01*
G01X0052741Y-035642D01*
G01X0052726Y-035606D01*
G01X0052705Y-035573D01*
G01X0052677Y-035546D01*
G01X0052645Y-035524D01*
G01X0052609Y-035509D01*
G01X0052570Y-035501D01*
G01X0052531Y-035501D01*
G01X0051930Y-035501D01*
G01X0051892Y-035509D01*
G01X0051856Y-035524D01*
G01X0051823Y-035545D01*
G01X0051796Y-035573D01*
G01X0051774Y-035605D01*
G01X0051759Y-035641D01*
G01X0051751Y-035680D01*
G01X0051751Y-035719D01*
G01X0051751Y-036320D01*
G01X0051759Y-036358D01*
G01X0051774Y-036394D01*
G01X0051795Y-036427D01*
G01X0051823Y-036454D01*
G01X0051855Y-036476D01*
G01X0051891Y-036491D01*
G01X0051930Y-036499D01*
G01X0051969Y-036499D01*
G01X0052570Y-036499D01*
G01X0052608Y-036491D01*
G01X0052644Y-036476D01*
G01X0052677Y-036455D01*
G01X0052704Y-036427D01*
G01X0052726Y-036395D01*
G01X0052741Y-036359D01*
G01X0052749Y-036320D01*
G01X0052749Y-040537D01*
G01X0052670Y-040589D01*
G01X0052597Y-040661D01*
G01X0052539Y-040746D01*
G01X0052524Y-040780D01*
G01X0052524Y-040655D01*
G01X0052516Y-040617D01*
G01X0052501Y-040581D01*
G01X0052480Y-040548D01*
G01X0052452Y-040521D01*
G01X0052420Y-040499D01*
G01X0052384Y-040484D01*
G01X0052345Y-040476D01*
G01X0052306Y-040476D01*
G01X0051675Y-040476D01*
G01X0051675Y-034524D01*
G01X0051694Y-034524D01*
G01X0052345Y-034524D01*
G01X0052383Y-034516D01*
G01X0052419Y-034501D01*
G01X0052452Y-034480D01*
G01X0052479Y-034452D01*
G01X0052501Y-034420D01*
G01X0052516Y-034384D01*
G01X0052524Y-034345D01*
G01X0052524Y-034306D01*
G01X0052524Y-034220D01*
G01X0052532Y-034240D01*
G01X0052587Y-034327D01*
G01X0052658Y-034401D01*
G01X0052743Y-034459D01*
G01X0052837Y-034501D01*
G01X0052937Y-034523D01*
G01X0053040Y-034525D01*
G01X0053141Y-034507D01*
G01X0053237Y-034470D01*
G01X0053324Y-034415D01*
G01X0053398Y-034344D01*
G01X0053458Y-034260D01*
G01X0053499Y-034167D01*
G01X0053500Y-034160D01*
G01X0053532Y-034240D01*
G01X0053587Y-034327D01*
G01X0053658Y-034401D01*
G01X0053743Y-034459D01*
G01X0053837Y-034501D01*
G01X0053937Y-034523D01*
G01X0054040Y-034525D01*
G01X0054141Y-034507D01*
G01X0054237Y-034470D01*
G01X0054324Y-034415D01*
G01X0054398Y-034344D01*
G01X0054458Y-034260D01*
G01X0054499Y-034167D01*
G01X0054500Y-034160D01*
G01X0054532Y-034240D01*
G01X0054587Y-034327D01*
G01X0054658Y-034401D01*
G01X0054743Y-034459D01*
G01X0054837Y-034501D01*
G01X0054937Y-034523D01*
G01X0055040Y-034525D01*
G01X0055141Y-034507D01*
G01X0055237Y-034470D01*
G01X0055324Y-034415D01*
G01X0055398Y-034344D01*
G01X0055458Y-034260D01*
G01X0055499Y-034167D01*
G01X0055500Y-034160D01*
G01X0055532Y-034240D01*
G01X0055587Y-034327D01*
G01X0055658Y-034401D01*
G01X0055743Y-034459D01*
G01X0055837Y-034501D01*
G01X0055937Y-034523D01*
G01X0056040Y-034525D01*
G01X0056141Y-034507D01*
G01X0056237Y-034470D01*
G01X0056324Y-034415D01*
G01X0056398Y-034344D01*
G01X0056458Y-034260D01*
G01X0056499Y-034167D01*
G01X0056500Y-034160D01*
G01X0056532Y-034240D01*
G01X0056587Y-034327D01*
G01X0056658Y-034401D01*
G01X0056743Y-034459D01*
G01X0056837Y-034501D01*
G01X0056937Y-034523D01*
G01X0057040Y-034525D01*
G01X0057141Y-034507D01*
G01X0057237Y-034470D01*
G01X0057324Y-034415D01*
G01X0057398Y-034344D01*
G01X0057458Y-034260D01*
G01X0057499Y-034167D01*
G01X0057500Y-034160D01*
G01X0057532Y-034240D01*
G01X0057587Y-034327D01*
G01X0057658Y-034401D01*
G01X0057743Y-034459D01*
G01X0057837Y-034501D01*
G01X0057937Y-034523D01*
G01X0058040Y-034525D01*
G01X0058141Y-034507D01*
G01X0058237Y-034470D01*
G01X0058324Y-034415D01*
G01X0058398Y-034344D01*
G01X0058458Y-034260D01*
G01X0058499Y-034167D01*
G01X0058500Y-034160D01*
G01X0058532Y-034240D01*
G01X0058587Y-034327D01*
G01X0058658Y-034401D01*
G01X0058743Y-034459D01*
G01X0058837Y-034501D01*
G01X0058937Y-034523D01*
G01X0059040Y-034525D01*
G01X0059141Y-034507D01*
G01X0059237Y-034470D01*
G01X0059324Y-034415D01*
G01X0059398Y-034344D01*
G01X0059458Y-034260D01*
G01X0059499Y-034167D01*
G01X0059500Y-034160D01*
G01X0059532Y-034240D01*
G01X0059587Y-034327D01*
G01X0059658Y-034401D01*
G01X0059743Y-034459D01*
G01X0059837Y-034501D01*
G01X0059937Y-034523D01*
G01X0060040Y-034525D01*
G01X0060141Y-034507D01*
G01X0060237Y-034470D01*
G01X0060324Y-034415D01*
G01X0060398Y-034344D01*
G01X0060458Y-034260D01*
G01X0060499Y-034167D01*
G01X0060500Y-034160D01*
G01X0060532Y-034240D01*
G01X0060587Y-034327D01*
G01X0060658Y-034401D01*
G01X0060743Y-034459D01*
G01X0060837Y-034501D01*
G01X0060937Y-034523D01*
G01X0061040Y-034525D01*
G01X0061141Y-034507D01*
G01X0061237Y-034470D01*
G01X0061324Y-034415D01*
G01X0061398Y-034344D01*
G01X0061458Y-034260D01*
G01X0061499Y-034167D01*
G01X0061500Y-034160D01*
G01X0061532Y-034240D01*
G01X0061587Y-034327D01*
G01X0061658Y-034401D01*
G01X0061743Y-034459D01*
G01X0061837Y-034501D01*
G01X0061937Y-034523D01*
G01X0062040Y-034525D01*
G01X0062141Y-034507D01*
G01X0062237Y-034470D01*
G01X0062324Y-034415D01*
G01X0062398Y-034344D01*
G01X0062458Y-034260D01*
G01X0062499Y-034167D01*
G01X0062500Y-034160D01*
G01X0062532Y-034240D01*
G01X0062587Y-034327D01*
G01X0062658Y-034401D01*
G01X0062743Y-034459D01*
G01X0062837Y-034501D01*
G01X0062937Y-034523D01*
G01X0063040Y-034525D01*
G01X0063141Y-034507D01*
G01X0063237Y-034470D01*
G01X0063324Y-034415D01*
G01X0063325Y-034414D01*
G01X0063325Y-040587D01*
G01X0063325Y-040587D01*
G37*
G54D18*
G01X0063325Y-040587D02*
G01X0063251Y-040537D01*
G01X0063251Y-040537D02*
G01X0063249Y-040536D01*
G01X0063249Y-040536D02*
G01X0063249Y-036570D01*
G01X0063249Y-036570D02*
G01X0063249Y-036531D01*
G01X0063249Y-036531D02*
G01X0063249Y-035930D01*
G01X0063249Y-035930D02*
G01X0063241Y-035892D01*
G01X0063241Y-035892D02*
G01X0063226Y-035856D01*
G01X0063226Y-035856D02*
G01X0063205Y-035823D01*
G01X0063205Y-035823D02*
G01X0063177Y-035796D01*
G01X0063177Y-035796D02*
G01X0063145Y-035774D01*
G01X0063145Y-035774D02*
G01X0063109Y-035759D01*
G01X0063109Y-035759D02*
G01X0063070Y-035751D01*
G01X0063070Y-035751D02*
G01X0063031Y-035751D01*
G01X0063031Y-035751D02*
G01X0062430Y-035751D01*
G01X0062430Y-035751D02*
G01X0062392Y-035759D01*
G01X0062392Y-035759D02*
G01X0062356Y-035774D01*
G01X0062356Y-035774D02*
G01X0062323Y-035795D01*
G01X0062323Y-035795D02*
G01X0062296Y-035823D01*
G01X0062296Y-035823D02*
G01X0062274Y-035855D01*
G01X0062274Y-035855D02*
G01X0062259Y-035891D01*
G01X0062259Y-035891D02*
G01X0062251Y-035930D01*
G01X0062251Y-035930D02*
G01X0062251Y-035969D01*
G01X0062251Y-035969D02*
G01X0062251Y-036570D01*
G01X0062251Y-036570D02*
G01X0062259Y-036608D01*
G01X0062259Y-036608D02*
G01X0062274Y-036644D01*
G01X0062274Y-036644D02*
G01X0062295Y-036677D01*
G01X0062295Y-036677D02*
G01X0062323Y-036704D01*
G01X0062323Y-036704D02*
G01X0062355Y-036726D01*
G01X0062355Y-036726D02*
G01X0062391Y-036741D01*
G01X0062391Y-036741D02*
G01X0062430Y-036749D01*
G01X0062430Y-036749D02*
G01X0062469Y-036749D01*
G01X0062469Y-036749D02*
G01X0063070Y-036749D01*
G01X0063070Y-036749D02*
G01X0063108Y-036741D01*
G01X0063108Y-036741D02*
G01X0063144Y-036726D01*
G01X0063144Y-036726D02*
G01X0063177Y-036705D01*
G01X0063177Y-036705D02*
G01X0063204Y-036677D01*
G01X0063204Y-036677D02*
G01X0063226Y-036645D01*
G01X0063226Y-036645D02*
G01X0063241Y-036609D01*
G01X0063241Y-036609D02*
G01X0063249Y-036570D01*
G01X0063249Y-036570D02*
G01X0063249Y-040536D01*
G01X0063249Y-040536D02*
G01X0063156Y-040497D01*
G01X0063156Y-040497D02*
G01X0063055Y-040476D01*
G01X0063055Y-040476D02*
G01X0062953Y-040476D01*
G01X0062953Y-040476D02*
G01X0062852Y-040495D01*
G01X0062852Y-040495D02*
G01X0062756Y-040533D01*
G01X0062756Y-040533D02*
G01X0062670Y-040589D01*
G01X0062670Y-040589D02*
G01X0062597Y-040661D01*
G01X0062597Y-040661D02*
G01X0062539Y-040746D01*
G01X0062539Y-040746D02*
G01X0062499Y-040836D01*
G01X0062499Y-040836D02*
G01X0062465Y-040753D01*
G01X0062465Y-040753D02*
G01X0062408Y-040668D01*
G01X0062408Y-040668D02*
G01X0062336Y-040595D01*
G01X0062336Y-040595D02*
G01X0062251Y-040537D01*
G01X0062251Y-040537D02*
G01X0062156Y-040497D01*
G01X0062156Y-040497D02*
G01X0062055Y-040476D01*
G01X0062055Y-040476D02*
G01X0061953Y-040476D01*
G01X0061953Y-040476D02*
G01X0061852Y-040495D01*
G01X0061852Y-040495D02*
G01X0061756Y-040533D01*
G01X0061756Y-040533D02*
G01X0061670Y-040589D01*
G01X0061670Y-040589D02*
G01X0061597Y-040661D01*
G01X0061597Y-040661D02*
G01X0061539Y-040746D01*
G01X0061539Y-040746D02*
G01X0061499Y-040836D01*
G01X0061499Y-040836D02*
G01X0061465Y-040753D01*
G01X0061465Y-040753D02*
G01X0061408Y-040668D01*
G01X0061408Y-040668D02*
G01X0061336Y-040595D01*
G01X0061336Y-040595D02*
G01X0061251Y-040537D01*
G01X0061251Y-040537D02*
G01X0061156Y-040497D01*
G01X0061156Y-040497D02*
G01X0061055Y-040476D01*
G01X0061055Y-040476D02*
G01X0060953Y-040476D01*
G01X0060953Y-040476D02*
G01X0060852Y-040495D01*
G01X0060852Y-040495D02*
G01X0060756Y-040533D01*
G01X0060756Y-040533D02*
G01X0060670Y-040589D01*
G01X0060670Y-040589D02*
G01X0060597Y-040661D01*
G01X0060597Y-040661D02*
G01X0060539Y-040746D01*
G01X0060539Y-040746D02*
G01X0060499Y-040836D01*
G01X0060499Y-040836D02*
G01X0060465Y-040753D01*
G01X0060465Y-040753D02*
G01X0060408Y-040668D01*
G01X0060408Y-040668D02*
G01X0060336Y-040595D01*
G01X0060336Y-040595D02*
G01X0060251Y-040537D01*
G01X0060251Y-040537D02*
G01X0060156Y-040497D01*
G01X0060156Y-040497D02*
G01X0060055Y-040476D01*
G01X0060055Y-040476D02*
G01X0059993Y-040476D01*
G01X0059993Y-040476D02*
G01X0059993Y-038505D01*
G01X0059993Y-038505D02*
G01X0059993Y-038466D01*
G01X0059993Y-038466D02*
G01X0059993Y-038071D01*
G01X0059993Y-038071D02*
G01X0059993Y-036910D01*
G01X0059993Y-036910D02*
G01X0059993Y-036871D01*
G01X0059993Y-036871D02*
G01X0059993Y-036476D01*
G01X0059993Y-036476D02*
G01X0059985Y-036438D01*
G01X0059985Y-036438D02*
G01X0059970Y-036402D01*
G01X0059970Y-036402D02*
G01X0059949Y-036369D01*
G01X0059949Y-036369D02*
G01X0059947Y-036367D01*
G01X0059947Y-036367D02*
G01X0059969Y-036335D01*
G01X0059969Y-036335D02*
G01X0059984Y-036299D01*
G01X0059984Y-036299D02*
G01X0059992Y-036260D01*
G01X0059992Y-036260D02*
G01X0059992Y-036221D01*
G01X0059992Y-036221D02*
G01X0059992Y-035590D01*
G01X0059992Y-035590D02*
G01X0059984Y-035552D01*
G01X0059984Y-035552D02*
G01X0059969Y-035516D01*
G01X0059969Y-035516D02*
G01X0059948Y-035483D01*
G01X0059948Y-035483D02*
G01X0059920Y-035456D01*
G01X0059920Y-035456D02*
G01X0059888Y-035434D01*
G01X0059888Y-035434D02*
G01X0059852Y-035419D01*
G01X0059852Y-035419D02*
G01X0059813Y-035411D01*
G01X0059813Y-035411D02*
G01X0059774Y-035411D01*
G01X0059774Y-035411D02*
G01X0059517Y-035411D01*
G01X0059517Y-035411D02*
G01X0059479Y-035419D01*
G01X0059479Y-035419D02*
G01X0059469Y-035423D01*
G01X0059469Y-035423D02*
G01X0059459Y-035419D01*
G01X0059459Y-035419D02*
G01X0059420Y-035411D01*
G01X0059420Y-035411D02*
G01X0059381Y-035411D01*
G01X0059381Y-035411D02*
G01X0059124Y-035411D01*
G01X0059124Y-035411D02*
G01X0059086Y-035419D01*
G01X0059086Y-035419D02*
G01X0059075Y-035423D01*
G01X0059075Y-035423D02*
G01X0059065Y-035419D01*
G01X0059065Y-035419D02*
G01X0059026Y-035411D01*
G01X0059026Y-035411D02*
G01X0058987Y-035411D01*
G01X0058987Y-035411D02*
G01X0058730Y-035411D01*
G01X0058730Y-035411D02*
G01X0058692Y-035419D01*
G01X0058692Y-035419D02*
G01X0058681Y-035423D01*
G01X0058681Y-035423D02*
G01X0058671Y-035419D01*
G01X0058671Y-035419D02*
G01X0058632Y-035411D01*
G01X0058632Y-035411D02*
G01X0058593Y-035411D01*
G01X0058593Y-035411D02*
G01X0058336Y-035411D01*
G01X0058336Y-035411D02*
G01X0058298Y-035419D01*
G01X0058298Y-035419D02*
G01X0058288Y-035423D01*
G01X0058288Y-035423D02*
G01X0058278Y-035419D01*
G01X0058278Y-035419D02*
G01X0058239Y-035411D01*
G01X0058239Y-035411D02*
G01X0058200Y-035411D01*
G01X0058200Y-035411D02*
G01X0057943Y-035411D01*
G01X0057943Y-035411D02*
G01X0057905Y-035419D01*
G01X0057905Y-035419D02*
G01X0057894Y-035423D01*
G01X0057894Y-035423D02*
G01X0057884Y-035419D01*
G01X0057884Y-035419D02*
G01X0057845Y-035411D01*
G01X0057845Y-035411D02*
G01X0057806Y-035411D01*
G01X0057806Y-035411D02*
G01X0057549Y-035411D01*
G01X0057549Y-035411D02*
G01X0057511Y-035419D01*
G01X0057511Y-035419D02*
G01X0057500Y-035423D01*
G01X0057500Y-035423D02*
G01X0057490Y-035419D01*
G01X0057490Y-035419D02*
G01X0057451Y-035411D01*
G01X0057451Y-035411D02*
G01X0057412Y-035411D01*
G01X0057412Y-035411D02*
G01X0057155Y-035411D01*
G01X0057155Y-035411D02*
G01X0057117Y-035419D01*
G01X0057117Y-035419D02*
G01X0057106Y-035423D01*
G01X0057106Y-035423D02*
G01X0057096Y-035419D01*
G01X0057096Y-035419D02*
G01X0057057Y-035411D01*
G01X0057057Y-035411D02*
G01X0057018Y-035411D01*
G01X0057018Y-035411D02*
G01X0056761Y-035411D01*
G01X0056761Y-035411D02*
G01X0056723Y-035419D01*
G01X0056723Y-035419D02*
G01X0056713Y-035423D01*
G01X0056713Y-035423D02*
G01X0056703Y-035419D01*
G01X0056703Y-035419D02*
G01X0056664Y-035411D01*
G01X0056664Y-035411D02*
G01X0056625Y-035411D01*
G01X0056625Y-035411D02*
G01X0056368Y-035411D01*
G01X0056368Y-035411D02*
G01X0056330Y-035419D01*
G01X0056330Y-035419D02*
G01X0056319Y-035423D01*
G01X0056319Y-035423D02*
G01X0056309Y-035419D01*
G01X0056309Y-035419D02*
G01X0056270Y-035411D01*
G01X0056270Y-035411D02*
G01X0056231Y-035411D01*
G01X0056231Y-035411D02*
G01X0055974Y-035411D01*
G01X0055974Y-035411D02*
G01X0055936Y-035419D01*
G01X0055936Y-035419D02*
G01X0055925Y-035423D01*
G01X0055925Y-035423D02*
G01X0055915Y-035419D01*
G01X0055915Y-035419D02*
G01X0055876Y-035411D01*
G01X0055876Y-035411D02*
G01X0055837Y-035411D01*
G01X0055837Y-035411D02*
G01X0055580Y-035411D01*
G01X0055580Y-035411D02*
G01X0055542Y-035419D01*
G01X0055542Y-035419D02*
G01X0055532Y-035423D01*
G01X0055532Y-035423D02*
G01X0055522Y-035419D01*
G01X0055522Y-035419D02*
G01X0055483Y-035411D01*
G01X0055483Y-035411D02*
G01X0055444Y-035411D01*
G01X0055444Y-035411D02*
G01X0055187Y-035411D01*
G01X0055187Y-035411D02*
G01X0055149Y-035419D01*
G01X0055149Y-035419D02*
G01X0055113Y-035434D01*
G01X0055113Y-035434D02*
G01X0055080Y-035455D01*
G01X0055080Y-035455D02*
G01X0055053Y-035483D01*
G01X0055053Y-035483D02*
G01X0055031Y-035515D01*
G01X0055031Y-035515D02*
G01X0055016Y-035551D01*
G01X0055016Y-035551D02*
G01X0055008Y-035590D01*
G01X0055008Y-035590D02*
G01X0055008Y-035629D01*
G01X0055008Y-035629D02*
G01X0055008Y-036260D01*
G01X0055008Y-036260D02*
G01X0055016Y-036298D01*
G01X0055016Y-036298D02*
G01X0055031Y-036334D01*
G01X0055031Y-036334D02*
G01X0055052Y-036367D01*
G01X0055052Y-036367D02*
G01X0055053Y-036368D01*
G01X0055053Y-036368D02*
G01X0055053Y-036369D01*
G01X0055053Y-036369D02*
G01X0055031Y-036401D01*
G01X0055031Y-036401D02*
G01X0055016Y-036437D01*
G01X0055016Y-036437D02*
G01X0055008Y-036476D01*
G01X0055008Y-036476D02*
G01X0055008Y-036515D01*
G01X0055008Y-036515D02*
G01X0055008Y-036910D01*
G01X0055008Y-036910D02*
G01X0055016Y-036948D01*
G01X0055016Y-036948D02*
G01X0055031Y-036984D01*
G01X0055031Y-036984D02*
G01X0055052Y-037017D01*
G01X0055052Y-037017D02*
G01X0055080Y-037044D01*
G01X0055080Y-037044D02*
G01X0055112Y-037066D01*
G01X0055112Y-037066D02*
G01X0055148Y-037081D01*
G01X0055148Y-037081D02*
G01X0055187Y-037089D01*
G01X0055187Y-037089D02*
G01X0055226Y-037089D01*
G01X0055226Y-037089D02*
G01X0055483Y-037089D01*
G01X0055483Y-037089D02*
G01X0055521Y-037081D01*
G01X0055521Y-037081D02*
G01X0055531Y-037076D01*
G01X0055531Y-037076D02*
G01X0055542Y-037081D01*
G01X0055542Y-037081D02*
G01X0055581Y-037089D01*
G01X0055581Y-037089D02*
G01X0055620Y-037089D01*
G01X0055620Y-037089D02*
G01X0055877Y-037089D01*
G01X0055877Y-037089D02*
G01X0055915Y-037081D01*
G01X0055915Y-037081D02*
G01X0055925Y-037076D01*
G01X0055925Y-037076D02*
G01X0055935Y-037081D01*
G01X0055935Y-037081D02*
G01X0055974Y-037089D01*
G01X0055974Y-037089D02*
G01X0056013Y-037089D01*
G01X0056013Y-037089D02*
G01X0056270Y-037089D01*
G01X0056270Y-037089D02*
G01X0056308Y-037081D01*
G01X0056308Y-037081D02*
G01X0056318Y-037076D01*
G01X0056318Y-037076D02*
G01X0056329Y-037081D01*
G01X0056329Y-037081D02*
G01X0056368Y-037089D01*
G01X0056368Y-037089D02*
G01X0056407Y-037089D01*
G01X0056407Y-037089D02*
G01X0056664Y-037089D01*
G01X0056664Y-037089D02*
G01X0056702Y-037081D01*
G01X0056702Y-037081D02*
G01X0056712Y-037076D01*
G01X0056712Y-037076D02*
G01X0056723Y-037081D01*
G01X0056723Y-037081D02*
G01X0056762Y-037089D01*
G01X0056762Y-037089D02*
G01X0056801Y-037089D01*
G01X0056801Y-037089D02*
G01X0057058Y-037089D01*
G01X0057058Y-037089D02*
G01X0057096Y-037081D01*
G01X0057096Y-037081D02*
G01X0057106Y-037076D01*
G01X0057106Y-037076D02*
G01X0057117Y-037081D01*
G01X0057117Y-037081D02*
G01X0057156Y-037089D01*
G01X0057156Y-037089D02*
G01X0057195Y-037089D01*
G01X0057195Y-037089D02*
G01X0057452Y-037089D01*
G01X0057452Y-037089D02*
G01X0057490Y-037081D01*
G01X0057490Y-037081D02*
G01X0057500Y-037076D01*
G01X0057500Y-037076D02*
G01X0057510Y-037081D01*
G01X0057510Y-037081D02*
G01X0057549Y-037089D01*
G01X0057549Y-037089D02*
G01X0057588Y-037089D01*
G01X0057588Y-037089D02*
G01X0057845Y-037089D01*
G01X0057845Y-037089D02*
G01X0057883Y-037081D01*
G01X0057883Y-037081D02*
G01X0057893Y-037076D01*
G01X0057893Y-037076D02*
G01X0057904Y-037081D01*
G01X0057904Y-037081D02*
G01X0057943Y-037089D01*
G01X0057943Y-037089D02*
G01X0057982Y-037089D01*
G01X0057982Y-037089D02*
G01X0058239Y-037089D01*
G01X0058239Y-037089D02*
G01X0058277Y-037081D01*
G01X0058277Y-037081D02*
G01X0058287Y-037076D01*
G01X0058287Y-037076D02*
G01X0058298Y-037081D01*
G01X0058298Y-037081D02*
G01X0058337Y-037089D01*
G01X0058337Y-037089D02*
G01X0058376Y-037089D01*
G01X0058376Y-037089D02*
G01X0058633Y-037089D01*
G01X0058633Y-037089D02*
G01X0058671Y-037081D01*
G01X0058671Y-037081D02*
G01X0058681Y-037076D01*
G01X0058681Y-037076D02*
G01X0058691Y-037081D01*
G01X0058691Y-037081D02*
G01X0058730Y-037089D01*
G01X0058730Y-037089D02*
G01X0058769Y-037089D01*
G01X0058769Y-037089D02*
G01X0059026Y-037089D01*
G01X0059026Y-037089D02*
G01X0059064Y-037081D01*
G01X0059064Y-037081D02*
G01X0059074Y-037076D01*
G01X0059074Y-037076D02*
G01X0059085Y-037081D01*
G01X0059085Y-037081D02*
G01X0059124Y-037089D01*
G01X0059124Y-037089D02*
G01X0059163Y-037089D01*
G01X0059163Y-037089D02*
G01X0059420Y-037089D01*
G01X0059420Y-037089D02*
G01X0059458Y-037081D01*
G01X0059458Y-037081D02*
G01X0059468Y-037076D01*
G01X0059468Y-037076D02*
G01X0059479Y-037081D01*
G01X0059479Y-037081D02*
G01X0059518Y-037089D01*
G01X0059518Y-037089D02*
G01X0059557Y-037089D01*
G01X0059557Y-037089D02*
G01X0059814Y-037089D01*
G01X0059814Y-037089D02*
G01X0059852Y-037081D01*
G01X0059852Y-037081D02*
G01X0059888Y-037066D01*
G01X0059888Y-037066D02*
G01X0059921Y-037045D01*
G01X0059921Y-037045D02*
G01X0059948Y-037017D01*
G01X0059948Y-037017D02*
G01X0059970Y-036985D01*
G01X0059970Y-036985D02*
G01X0059985Y-036949D01*
G01X0059985Y-036949D02*
G01X0059993Y-036910D01*
G01X0059993Y-036910D02*
G01X0059993Y-038071D01*
G01X0059993Y-038071D02*
G01X0059985Y-038033D01*
G01X0059985Y-038033D02*
G01X0059970Y-037997D01*
G01X0059970Y-037997D02*
G01X0059949Y-037964D01*
G01X0059949Y-037964D02*
G01X0059921Y-037937D01*
G01X0059921Y-037937D02*
G01X0059889Y-037915D01*
G01X0059889Y-037915D02*
G01X0059853Y-037900D01*
G01X0059853Y-037900D02*
G01X0059814Y-037892D01*
G01X0059814Y-037892D02*
G01X0059775Y-037892D01*
G01X0059775Y-037892D02*
G01X0059518Y-037892D01*
G01X0059518Y-037892D02*
G01X0059480Y-037900D01*
G01X0059480Y-037900D02*
G01X0059469Y-037904D01*
G01X0059469Y-037904D02*
G01X0059459Y-037900D01*
G01X0059459Y-037900D02*
G01X0059420Y-037892D01*
G01X0059420Y-037892D02*
G01X0059381Y-037892D01*
G01X0059381Y-037892D02*
G01X0059124Y-037892D01*
G01X0059124Y-037892D02*
G01X0059086Y-037900D01*
G01X0059086Y-037900D02*
G01X0059075Y-037904D01*
G01X0059075Y-037904D02*
G01X0059065Y-037900D01*
G01X0059065Y-037900D02*
G01X0059026Y-037892D01*
G01X0059026Y-037892D02*
G01X0058987Y-037892D01*
G01X0058987Y-037892D02*
G01X0058730Y-037892D01*
G01X0058730Y-037892D02*
G01X0058692Y-037900D01*
G01X0058692Y-037900D02*
G01X0058682Y-037904D01*
G01X0058682Y-037904D02*
G01X0058672Y-037900D01*
G01X0058672Y-037900D02*
G01X0058633Y-037892D01*
G01X0058633Y-037892D02*
G01X0058594Y-037892D01*
G01X0058594Y-037892D02*
G01X0058337Y-037892D01*
G01X0058337Y-037892D02*
G01X0058299Y-037900D01*
G01X0058299Y-037900D02*
G01X0058288Y-037904D01*
G01X0058288Y-037904D02*
G01X0058278Y-037900D01*
G01X0058278Y-037900D02*
G01X0058239Y-037892D01*
G01X0058239Y-037892D02*
G01X0058200Y-037892D01*
G01X0058200Y-037892D02*
G01X0057943Y-037892D01*
G01X0057943Y-037892D02*
G01X0057905Y-037900D01*
G01X0057905Y-037900D02*
G01X0057894Y-037904D01*
G01X0057894Y-037904D02*
G01X0057884Y-037900D01*
G01X0057884Y-037900D02*
G01X0057845Y-037892D01*
G01X0057845Y-037892D02*
G01X0057806Y-037892D01*
G01X0057806Y-037892D02*
G01X0057549Y-037892D01*
G01X0057549Y-037892D02*
G01X0057511Y-037900D01*
G01X0057511Y-037900D02*
G01X0057501Y-037904D01*
G01X0057501Y-037904D02*
G01X0057491Y-037900D01*
G01X0057491Y-037900D02*
G01X0057452Y-037892D01*
G01X0057452Y-037892D02*
G01X0057413Y-037892D01*
G01X0057413Y-037892D02*
G01X0057156Y-037892D01*
G01X0057156Y-037892D02*
G01X0057118Y-037900D01*
G01X0057118Y-037900D02*
G01X0057107Y-037904D01*
G01X0057107Y-037904D02*
G01X0057097Y-037900D01*
G01X0057097Y-037900D02*
G01X0057058Y-037892D01*
G01X0057058Y-037892D02*
G01X0057019Y-037892D01*
G01X0057019Y-037892D02*
G01X0056762Y-037892D01*
G01X0056762Y-037892D02*
G01X0056724Y-037900D01*
G01X0056724Y-037900D02*
G01X0056713Y-037904D01*
G01X0056713Y-037904D02*
G01X0056703Y-037900D01*
G01X0056703Y-037900D02*
G01X0056664Y-037892D01*
G01X0056664Y-037892D02*
G01X0056625Y-037892D01*
G01X0056625Y-037892D02*
G01X0056368Y-037892D01*
G01X0056368Y-037892D02*
G01X0056330Y-037900D01*
G01X0056330Y-037900D02*
G01X0056319Y-037904D01*
G01X0056319Y-037904D02*
G01X0056309Y-037900D01*
G01X0056309Y-037900D02*
G01X0056270Y-037892D01*
G01X0056270Y-037892D02*
G01X0056231Y-037892D01*
G01X0056231Y-037892D02*
G01X0055974Y-037892D01*
G01X0055974Y-037892D02*
G01X0055936Y-037900D01*
G01X0055936Y-037900D02*
G01X0055926Y-037904D01*
G01X0055926Y-037904D02*
G01X0055916Y-037900D01*
G01X0055916Y-037900D02*
G01X0055877Y-037892D01*
G01X0055877Y-037892D02*
G01X0055838Y-037892D01*
G01X0055838Y-037892D02*
G01X0055581Y-037892D01*
G01X0055581Y-037892D02*
G01X0055543Y-037900D01*
G01X0055543Y-037900D02*
G01X0055532Y-037904D01*
G01X0055532Y-037904D02*
G01X0055522Y-037900D01*
G01X0055522Y-037900D02*
G01X0055483Y-037892D01*
G01X0055483Y-037892D02*
G01X0055444Y-037892D01*
G01X0055444Y-037892D02*
G01X0055187Y-037892D01*
G01X0055187Y-037892D02*
G01X0055149Y-037900D01*
G01X0055149Y-037900D02*
G01X0055113Y-037915D01*
G01X0055113Y-037915D02*
G01X0055080Y-037936D01*
G01X0055080Y-037936D02*
G01X0055053Y-037964D01*
G01X0055053Y-037964D02*
G01X0055031Y-037996D01*
G01X0055031Y-037996D02*
G01X0055016Y-038032D01*
G01X0055016Y-038032D02*
G01X0055008Y-038071D01*
G01X0055008Y-038071D02*
G01X0055008Y-038110D01*
G01X0055008Y-038110D02*
G01X0055008Y-038505D01*
G01X0055008Y-038505D02*
G01X0055016Y-038543D01*
G01X0055016Y-038543D02*
G01X0055031Y-038579D01*
G01X0055031Y-038579D02*
G01X0055052Y-038612D01*
G01X0055052Y-038612D02*
G01X0055055Y-038614D01*
G01X0055055Y-038614D02*
G01X0055055Y-038630D01*
G01X0055055Y-038630D02*
G01X0055053Y-038633D01*
G01X0055053Y-038633D02*
G01X0055031Y-038665D01*
G01X0055031Y-038665D02*
G01X0055016Y-038701D01*
G01X0055016Y-038701D02*
G01X0055008Y-038740D01*
G01X0055008Y-038740D02*
G01X0055008Y-038779D01*
G01X0055008Y-038779D02*
G01X0055008Y-039410D01*
G01X0055008Y-039410D02*
G01X0055016Y-039448D01*
G01X0055016Y-039448D02*
G01X0055031Y-039484D01*
G01X0055031Y-039484D02*
G01X0055052Y-039517D01*
G01X0055052Y-039517D02*
G01X0055080Y-039544D01*
G01X0055080Y-039544D02*
G01X0055112Y-039566D01*
G01X0055112Y-039566D02*
G01X0055148Y-039581D01*
G01X0055148Y-039581D02*
G01X0055187Y-039589D01*
G01X0055187Y-039589D02*
G01X0055226Y-039589D01*
G01X0055226Y-039589D02*
G01X0055483Y-039589D01*
G01X0055483Y-039589D02*
G01X0055521Y-039581D01*
G01X0055521Y-039581D02*
G01X0055531Y-039576D01*
G01X0055531Y-039576D02*
G01X0055541Y-039581D01*
G01X0055541Y-039581D02*
G01X0055580Y-039589D01*
G01X0055580Y-039589D02*
G01X0055619Y-039589D01*
G01X0055619Y-039589D02*
G01X0055876Y-039589D01*
G01X0055876Y-039589D02*
G01X0055914Y-039581D01*
G01X0055914Y-039581D02*
G01X0055924Y-039576D01*
G01X0055924Y-039576D02*
G01X0055935Y-039581D01*
G01X0055935Y-039581D02*
G01X0055974Y-039589D01*
G01X0055974Y-039589D02*
G01X0056013Y-039589D01*
G01X0056013Y-039589D02*
G01X0056270Y-039589D01*
G01X0056270Y-039589D02*
G01X0056308Y-039581D01*
G01X0056308Y-039581D02*
G01X0056318Y-039576D01*
G01X0056318Y-039576D02*
G01X0056329Y-039581D01*
G01X0056329Y-039581D02*
G01X0056368Y-039589D01*
G01X0056368Y-039589D02*
G01X0056407Y-039589D01*
G01X0056407Y-039589D02*
G01X0056664Y-039589D01*
G01X0056664Y-039589D02*
G01X0056702Y-039581D01*
G01X0056702Y-039581D02*
G01X0056712Y-039576D01*
G01X0056712Y-039576D02*
G01X0056722Y-039581D01*
G01X0056722Y-039581D02*
G01X0056761Y-039589D01*
G01X0056761Y-039589D02*
G01X0056800Y-039589D01*
G01X0056800Y-039589D02*
G01X0057057Y-039589D01*
G01X0057057Y-039589D02*
G01X0057095Y-039581D01*
G01X0057095Y-039581D02*
G01X0057105Y-039576D01*
G01X0057105Y-039576D02*
G01X0057116Y-039581D01*
G01X0057116Y-039581D02*
G01X0057155Y-039589D01*
G01X0057155Y-039589D02*
G01X0057194Y-039589D01*
G01X0057194Y-039589D02*
G01X0057451Y-039589D01*
G01X0057451Y-039589D02*
G01X0057489Y-039581D01*
G01X0057489Y-039581D02*
G01X0057499Y-039576D01*
G01X0057499Y-039576D02*
G01X0057510Y-039581D01*
G01X0057510Y-039581D02*
G01X0057549Y-039589D01*
G01X0057549Y-039589D02*
G01X0057588Y-039589D01*
G01X0057588Y-039589D02*
G01X0057845Y-039589D01*
G01X0057845Y-039589D02*
G01X0057883Y-039581D01*
G01X0057883Y-039581D02*
G01X0057893Y-039576D01*
G01X0057893Y-039576D02*
G01X0057904Y-039581D01*
G01X0057904Y-039581D02*
G01X0057943Y-039589D01*
G01X0057943Y-039589D02*
G01X0057982Y-039589D01*
G01X0057982Y-039589D02*
G01X0058239Y-039589D01*
G01X0058239Y-039589D02*
G01X0058277Y-039581D01*
G01X0058277Y-039581D02*
G01X0058287Y-039576D01*
G01X0058287Y-039576D02*
G01X0058297Y-039581D01*
G01X0058297Y-039581D02*
G01X0058336Y-039589D01*
G01X0058336Y-039589D02*
G01X0058375Y-039589D01*
G01X0058375Y-039589D02*
G01X0058632Y-039589D01*
G01X0058632Y-039589D02*
G01X0058670Y-039581D01*
G01X0058670Y-039581D02*
G01X0058680Y-039576D01*
G01X0058680Y-039576D02*
G01X0058691Y-039581D01*
G01X0058691Y-039581D02*
G01X0058730Y-039589D01*
G01X0058730Y-039589D02*
G01X0058769Y-039589D01*
G01X0058769Y-039589D02*
G01X0059026Y-039589D01*
G01X0059026Y-039589D02*
G01X0059064Y-039581D01*
G01X0059064Y-039581D02*
G01X0059074Y-039576D01*
G01X0059074Y-039576D02*
G01X0059085Y-039581D01*
G01X0059085Y-039581D02*
G01X0059124Y-039589D01*
G01X0059124Y-039589D02*
G01X0059163Y-039589D01*
G01X0059163Y-039589D02*
G01X0059420Y-039589D01*
G01X0059420Y-039589D02*
G01X0059458Y-039581D01*
G01X0059458Y-039581D02*
G01X0059468Y-039576D01*
G01X0059468Y-039576D02*
G01X0059478Y-039581D01*
G01X0059478Y-039581D02*
G01X0059517Y-039589D01*
G01X0059517Y-039589D02*
G01X0059556Y-039589D01*
G01X0059556Y-039589D02*
G01X0059813Y-039589D01*
G01X0059813Y-039589D02*
G01X0059851Y-039581D01*
G01X0059851Y-039581D02*
G01X0059887Y-039566D01*
G01X0059887Y-039566D02*
G01X0059920Y-039545D01*
G01X0059920Y-039545D02*
G01X0059947Y-039517D01*
G01X0059947Y-039517D02*
G01X0059969Y-039485D01*
G01X0059969Y-039485D02*
G01X0059984Y-039449D01*
G01X0059984Y-039449D02*
G01X0059992Y-039410D01*
G01X0059992Y-039410D02*
G01X0059992Y-039371D01*
G01X0059992Y-039371D02*
G01X0059992Y-038740D01*
G01X0059992Y-038740D02*
G01X0059984Y-038702D01*
G01X0059984Y-038702D02*
G01X0059969Y-038666D01*
G01X0059969Y-038666D02*
G01X0059948Y-038633D01*
G01X0059948Y-038633D02*
G01X0059945Y-038630D01*
G01X0059945Y-038630D02*
G01X0059945Y-038615D01*
G01X0059945Y-038615D02*
G01X0059948Y-038612D01*
G01X0059948Y-038612D02*
G01X0059970Y-038580D01*
G01X0059970Y-038580D02*
G01X0059985Y-038544D01*
G01X0059985Y-038544D02*
G01X0059993Y-038505D01*
G01X0059993Y-038505D02*
G01X0059993Y-040476D01*
G01X0059993Y-040476D02*
G01X0059953Y-040476D01*
G01X0059953Y-040476D02*
G01X0059852Y-040495D01*
G01X0059852Y-040495D02*
G01X0059756Y-040533D01*
G01X0059756Y-040533D02*
G01X0059670Y-040589D01*
G01X0059670Y-040589D02*
G01X0059597Y-040661D01*
G01X0059597Y-040661D02*
G01X0059539Y-040746D01*
G01X0059539Y-040746D02*
G01X0059499Y-040836D01*
G01X0059499Y-040836D02*
G01X0059465Y-040753D01*
G01X0059465Y-040753D02*
G01X0059408Y-040668D01*
G01X0059408Y-040668D02*
G01X0059336Y-040595D01*
G01X0059336Y-040595D02*
G01X0059251Y-040537D01*
G01X0059251Y-040537D02*
G01X0059156Y-040497D01*
G01X0059156Y-040497D02*
G01X0059055Y-040476D01*
G01X0059055Y-040476D02*
G01X0058953Y-040476D01*
G01X0058953Y-040476D02*
G01X0058852Y-040495D01*
G01X0058852Y-040495D02*
G01X0058756Y-040533D01*
G01X0058756Y-040533D02*
G01X0058670Y-040589D01*
G01X0058670Y-040589D02*
G01X0058597Y-040661D01*
G01X0058597Y-040661D02*
G01X0058539Y-040746D01*
G01X0058539Y-040746D02*
G01X0058499Y-040836D01*
G01X0058499Y-040836D02*
G01X0058465Y-040753D01*
G01X0058465Y-040753D02*
G01X0058408Y-040668D01*
G01X0058408Y-040668D02*
G01X0058336Y-040595D01*
G01X0058336Y-040595D02*
G01X0058251Y-040537D01*
G01X0058251Y-040537D02*
G01X0058156Y-040497D01*
G01X0058156Y-040497D02*
G01X0058055Y-040476D01*
G01X0058055Y-040476D02*
G01X0057953Y-040476D01*
G01X0057953Y-040476D02*
G01X0057852Y-040495D01*
G01X0057852Y-040495D02*
G01X0057756Y-040533D01*
G01X0057756Y-040533D02*
G01X0057670Y-040589D01*
G01X0057670Y-040589D02*
G01X0057597Y-040661D01*
G01X0057597Y-040661D02*
G01X0057539Y-040746D01*
G01X0057539Y-040746D02*
G01X0057499Y-040836D01*
G01X0057499Y-040836D02*
G01X0057465Y-040753D01*
G01X0057465Y-040753D02*
G01X0057408Y-040668D01*
G01X0057408Y-040668D02*
G01X0057336Y-040595D01*
G01X0057336Y-040595D02*
G01X0057251Y-040537D01*
G01X0057251Y-040537D02*
G01X0057156Y-040497D01*
G01X0057156Y-040497D02*
G01X0057055Y-040476D01*
G01X0057055Y-040476D02*
G01X0056953Y-040476D01*
G01X0056953Y-040476D02*
G01X0056852Y-040495D01*
G01X0056852Y-040495D02*
G01X0056756Y-040533D01*
G01X0056756Y-040533D02*
G01X0056670Y-040589D01*
G01X0056670Y-040589D02*
G01X0056597Y-040661D01*
G01X0056597Y-040661D02*
G01X0056539Y-040746D01*
G01X0056539Y-040746D02*
G01X0056499Y-040836D01*
G01X0056499Y-040836D02*
G01X0056465Y-040753D01*
G01X0056465Y-040753D02*
G01X0056408Y-040668D01*
G01X0056408Y-040668D02*
G01X0056336Y-040595D01*
G01X0056336Y-040595D02*
G01X0056251Y-040537D01*
G01X0056251Y-040537D02*
G01X0056156Y-040497D01*
G01X0056156Y-040497D02*
G01X0056055Y-040476D01*
G01X0056055Y-040476D02*
G01X0055953Y-040476D01*
G01X0055953Y-040476D02*
G01X0055852Y-040495D01*
G01X0055852Y-040495D02*
G01X0055756Y-040533D01*
G01X0055756Y-040533D02*
G01X0055670Y-040589D01*
G01X0055670Y-040589D02*
G01X0055597Y-040661D01*
G01X0055597Y-040661D02*
G01X0055539Y-040746D01*
G01X0055539Y-040746D02*
G01X0055499Y-040836D01*
G01X0055499Y-040836D02*
G01X0055465Y-040753D01*
G01X0055465Y-040753D02*
G01X0055408Y-040668D01*
G01X0055408Y-040668D02*
G01X0055336Y-040595D01*
G01X0055336Y-040595D02*
G01X0055251Y-040537D01*
G01X0055251Y-040537D02*
G01X0055156Y-040497D01*
G01X0055156Y-040497D02*
G01X0055055Y-040476D01*
G01X0055055Y-040476D02*
G01X0054953Y-040476D01*
G01X0054953Y-040476D02*
G01X0054852Y-040495D01*
G01X0054852Y-040495D02*
G01X0054756Y-040533D01*
G01X0054756Y-040533D02*
G01X0054670Y-040589D01*
G01X0054670Y-040589D02*
G01X0054597Y-040661D01*
G01X0054597Y-040661D02*
G01X0054539Y-040746D01*
G01X0054539Y-040746D02*
G01X0054499Y-040836D01*
G01X0054499Y-040836D02*
G01X0054465Y-040753D01*
G01X0054465Y-040753D02*
G01X0054408Y-040668D01*
G01X0054408Y-040668D02*
G01X0054336Y-040595D01*
G01X0054336Y-040595D02*
G01X0054251Y-040537D01*
G01X0054251Y-040537D02*
G01X0054156Y-040497D01*
G01X0054156Y-040497D02*
G01X0054055Y-040476D01*
G01X0054055Y-040476D02*
G01X0053953Y-040476D01*
G01X0053953Y-040476D02*
G01X0053852Y-040495D01*
G01X0053852Y-040495D02*
G01X0053756Y-040533D01*
G01X0053756Y-040533D02*
G01X0053670Y-040589D01*
G01X0053670Y-040589D02*
G01X0053597Y-040661D01*
G01X0053597Y-040661D02*
G01X0053539Y-040746D01*
G01X0053539Y-040746D02*
G01X0053499Y-040836D01*
G01X0053499Y-040836D02*
G01X0053465Y-040753D01*
G01X0053465Y-040753D02*
G01X0053408Y-040668D01*
G01X0053408Y-040668D02*
G01X0053336Y-040595D01*
G01X0053336Y-040595D02*
G01X0053251Y-040537D01*
G01X0053251Y-040537D02*
G01X0053156Y-040497D01*
G01X0053156Y-040497D02*
G01X0053055Y-040476D01*
G01X0053055Y-040476D02*
G01X0052953Y-040476D01*
G01X0052953Y-040476D02*
G01X0052852Y-040495D01*
G01X0052852Y-040495D02*
G01X0052756Y-040533D01*
G01X0052756Y-040533D02*
G01X0052749Y-040537D01*
G01X0052749Y-040537D02*
G01X0052749Y-036320D01*
G01X0052749Y-036320D02*
G01X0052749Y-036281D01*
G01X0052749Y-036281D02*
G01X0052749Y-035680D01*
G01X0052749Y-035680D02*
G01X0052741Y-035642D01*
G01X0052741Y-035642D02*
G01X0052726Y-035606D01*
G01X0052726Y-035606D02*
G01X0052705Y-035573D01*
G01X0052705Y-035573D02*
G01X0052677Y-035546D01*
G01X0052677Y-035546D02*
G01X0052645Y-035524D01*
G01X0052645Y-035524D02*
G01X0052609Y-035509D01*
G01X0052609Y-035509D02*
G01X0052570Y-035501D01*
G01X0052570Y-035501D02*
G01X0052531Y-035501D01*
G01X0052531Y-035501D02*
G01X0051930Y-035501D01*
G01X0051930Y-035501D02*
G01X0051892Y-035509D01*
G01X0051892Y-035509D02*
G01X0051856Y-035524D01*
G01X0051856Y-035524D02*
G01X0051823Y-035545D01*
G01X0051823Y-035545D02*
G01X0051796Y-035573D01*
G01X0051796Y-035573D02*
G01X0051774Y-035605D01*
G01X0051774Y-035605D02*
G01X0051759Y-035641D01*
G01X0051759Y-035641D02*
G01X0051751Y-035680D01*
G01X0051751Y-035680D02*
G01X0051751Y-035719D01*
G01X0051751Y-035719D02*
G01X0051751Y-036320D01*
G01X0051751Y-036320D02*
G01X0051759Y-036358D01*
G01X0051759Y-036358D02*
G01X0051774Y-036394D01*
G01X0051774Y-036394D02*
G01X0051795Y-036427D01*
G01X0051795Y-036427D02*
G01X0051823Y-036454D01*
G01X0051823Y-036454D02*
G01X0051855Y-036476D01*
G01X0051855Y-036476D02*
G01X0051891Y-036491D01*
G01X0051891Y-036491D02*
G01X0051930Y-036499D01*
G01X0051930Y-036499D02*
G01X0051969Y-036499D01*
G01X0051969Y-036499D02*
G01X0052570Y-036499D01*
G01X0052570Y-036499D02*
G01X0052608Y-036491D01*
G01X0052608Y-036491D02*
G01X0052644Y-036476D01*
G01X0052644Y-036476D02*
G01X0052677Y-036455D01*
G01X0052677Y-036455D02*
G01X0052704Y-036427D01*
G01X0052704Y-036427D02*
G01X0052726Y-036395D01*
G01X0052726Y-036395D02*
G01X0052741Y-036359D01*
G01X0052741Y-036359D02*
G01X0052749Y-036320D01*
G01X0052749Y-036320D02*
G01X0052749Y-040537D01*
G01X0052749Y-040537D02*
G01X0052670Y-040589D01*
G01X0052670Y-040589D02*
G01X0052597Y-040661D01*
G01X0052597Y-040661D02*
G01X0052539Y-040746D01*
G01X0052539Y-040746D02*
G01X0052524Y-040780D01*
G01X0052524Y-040780D02*
G01X0052524Y-040655D01*
G01X0052524Y-040655D02*
G01X0052516Y-040617D01*
G01X0052516Y-040617D02*
G01X0052501Y-040581D01*
G01X0052501Y-040581D02*
G01X0052480Y-040548D01*
G01X0052480Y-040548D02*
G01X0052452Y-040521D01*
G01X0052452Y-040521D02*
G01X0052420Y-040499D01*
G01X0052420Y-040499D02*
G01X0052384Y-040484D01*
G01X0052384Y-040484D02*
G01X0052345Y-040476D01*
G01X0052345Y-040476D02*
G01X0052306Y-040476D01*
G01X0052306Y-040476D02*
G01X0051675Y-040476D01*
G01X0051675Y-040476D02*
G01X0051675Y-034524D01*
G01X0051675Y-034524D02*
G01X0051694Y-034524D01*
G01X0051694Y-034524D02*
G01X0052345Y-034524D01*
G01X0052345Y-034524D02*
G01X0052383Y-034516D01*
G01X0052383Y-034516D02*
G01X0052419Y-034501D01*
G01X0052419Y-034501D02*
G01X0052452Y-034480D01*
G01X0052452Y-034480D02*
G01X0052479Y-034452D01*
G01X0052479Y-034452D02*
G01X0052501Y-034420D01*
G01X0052501Y-034420D02*
G01X0052516Y-034384D01*
G01X0052516Y-034384D02*
G01X0052524Y-034345D01*
G01X0052524Y-034345D02*
G01X0052524Y-034306D01*
G01X0052524Y-034306D02*
G01X0052524Y-034220D01*
G01X0052524Y-034220D02*
G01X0052532Y-034240D01*
G01X0052532Y-034240D02*
G01X0052587Y-034327D01*
G01X0052587Y-034327D02*
G01X0052658Y-034401D01*
G01X0052658Y-034401D02*
G01X0052743Y-034459D01*
G01X0052743Y-034459D02*
G01X0052837Y-034501D01*
G01X0052837Y-034501D02*
G01X0052937Y-034523D01*
G01X0052937Y-034523D02*
G01X0053040Y-034525D01*
G01X0053040Y-034525D02*
G01X0053141Y-034507D01*
G01X0053141Y-034507D02*
G01X0053237Y-034470D01*
G01X0053237Y-034470D02*
G01X0053324Y-034415D01*
G01X0053324Y-034415D02*
G01X0053398Y-034344D01*
G01X0053398Y-034344D02*
G01X0053458Y-034260D01*
G01X0053458Y-034260D02*
G01X0053499Y-034167D01*
G01X0053499Y-034167D02*
G01X0053500Y-034160D01*
G01X0053500Y-034160D02*
G01X0053532Y-034240D01*
G01X0053532Y-034240D02*
G01X0053587Y-034327D01*
G01X0053587Y-034327D02*
G01X0053658Y-034401D01*
G01X0053658Y-034401D02*
G01X0053743Y-034459D01*
G01X0053743Y-034459D02*
G01X0053837Y-034501D01*
G01X0053837Y-034501D02*
G01X0053937Y-034523D01*
G01X0053937Y-034523D02*
G01X0054040Y-034525D01*
G01X0054040Y-034525D02*
G01X0054141Y-034507D01*
G01X0054141Y-034507D02*
G01X0054237Y-034470D01*
G01X0054237Y-034470D02*
G01X0054324Y-034415D01*
G01X0054324Y-034415D02*
G01X0054398Y-034344D01*
G01X0054398Y-034344D02*
G01X0054458Y-034260D01*
G01X0054458Y-034260D02*
G01X0054499Y-034167D01*
G01X0054499Y-034167D02*
G01X0054500Y-034160D01*
G01X0054500Y-034160D02*
G01X0054532Y-034240D01*
G01X0054532Y-034240D02*
G01X0054587Y-034327D01*
G01X0054587Y-034327D02*
G01X0054658Y-034401D01*
G01X0054658Y-034401D02*
G01X0054743Y-034459D01*
G01X0054743Y-034459D02*
G01X0054837Y-034501D01*
G01X0054837Y-034501D02*
G01X0054937Y-034523D01*
G01X0054937Y-034523D02*
G01X0055040Y-034525D01*
G01X0055040Y-034525D02*
G01X0055141Y-034507D01*
G01X0055141Y-034507D02*
G01X0055237Y-034470D01*
G01X0055237Y-034470D02*
G01X0055324Y-034415D01*
G01X0055324Y-034415D02*
G01X0055398Y-034344D01*
G01X0055398Y-034344D02*
G01X0055458Y-034260D01*
G01X0055458Y-034260D02*
G01X0055499Y-034167D01*
G01X0055499Y-034167D02*
G01X0055500Y-034160D01*
G01X0055500Y-034160D02*
G01X0055532Y-034240D01*
G01X0055532Y-034240D02*
G01X0055587Y-034327D01*
G01X0055587Y-034327D02*
G01X0055658Y-034401D01*
G01X0055658Y-034401D02*
G01X0055743Y-034459D01*
G01X0055743Y-034459D02*
G01X0055837Y-034501D01*
G01X0055837Y-034501D02*
G01X0055937Y-034523D01*
G01X0055937Y-034523D02*
G01X0056040Y-034525D01*
G01X0056040Y-034525D02*
G01X0056141Y-034507D01*
G01X0056141Y-034507D02*
G01X0056237Y-034470D01*
G01X0056237Y-034470D02*
G01X0056324Y-034415D01*
G01X0056324Y-034415D02*
G01X0056398Y-034344D01*
G01X0056398Y-034344D02*
G01X0056458Y-034260D01*
G01X0056458Y-034260D02*
G01X0056499Y-034167D01*
G01X0056499Y-034167D02*
G01X0056500Y-034160D01*
G01X0056500Y-034160D02*
G01X0056532Y-034240D01*
G01X0056532Y-034240D02*
G01X0056587Y-034327D01*
G01X0056587Y-034327D02*
G01X0056658Y-034401D01*
G01X0056658Y-034401D02*
G01X0056743Y-034459D01*
G01X0056743Y-034459D02*
G01X0056837Y-034501D01*
G01X0056837Y-034501D02*
G01X0056937Y-034523D01*
G01X0056937Y-034523D02*
G01X0057040Y-034525D01*
G01X0057040Y-034525D02*
G01X0057141Y-034507D01*
G01X0057141Y-034507D02*
G01X0057237Y-034470D01*
G01X0057237Y-034470D02*
G01X0057324Y-034415D01*
G01X0057324Y-034415D02*
G01X0057398Y-034344D01*
G01X0057398Y-034344D02*
G01X0057458Y-034260D01*
G01X0057458Y-034260D02*
G01X0057499Y-034167D01*
G01X0057499Y-034167D02*
G01X0057500Y-034160D01*
G01X0057500Y-034160D02*
G01X0057532Y-034240D01*
G01X0057532Y-034240D02*
G01X0057587Y-034327D01*
G01X0057587Y-034327D02*
G01X0057658Y-034401D01*
G01X0057658Y-034401D02*
G01X0057743Y-034459D01*
G01X0057743Y-034459D02*
G01X0057837Y-034501D01*
G01X0057837Y-034501D02*
G01X0057937Y-034523D01*
G01X0057937Y-034523D02*
G01X0058040Y-034525D01*
G01X0058040Y-034525D02*
G01X0058141Y-034507D01*
G01X0058141Y-034507D02*
G01X0058237Y-034470D01*
G01X0058237Y-034470D02*
G01X0058324Y-034415D01*
G01X0058324Y-034415D02*
G01X0058398Y-034344D01*
G01X0058398Y-034344D02*
G01X0058458Y-034260D01*
G01X0058458Y-034260D02*
G01X0058499Y-034167D01*
G01X0058499Y-034167D02*
G01X0058500Y-034160D01*
G01X0058500Y-034160D02*
G01X0058532Y-034240D01*
G01X0058532Y-034240D02*
G01X0058587Y-034327D01*
G01X0058587Y-034327D02*
G01X0058658Y-034401D01*
G01X0058658Y-034401D02*
G01X0058743Y-034459D01*
G01X0058743Y-034459D02*
G01X0058837Y-034501D01*
G01X0058837Y-034501D02*
G01X0058937Y-034523D01*
G01X0058937Y-034523D02*
G01X0059040Y-034525D01*
G01X0059040Y-034525D02*
G01X0059141Y-034507D01*
G01X0059141Y-034507D02*
G01X0059237Y-034470D01*
G01X0059237Y-034470D02*
G01X0059324Y-034415D01*
G01X0059324Y-034415D02*
G01X0059398Y-034344D01*
G01X0059398Y-034344D02*
G01X0059458Y-034260D01*
G01X0059458Y-034260D02*
G01X0059499Y-034167D01*
G01X0059499Y-034167D02*
G01X0059500Y-034160D01*
G01X0059500Y-034160D02*
G01X0059532Y-034240D01*
G01X0059532Y-034240D02*
G01X0059587Y-034327D01*
G01X0059587Y-034327D02*
G01X0059658Y-034401D01*
G01X0059658Y-034401D02*
G01X0059743Y-034459D01*
G01X0059743Y-034459D02*
G01X0059837Y-034501D01*
G01X0059837Y-034501D02*
G01X0059937Y-034523D01*
G01X0059937Y-034523D02*
G01X0060040Y-034525D01*
G01X0060040Y-034525D02*
G01X0060141Y-034507D01*
G01X0060141Y-034507D02*
G01X0060237Y-034470D01*
G01X0060237Y-034470D02*
G01X0060324Y-034415D01*
G01X0060324Y-034415D02*
G01X0060398Y-034344D01*
G01X0060398Y-034344D02*
G01X0060458Y-034260D01*
G01X0060458Y-034260D02*
G01X0060499Y-034167D01*
G01X0060499Y-034167D02*
G01X0060500Y-034160D01*
G01X0060500Y-034160D02*
G01X0060532Y-034240D01*
G01X0060532Y-034240D02*
G01X0060587Y-034327D01*
G01X0060587Y-034327D02*
G01X0060658Y-034401D01*
G01X0060658Y-034401D02*
G01X0060743Y-034459D01*
G01X0060743Y-034459D02*
G01X0060837Y-034501D01*
G01X0060837Y-034501D02*
G01X0060937Y-034523D01*
G01X0060937Y-034523D02*
G01X0061040Y-034525D01*
G01X0061040Y-034525D02*
G01X0061141Y-034507D01*
G01X0061141Y-034507D02*
G01X0061237Y-034470D01*
G01X0061237Y-034470D02*
G01X0061324Y-034415D01*
G01X0061324Y-034415D02*
G01X0061398Y-034344D01*
G01X0061398Y-034344D02*
G01X0061458Y-034260D01*
G01X0061458Y-034260D02*
G01X0061499Y-034167D01*
G01X0061499Y-034167D02*
G01X0061500Y-034160D01*
G01X0061500Y-034160D02*
G01X0061532Y-034240D01*
G01X0061532Y-034240D02*
G01X0061587Y-034327D01*
G01X0061587Y-034327D02*
G01X0061658Y-034401D01*
G01X0061658Y-034401D02*
G01X0061743Y-034459D01*
G01X0061743Y-034459D02*
G01X0061837Y-034501D01*
G01X0061837Y-034501D02*
G01X0061937Y-034523D01*
G01X0061937Y-034523D02*
G01X0062040Y-034525D01*
G01X0062040Y-034525D02*
G01X0062141Y-034507D01*
G01X0062141Y-034507D02*
G01X0062237Y-034470D01*
G01X0062237Y-034470D02*
G01X0062324Y-034415D01*
G01X0062324Y-034415D02*
G01X0062398Y-034344D01*
G01X0062398Y-034344D02*
G01X0062458Y-034260D01*
G01X0062458Y-034260D02*
G01X0062499Y-034167D01*
G01X0062499Y-034167D02*
G01X0062500Y-034160D01*
G01X0062500Y-034160D02*
G01X0062532Y-034240D01*
G01X0062532Y-034240D02*
G01X0062587Y-034327D01*
G01X0062587Y-034327D02*
G01X0062658Y-034401D01*
G01X0062658Y-034401D02*
G01X0062743Y-034459D01*
G01X0062743Y-034459D02*
G01X0062837Y-034501D01*
G01X0062837Y-034501D02*
G01X0062937Y-034523D01*
G01X0062937Y-034523D02*
G01X0063040Y-034525D01*
G01X0063040Y-034525D02*
G01X0063141Y-034507D01*
G01X0063141Y-034507D02*
G01X0063237Y-034470D01*
G01X0063237Y-034470D02*
G01X0063324Y-034415D01*
G01X0063324Y-034415D02*
G01X0063325Y-034414D01*
G01X0063325Y-034414D02*
G01X0063325Y-040587D01*
M02*
