G04 (created by PCBNEW-RS274X (2012-jan-04)-stable) date Sun 02 Sep 2012 01:17:06 AM CEST*
G01*
G70*
G90*
%MOIN*%
G04 Gerber Fmt 3.4, Leading zero omitted, Abs format*
%FSLAX34Y34*%
G04 APERTURE LIST*
%ADD10C,0.006000*%
%ADD11C,0.010000*%
%ADD12C,0.000100*%
%ADD13R,0.060000X0.060000*%
%ADD14R,0.065000X0.065000*%
%ADD15C,0.065000*%
%ADD16R,0.025600X0.063000*%
%ADD17R,0.025600X0.039400*%
G04 APERTURE END LIST*
G54D10*
G54D11*
X53430Y-36057D02*
X53220Y-36057D01*
X53182Y-36038D01*
X53163Y-36000D01*
X53163Y-35923D01*
X53182Y-35885D01*
X53411Y-36057D02*
X53430Y-36019D01*
X53430Y-35923D01*
X53411Y-35885D01*
X53373Y-35866D01*
X53335Y-35866D01*
X53297Y-35885D01*
X53278Y-35923D01*
X53278Y-36019D01*
X53258Y-36057D01*
X53163Y-36247D02*
X53430Y-36247D01*
X53201Y-36247D02*
X53182Y-36266D01*
X53163Y-36304D01*
X53163Y-36362D01*
X53182Y-36400D01*
X53220Y-36419D01*
X53430Y-36419D01*
X53430Y-36781D02*
X53030Y-36781D01*
X53411Y-36781D02*
X53430Y-36743D01*
X53430Y-36666D01*
X53411Y-36628D01*
X53392Y-36609D01*
X53354Y-36590D01*
X53239Y-36590D01*
X53201Y-36609D01*
X53182Y-36628D01*
X53163Y-36666D01*
X53163Y-36743D01*
X53182Y-36781D01*
X53163Y-37219D02*
X53163Y-37371D01*
X53030Y-37276D02*
X53373Y-37276D01*
X53411Y-37295D01*
X53430Y-37333D01*
X53430Y-37371D01*
X53430Y-37505D02*
X53030Y-37505D01*
X53430Y-37677D02*
X53220Y-37677D01*
X53182Y-37658D01*
X53163Y-37620D01*
X53163Y-37562D01*
X53182Y-37524D01*
X53201Y-37505D01*
X53411Y-38020D02*
X53430Y-37982D01*
X53430Y-37905D01*
X53411Y-37867D01*
X53373Y-37848D01*
X53220Y-37848D01*
X53182Y-37867D01*
X53163Y-37905D01*
X53163Y-37982D01*
X53182Y-38020D01*
X53220Y-38039D01*
X53258Y-38039D01*
X53297Y-37848D01*
X53430Y-38572D02*
X53411Y-38534D01*
X53392Y-38515D01*
X53354Y-38496D01*
X53239Y-38496D01*
X53201Y-38515D01*
X53182Y-38534D01*
X53163Y-38572D01*
X53163Y-38630D01*
X53182Y-38668D01*
X53201Y-38687D01*
X53239Y-38706D01*
X53354Y-38706D01*
X53392Y-38687D01*
X53411Y-38668D01*
X53430Y-38630D01*
X53430Y-38572D01*
X53163Y-38877D02*
X53430Y-38877D01*
X53201Y-38877D02*
X53182Y-38896D01*
X53163Y-38934D01*
X53163Y-38992D01*
X53182Y-39030D01*
X53220Y-39049D01*
X53430Y-39049D01*
X53411Y-39392D02*
X53430Y-39354D01*
X53430Y-39277D01*
X53411Y-39239D01*
X53373Y-39220D01*
X53220Y-39220D01*
X53182Y-39239D01*
X53163Y-39277D01*
X53163Y-39354D01*
X53182Y-39392D01*
X53220Y-39411D01*
X53258Y-39411D01*
X53297Y-39220D01*
X53823Y-36857D02*
X54090Y-36933D01*
X53899Y-37010D01*
X54090Y-37086D01*
X53823Y-37162D01*
X54090Y-37314D02*
X53690Y-37314D01*
X54090Y-37486D02*
X53880Y-37486D01*
X53842Y-37467D01*
X53823Y-37429D01*
X53823Y-37371D01*
X53842Y-37333D01*
X53861Y-37314D01*
X54090Y-37676D02*
X53823Y-37676D01*
X53690Y-37676D02*
X53709Y-37657D01*
X53728Y-37676D01*
X53709Y-37695D01*
X53690Y-37676D01*
X53728Y-37676D01*
X54071Y-38038D02*
X54090Y-38000D01*
X54090Y-37923D01*
X54071Y-37885D01*
X54052Y-37866D01*
X54014Y-37847D01*
X53899Y-37847D01*
X53861Y-37866D01*
X53842Y-37885D01*
X53823Y-37923D01*
X53823Y-38000D01*
X53842Y-38038D01*
X54090Y-38209D02*
X53690Y-38209D01*
X54090Y-38381D02*
X53880Y-38381D01*
X53842Y-38362D01*
X53823Y-38324D01*
X53823Y-38266D01*
X53842Y-38228D01*
X53861Y-38209D01*
X54750Y-36552D02*
X54483Y-36552D01*
X54559Y-36552D02*
X54521Y-36571D01*
X54502Y-36590D01*
X54483Y-36628D01*
X54483Y-36667D01*
X54731Y-36953D02*
X54750Y-36915D01*
X54750Y-36838D01*
X54731Y-36800D01*
X54693Y-36781D01*
X54540Y-36781D01*
X54502Y-36800D01*
X54483Y-36838D01*
X54483Y-36915D01*
X54502Y-36953D01*
X54540Y-36972D01*
X54578Y-36972D01*
X54617Y-36781D01*
X54750Y-37143D02*
X54483Y-37143D01*
X54521Y-37143D02*
X54502Y-37162D01*
X54483Y-37200D01*
X54483Y-37258D01*
X54502Y-37296D01*
X54540Y-37315D01*
X54750Y-37315D01*
X54540Y-37315D02*
X54502Y-37334D01*
X54483Y-37372D01*
X54483Y-37429D01*
X54502Y-37467D01*
X54540Y-37486D01*
X54750Y-37486D01*
X54750Y-37848D02*
X54540Y-37848D01*
X54502Y-37829D01*
X54483Y-37791D01*
X54483Y-37714D01*
X54502Y-37676D01*
X54731Y-37848D02*
X54750Y-37810D01*
X54750Y-37714D01*
X54731Y-37676D01*
X54693Y-37657D01*
X54655Y-37657D01*
X54617Y-37676D01*
X54598Y-37714D01*
X54598Y-37810D01*
X54578Y-37848D01*
X54750Y-38038D02*
X54483Y-38038D01*
X54350Y-38038D02*
X54369Y-38019D01*
X54388Y-38038D01*
X54369Y-38057D01*
X54350Y-38038D01*
X54388Y-38038D01*
X54483Y-38228D02*
X54750Y-38228D01*
X54521Y-38228D02*
X54502Y-38247D01*
X54483Y-38285D01*
X54483Y-38343D01*
X54502Y-38381D01*
X54540Y-38400D01*
X54750Y-38400D01*
X54731Y-38571D02*
X54750Y-38609D01*
X54750Y-38685D01*
X54731Y-38724D01*
X54693Y-38743D01*
X54674Y-38743D01*
X54636Y-38724D01*
X54617Y-38685D01*
X54617Y-38628D01*
X54598Y-38590D01*
X54559Y-38571D01*
X54540Y-38571D01*
X54502Y-38590D01*
X54483Y-38628D01*
X54483Y-38685D01*
X54502Y-38724D01*
X61636Y-34841D02*
X61636Y-34917D01*
X61483Y-34841D02*
X61483Y-34917D01*
X61312Y-35031D02*
X61178Y-35031D01*
X61121Y-35241D02*
X61312Y-35241D01*
X61312Y-34841D01*
X61121Y-34841D01*
X60893Y-35241D02*
X60931Y-35222D01*
X60950Y-35184D01*
X60950Y-34841D01*
X60740Y-35241D02*
X60740Y-34974D01*
X60740Y-34841D02*
X60759Y-34860D01*
X60740Y-34879D01*
X60721Y-34860D01*
X60740Y-34841D01*
X60740Y-34879D01*
X60550Y-35241D02*
X60550Y-34974D01*
X60550Y-35012D02*
X60531Y-34993D01*
X60493Y-34974D01*
X60435Y-34974D01*
X60397Y-34993D01*
X60378Y-35031D01*
X60378Y-35241D01*
X60378Y-35031D02*
X60359Y-34993D01*
X60321Y-34974D01*
X60264Y-34974D01*
X60226Y-34993D01*
X60207Y-35031D01*
X60207Y-35241D01*
X60017Y-35241D02*
X60017Y-34974D01*
X60017Y-34841D02*
X60036Y-34860D01*
X60017Y-34879D01*
X59998Y-34860D01*
X60017Y-34841D01*
X60017Y-34879D01*
X59827Y-34974D02*
X59827Y-35241D01*
X59827Y-35012D02*
X59808Y-34993D01*
X59770Y-34974D01*
X59712Y-34974D01*
X59674Y-34993D01*
X59655Y-35031D01*
X59655Y-35241D01*
X59293Y-35241D02*
X59293Y-35031D01*
X59312Y-34993D01*
X59350Y-34974D01*
X59427Y-34974D01*
X59465Y-34993D01*
X59293Y-35222D02*
X59331Y-35241D01*
X59427Y-35241D01*
X59465Y-35222D01*
X59484Y-35184D01*
X59484Y-35146D01*
X59465Y-35108D01*
X59427Y-35089D01*
X59331Y-35089D01*
X59293Y-35069D01*
X59160Y-34974D02*
X59008Y-34974D01*
X59103Y-34841D02*
X59103Y-35184D01*
X59084Y-35222D01*
X59046Y-35241D01*
X59008Y-35241D01*
X58721Y-35222D02*
X58759Y-35241D01*
X58836Y-35241D01*
X58874Y-35222D01*
X58893Y-35184D01*
X58893Y-35031D01*
X58874Y-34993D01*
X58836Y-34974D01*
X58759Y-34974D01*
X58721Y-34993D01*
X58702Y-35031D01*
X58702Y-35069D01*
X58893Y-35108D01*
X58054Y-35241D02*
X58054Y-35031D01*
X58073Y-34993D01*
X58111Y-34974D01*
X58188Y-34974D01*
X58226Y-34993D01*
X58054Y-35222D02*
X58092Y-35241D01*
X58188Y-35241D01*
X58226Y-35222D01*
X58245Y-35184D01*
X58245Y-35146D01*
X58226Y-35108D01*
X58188Y-35089D01*
X58092Y-35089D01*
X58054Y-35069D01*
X57807Y-35241D02*
X57845Y-35222D01*
X57864Y-35184D01*
X57864Y-34841D01*
X57597Y-35241D02*
X57635Y-35222D01*
X57654Y-35184D01*
X57654Y-34841D01*
X57082Y-35241D02*
X57120Y-35222D01*
X57139Y-35203D01*
X57158Y-35165D01*
X57158Y-35050D01*
X57139Y-35012D01*
X57120Y-34993D01*
X57082Y-34974D01*
X57024Y-34974D01*
X56986Y-34993D01*
X56967Y-35012D01*
X56948Y-35050D01*
X56948Y-35165D01*
X56967Y-35203D01*
X56986Y-35222D01*
X57024Y-35241D01*
X57082Y-35241D01*
X56834Y-34974D02*
X56682Y-34974D01*
X56777Y-34841D02*
X56777Y-35184D01*
X56758Y-35222D01*
X56720Y-35241D01*
X56682Y-35241D01*
X56548Y-35241D02*
X56548Y-34841D01*
X56376Y-35241D02*
X56376Y-35031D01*
X56395Y-34993D01*
X56433Y-34974D01*
X56491Y-34974D01*
X56529Y-34993D01*
X56548Y-35012D01*
X56033Y-35222D02*
X56071Y-35241D01*
X56148Y-35241D01*
X56186Y-35222D01*
X56205Y-35184D01*
X56205Y-35031D01*
X56186Y-34993D01*
X56148Y-34974D01*
X56071Y-34974D01*
X56033Y-34993D01*
X56014Y-35031D01*
X56014Y-35069D01*
X56205Y-35108D01*
X55843Y-35241D02*
X55843Y-34974D01*
X55843Y-35050D02*
X55824Y-35012D01*
X55805Y-34993D01*
X55767Y-34974D01*
X55728Y-34974D01*
X55347Y-34974D02*
X55195Y-34974D01*
X55290Y-35241D02*
X55290Y-34898D01*
X55271Y-34860D01*
X55233Y-34841D01*
X55195Y-34841D01*
X54889Y-35241D02*
X54889Y-35031D01*
X54908Y-34993D01*
X54946Y-34974D01*
X55023Y-34974D01*
X55061Y-34993D01*
X54889Y-35222D02*
X54927Y-35241D01*
X55023Y-35241D01*
X55061Y-35222D01*
X55080Y-35184D01*
X55080Y-35146D01*
X55061Y-35108D01*
X55023Y-35089D01*
X54927Y-35089D01*
X54889Y-35069D01*
X54527Y-35222D02*
X54565Y-35241D01*
X54642Y-35241D01*
X54680Y-35222D01*
X54699Y-35203D01*
X54718Y-35165D01*
X54718Y-35050D01*
X54699Y-35012D01*
X54680Y-34993D01*
X54642Y-34974D01*
X54565Y-34974D01*
X54527Y-34993D01*
X54413Y-34974D02*
X54261Y-34974D01*
X54356Y-34841D02*
X54356Y-35184D01*
X54337Y-35222D01*
X54299Y-35241D01*
X54261Y-35241D01*
X54070Y-35241D02*
X54108Y-35222D01*
X54127Y-35203D01*
X54146Y-35165D01*
X54146Y-35050D01*
X54127Y-35012D01*
X54108Y-34993D01*
X54070Y-34974D01*
X54012Y-34974D01*
X53974Y-34993D01*
X53955Y-35012D01*
X53936Y-35050D01*
X53936Y-35165D01*
X53955Y-35203D01*
X53974Y-35222D01*
X54012Y-35241D01*
X54070Y-35241D01*
X53765Y-35241D02*
X53765Y-34974D01*
X53765Y-35050D02*
X53746Y-35012D01*
X53727Y-34993D01*
X53689Y-34974D01*
X53650Y-34974D01*
X53536Y-35222D02*
X53498Y-35241D01*
X53422Y-35241D01*
X53383Y-35222D01*
X53364Y-35184D01*
X53364Y-35165D01*
X53383Y-35127D01*
X53422Y-35108D01*
X53479Y-35108D01*
X53517Y-35089D01*
X53536Y-35050D01*
X53536Y-35031D01*
X53517Y-34993D01*
X53479Y-34974D01*
X53422Y-34974D01*
X53383Y-34993D01*
X62359Y-40359D02*
X62359Y-40092D01*
X62359Y-40130D02*
X62340Y-40111D01*
X62302Y-40092D01*
X62244Y-40092D01*
X62206Y-40111D01*
X62187Y-40149D01*
X62187Y-40359D01*
X62187Y-40149D02*
X62168Y-40111D01*
X62130Y-40092D01*
X62073Y-40092D01*
X62035Y-40111D01*
X62016Y-40149D01*
X62016Y-40359D01*
X61654Y-40092D02*
X61654Y-40359D01*
X61826Y-40092D02*
X61826Y-40302D01*
X61807Y-40340D01*
X61769Y-40359D01*
X61711Y-40359D01*
X61673Y-40340D01*
X61654Y-40321D01*
X61483Y-40340D02*
X61445Y-40359D01*
X61369Y-40359D01*
X61330Y-40340D01*
X61311Y-40302D01*
X61311Y-40283D01*
X61330Y-40245D01*
X61369Y-40226D01*
X61426Y-40226D01*
X61464Y-40207D01*
X61483Y-40168D01*
X61483Y-40149D01*
X61464Y-40111D01*
X61426Y-40092D01*
X61369Y-40092D01*
X61330Y-40111D01*
X61197Y-40092D02*
X61045Y-40092D01*
X61140Y-39959D02*
X61140Y-40302D01*
X61121Y-40340D01*
X61083Y-40359D01*
X61045Y-40359D01*
X60606Y-40359D02*
X60606Y-39959D01*
X60606Y-40111D02*
X60568Y-40092D01*
X60491Y-40092D01*
X60453Y-40111D01*
X60434Y-40130D01*
X60415Y-40168D01*
X60415Y-40283D01*
X60434Y-40321D01*
X60453Y-40340D01*
X60491Y-40359D01*
X60568Y-40359D01*
X60606Y-40340D01*
X60091Y-40340D02*
X60129Y-40359D01*
X60206Y-40359D01*
X60244Y-40340D01*
X60263Y-40302D01*
X60263Y-40149D01*
X60244Y-40111D01*
X60206Y-40092D01*
X60129Y-40092D01*
X60091Y-40111D01*
X60072Y-40149D01*
X60072Y-40187D01*
X60263Y-40226D01*
X59653Y-40092D02*
X59501Y-40092D01*
X59596Y-39959D02*
X59596Y-40302D01*
X59577Y-40340D01*
X59539Y-40359D01*
X59501Y-40359D01*
X59367Y-40359D02*
X59367Y-39959D01*
X59195Y-40359D02*
X59195Y-40149D01*
X59214Y-40111D01*
X59252Y-40092D01*
X59310Y-40092D01*
X59348Y-40111D01*
X59367Y-40130D01*
X58852Y-40340D02*
X58890Y-40359D01*
X58967Y-40359D01*
X59005Y-40340D01*
X59024Y-40302D01*
X59024Y-40149D01*
X59005Y-40111D01*
X58967Y-40092D01*
X58890Y-40092D01*
X58852Y-40111D01*
X58833Y-40149D01*
X58833Y-40187D01*
X59024Y-40226D01*
X58414Y-40092D02*
X58262Y-40092D01*
X58357Y-39959D02*
X58357Y-40302D01*
X58338Y-40340D01*
X58300Y-40359D01*
X58262Y-40359D01*
X58128Y-40359D02*
X58128Y-40092D01*
X58128Y-40168D02*
X58109Y-40130D01*
X58090Y-40111D01*
X58052Y-40092D01*
X58013Y-40092D01*
X57708Y-40092D02*
X57708Y-40359D01*
X57880Y-40092D02*
X57880Y-40302D01*
X57861Y-40340D01*
X57823Y-40359D01*
X57765Y-40359D01*
X57727Y-40340D01*
X57708Y-40321D01*
X57575Y-40092D02*
X57423Y-40092D01*
X57518Y-39959D02*
X57518Y-40302D01*
X57499Y-40340D01*
X57461Y-40359D01*
X57423Y-40359D01*
X57289Y-40359D02*
X57289Y-39959D01*
X57117Y-40359D02*
X57117Y-40149D01*
X57136Y-40111D01*
X57174Y-40092D01*
X57232Y-40092D01*
X57270Y-40111D01*
X57289Y-40130D01*
X56946Y-39959D02*
X56946Y-40035D01*
X56793Y-39959D02*
X56793Y-40035D01*
X56317Y-40207D02*
X56012Y-40207D01*
X55536Y-40340D02*
X55479Y-40359D01*
X55383Y-40359D01*
X55345Y-40340D01*
X55326Y-40321D01*
X55307Y-40283D01*
X55307Y-40245D01*
X55326Y-40207D01*
X55345Y-40187D01*
X55383Y-40168D01*
X55460Y-40149D01*
X55498Y-40130D01*
X55517Y-40111D01*
X55536Y-40073D01*
X55536Y-40035D01*
X55517Y-39997D01*
X55498Y-39978D01*
X55460Y-39959D01*
X55364Y-39959D01*
X55307Y-39978D01*
X55136Y-40321D02*
X55117Y-40340D01*
X55136Y-40359D01*
X55155Y-40340D01*
X55136Y-40321D01*
X55136Y-40359D01*
X54641Y-40359D02*
X54641Y-39959D01*
X54641Y-40149D02*
X54412Y-40149D01*
X54412Y-40359D02*
X54412Y-39959D01*
X54165Y-40359D02*
X54203Y-40340D01*
X54222Y-40321D01*
X54241Y-40283D01*
X54241Y-40168D01*
X54222Y-40130D01*
X54203Y-40111D01*
X54165Y-40092D01*
X54107Y-40092D01*
X54069Y-40111D01*
X54050Y-40130D01*
X54031Y-40168D01*
X54031Y-40283D01*
X54050Y-40321D01*
X54069Y-40340D01*
X54107Y-40359D01*
X54165Y-40359D01*
X53803Y-40359D02*
X53841Y-40340D01*
X53860Y-40302D01*
X53860Y-39959D01*
X53650Y-40359D02*
X53650Y-40092D01*
X53650Y-40130D02*
X53631Y-40111D01*
X53593Y-40092D01*
X53535Y-40092D01*
X53497Y-40111D01*
X53478Y-40149D01*
X53478Y-40359D01*
X53478Y-40149D02*
X53459Y-40111D01*
X53421Y-40092D01*
X53364Y-40092D01*
X53326Y-40111D01*
X53307Y-40149D01*
X53307Y-40359D01*
X52964Y-40340D02*
X53002Y-40359D01*
X53079Y-40359D01*
X53117Y-40340D01*
X53136Y-40302D01*
X53136Y-40149D01*
X53117Y-40111D01*
X53079Y-40092D01*
X53002Y-40092D01*
X52964Y-40111D01*
X52945Y-40149D01*
X52945Y-40187D01*
X53136Y-40226D01*
X52793Y-40340D02*
X52755Y-40359D01*
X52679Y-40359D01*
X52640Y-40340D01*
X52621Y-40302D01*
X52621Y-40283D01*
X52640Y-40245D01*
X52679Y-40226D01*
X52736Y-40226D01*
X52774Y-40207D01*
X52793Y-40168D01*
X52793Y-40149D01*
X52774Y-40111D01*
X52736Y-40092D01*
X52679Y-40092D01*
X52640Y-40111D01*
G54D12*
G36*
X60513Y-39311D02*
X60522Y-39306D01*
X60543Y-39293D01*
X60572Y-39274D01*
X60607Y-39251D01*
X60641Y-39227D01*
X60670Y-39208D01*
X60690Y-39195D01*
X60698Y-39191D01*
X60703Y-39192D01*
X60719Y-39200D01*
X60743Y-39213D01*
X60757Y-39220D01*
X60779Y-39229D01*
X60790Y-39231D01*
X60792Y-39228D01*
X60800Y-39212D01*
X60812Y-39183D01*
X60829Y-39145D01*
X60848Y-39100D01*
X60868Y-39052D01*
X60889Y-39004D01*
X60908Y-38957D01*
X60925Y-38915D01*
X60939Y-38881D01*
X60948Y-38857D01*
X60951Y-38847D01*
X60950Y-38845D01*
X60939Y-38834D01*
X60920Y-38820D01*
X60879Y-38786D01*
X60838Y-38735D01*
X60813Y-38677D01*
X60804Y-38612D01*
X60811Y-38553D01*
X60835Y-38496D01*
X60875Y-38444D01*
X60924Y-38406D01*
X60980Y-38381D01*
X61044Y-38373D01*
X61105Y-38380D01*
X61163Y-38403D01*
X61215Y-38443D01*
X61237Y-38468D01*
X61267Y-38520D01*
X61284Y-38576D01*
X61286Y-38590D01*
X61283Y-38652D01*
X61265Y-38711D01*
X61233Y-38763D01*
X61188Y-38807D01*
X61182Y-38811D01*
X61161Y-38826D01*
X61147Y-38837D01*
X61136Y-38846D01*
X61214Y-39035D01*
X61227Y-39065D01*
X61248Y-39116D01*
X61267Y-39161D01*
X61283Y-39196D01*
X61293Y-39220D01*
X61298Y-39229D01*
X61298Y-39230D01*
X61305Y-39231D01*
X61319Y-39226D01*
X61346Y-39213D01*
X61363Y-39204D01*
X61383Y-39194D01*
X61392Y-39191D01*
X61400Y-39195D01*
X61419Y-39207D01*
X61447Y-39226D01*
X61481Y-39249D01*
X61513Y-39271D01*
X61542Y-39290D01*
X61564Y-39304D01*
X61574Y-39310D01*
X61576Y-39310D01*
X61585Y-39305D01*
X61602Y-39290D01*
X61628Y-39266D01*
X61664Y-39230D01*
X61670Y-39225D01*
X61700Y-39194D01*
X61724Y-39169D01*
X61740Y-39151D01*
X61746Y-39142D01*
X61746Y-39142D01*
X61741Y-39132D01*
X61727Y-39111D01*
X61708Y-39081D01*
X61684Y-39046D01*
X61621Y-38955D01*
X61656Y-38869D01*
X61666Y-38843D01*
X61680Y-38811D01*
X61690Y-38789D01*
X61695Y-38779D01*
X61704Y-38775D01*
X61727Y-38770D01*
X61761Y-38763D01*
X61802Y-38755D01*
X61841Y-38748D01*
X61875Y-38741D01*
X61901Y-38736D01*
X61912Y-38734D01*
X61915Y-38733D01*
X61917Y-38727D01*
X61918Y-38715D01*
X61919Y-38694D01*
X61920Y-38661D01*
X61920Y-38612D01*
X61920Y-38607D01*
X61919Y-38561D01*
X61919Y-38524D01*
X61917Y-38501D01*
X61916Y-38491D01*
X61916Y-38491D01*
X61905Y-38489D01*
X61880Y-38483D01*
X61845Y-38477D01*
X61804Y-38469D01*
X61801Y-38468D01*
X61760Y-38460D01*
X61725Y-38453D01*
X61701Y-38447D01*
X61690Y-38444D01*
X61688Y-38441D01*
X61680Y-38425D01*
X61668Y-38399D01*
X61654Y-38368D01*
X61641Y-38335D01*
X61629Y-38306D01*
X61621Y-38284D01*
X61619Y-38274D01*
X61619Y-38274D01*
X61625Y-38264D01*
X61639Y-38243D01*
X61659Y-38213D01*
X61684Y-38178D01*
X61685Y-38175D01*
X61709Y-38140D01*
X61729Y-38110D01*
X61741Y-38089D01*
X61746Y-38080D01*
X61746Y-38079D01*
X61738Y-38069D01*
X61720Y-38049D01*
X61695Y-38022D01*
X61664Y-37991D01*
X61654Y-37981D01*
X61620Y-37948D01*
X61597Y-37926D01*
X61582Y-37915D01*
X61575Y-37912D01*
X61575Y-37912D01*
X61564Y-37919D01*
X61542Y-37933D01*
X61512Y-37954D01*
X61476Y-37978D01*
X61474Y-37979D01*
X61439Y-38003D01*
X61410Y-38023D01*
X61389Y-38037D01*
X61380Y-38042D01*
X61378Y-38042D01*
X61364Y-38038D01*
X61339Y-38029D01*
X61309Y-38017D01*
X61276Y-38004D01*
X61247Y-37992D01*
X61225Y-37982D01*
X61214Y-37976D01*
X61214Y-37975D01*
X61210Y-37963D01*
X61204Y-37937D01*
X61197Y-37901D01*
X61189Y-37858D01*
X61187Y-37851D01*
X61179Y-37809D01*
X61173Y-37775D01*
X61168Y-37751D01*
X61165Y-37741D01*
X61159Y-37740D01*
X61139Y-37738D01*
X61108Y-37737D01*
X61070Y-37737D01*
X61031Y-37737D01*
X60992Y-37738D01*
X60959Y-37739D01*
X60936Y-37741D01*
X60926Y-37743D01*
X60925Y-37743D01*
X60922Y-37756D01*
X60916Y-37782D01*
X60909Y-37819D01*
X60900Y-37862D01*
X60899Y-37869D01*
X60891Y-37911D01*
X60884Y-37945D01*
X60879Y-37969D01*
X60876Y-37978D01*
X60873Y-37980D01*
X60855Y-37987D01*
X60827Y-37999D01*
X60793Y-38013D01*
X60713Y-38045D01*
X60614Y-37978D01*
X60605Y-37972D01*
X60570Y-37948D01*
X60541Y-37928D01*
X60521Y-37915D01*
X60512Y-37911D01*
X60512Y-37911D01*
X60502Y-37920D01*
X60482Y-37938D01*
X60456Y-37964D01*
X60425Y-37995D01*
X60402Y-38017D01*
X60375Y-38045D01*
X60357Y-38064D01*
X60348Y-38076D01*
X60345Y-38083D01*
X60346Y-38088D01*
X60352Y-38098D01*
X60366Y-38119D01*
X60387Y-38149D01*
X60411Y-38184D01*
X60430Y-38213D01*
X60452Y-38246D01*
X60466Y-38270D01*
X60470Y-38281D01*
X60469Y-38286D01*
X60462Y-38305D01*
X60451Y-38334D01*
X60436Y-38369D01*
X60402Y-38447D01*
X60351Y-38457D01*
X60320Y-38462D01*
X60276Y-38471D01*
X60235Y-38479D01*
X60170Y-38491D01*
X60168Y-38728D01*
X60178Y-38732D01*
X60188Y-38735D01*
X60212Y-38740D01*
X60246Y-38747D01*
X60286Y-38755D01*
X60320Y-38761D01*
X60355Y-38768D01*
X60380Y-38773D01*
X60391Y-38775D01*
X60394Y-38779D01*
X60402Y-38795D01*
X60415Y-38822D01*
X60428Y-38854D01*
X60442Y-38887D01*
X60454Y-38918D01*
X60463Y-38941D01*
X60466Y-38954D01*
X60461Y-38963D01*
X60448Y-38983D01*
X60429Y-39012D01*
X60406Y-39046D01*
X60382Y-39081D01*
X60362Y-39110D01*
X60349Y-39131D01*
X60343Y-39141D01*
X60346Y-39148D01*
X60359Y-39164D01*
X60385Y-39191D01*
X60424Y-39229D01*
X60430Y-39235D01*
X60461Y-39265D01*
X60487Y-39289D01*
X60505Y-39305D01*
X60513Y-39311D01*
X60513Y-39311D01*
G37*
G36*
X61340Y-37143D02*
X61359Y-37140D01*
X61378Y-37134D01*
X61386Y-37130D01*
X61402Y-37118D01*
X61416Y-37104D01*
X61426Y-37087D01*
X61432Y-37069D01*
X61435Y-37050D01*
X61435Y-37031D01*
X61430Y-37012D01*
X61421Y-36993D01*
X61416Y-36985D01*
X61407Y-36976D01*
X61398Y-36968D01*
X61390Y-36962D01*
X61387Y-36960D01*
X61370Y-36952D01*
X61353Y-36948D01*
X61333Y-36947D01*
X61327Y-36947D01*
X61316Y-36949D01*
X61307Y-36951D01*
X61296Y-36956D01*
X61285Y-36962D01*
X61269Y-36975D01*
X61256Y-36990D01*
X61246Y-37008D01*
X61244Y-37017D01*
X61241Y-37026D01*
X61240Y-37034D01*
X61240Y-37035D01*
X61240Y-37035D01*
X61239Y-37031D01*
X61239Y-37030D01*
X61236Y-37018D01*
X61231Y-37005D01*
X61225Y-36994D01*
X61214Y-36979D01*
X61199Y-36965D01*
X61182Y-36955D01*
X61163Y-36949D01*
X61142Y-36947D01*
X61137Y-36947D01*
X61121Y-36949D01*
X61106Y-36953D01*
X61104Y-36954D01*
X61087Y-36963D01*
X61072Y-36976D01*
X61060Y-36990D01*
X61051Y-37007D01*
X61046Y-37024D01*
X61045Y-37025D01*
X61044Y-37030D01*
X61044Y-37032D01*
X61044Y-37032D01*
X61044Y-37029D01*
X61042Y-37024D01*
X61042Y-37022D01*
X61036Y-37005D01*
X61027Y-36989D01*
X61014Y-36974D01*
X61003Y-36964D01*
X60985Y-36954D01*
X60967Y-36949D01*
X60946Y-36947D01*
X60931Y-36948D01*
X60912Y-36953D01*
X60894Y-36962D01*
X60878Y-36974D01*
X60865Y-36990D01*
X60864Y-36992D01*
X60860Y-36999D01*
X60856Y-37005D01*
X60855Y-37010D01*
X60852Y-37019D01*
X60850Y-37027D01*
X60849Y-37034D01*
X60849Y-37035D01*
X60848Y-37035D01*
X60848Y-37031D01*
X60845Y-37020D01*
X60841Y-37007D01*
X60835Y-36995D01*
X60823Y-36979D01*
X60808Y-36965D01*
X60791Y-36955D01*
X60772Y-36949D01*
X60751Y-36947D01*
X60733Y-36948D01*
X60713Y-36954D01*
X60696Y-36963D01*
X60680Y-36977D01*
X60673Y-36985D01*
X60665Y-36996D01*
X60659Y-37008D01*
X60656Y-37019D01*
X60653Y-37038D01*
X60653Y-37057D01*
X60658Y-37076D01*
X60665Y-37093D01*
X60676Y-37108D01*
X60689Y-37121D01*
X60705Y-37132D01*
X60723Y-37139D01*
X60743Y-37142D01*
X60745Y-37142D01*
X60765Y-37142D01*
X60783Y-37137D01*
X60801Y-37128D01*
X60808Y-37124D01*
X60821Y-37113D01*
X60832Y-37099D01*
X60840Y-37084D01*
X60843Y-37079D01*
X60845Y-37070D01*
X60847Y-37062D01*
X60848Y-37055D01*
X60848Y-37051D01*
X60849Y-37055D01*
X60849Y-37058D01*
X60851Y-37067D01*
X60854Y-37077D01*
X60857Y-37085D01*
X60862Y-37094D01*
X60874Y-37110D01*
X60889Y-37124D01*
X60906Y-37134D01*
X60925Y-37141D01*
X60929Y-37141D01*
X60942Y-37142D01*
X60956Y-37142D01*
X60969Y-37140D01*
X60982Y-37136D01*
X61001Y-37126D01*
X61017Y-37113D01*
X61018Y-37112D01*
X61029Y-37098D01*
X61037Y-37081D01*
X61042Y-37065D01*
X61043Y-37064D01*
X61044Y-37059D01*
X61044Y-37057D01*
X61044Y-37059D01*
X61045Y-37063D01*
X61045Y-37064D01*
X61048Y-37074D01*
X61053Y-37086D01*
X61058Y-37096D01*
X61067Y-37108D01*
X61082Y-37122D01*
X61099Y-37133D01*
X61118Y-37140D01*
X61122Y-37141D01*
X61135Y-37142D01*
X61149Y-37142D01*
X61162Y-37141D01*
X61173Y-37138D01*
X61191Y-37129D01*
X61207Y-37117D01*
X61221Y-37102D01*
X61231Y-37085D01*
X61233Y-37079D01*
X61236Y-37070D01*
X61238Y-37062D01*
X61239Y-37055D01*
X61239Y-37054D01*
X61239Y-37054D01*
X61240Y-37058D01*
X61240Y-37059D01*
X61243Y-37071D01*
X61248Y-37084D01*
X61254Y-37096D01*
X61256Y-37100D01*
X61269Y-37114D01*
X61284Y-37127D01*
X61301Y-37136D01*
X61320Y-37141D01*
X61340Y-37143D01*
X61340Y-37143D01*
G37*
G36*
X60548Y-36947D02*
X60560Y-36946D01*
X60571Y-36945D01*
X60585Y-36942D01*
X60603Y-36934D01*
X60619Y-36922D01*
X60633Y-36907D01*
X60643Y-36890D01*
X60650Y-36872D01*
X60652Y-36852D01*
X60651Y-36832D01*
X60646Y-36813D01*
X60637Y-36796D01*
X60625Y-36780D01*
X60609Y-36767D01*
X60604Y-36764D01*
X60585Y-36755D01*
X60565Y-36751D01*
X60545Y-36751D01*
X60525Y-36755D01*
X60509Y-36762D01*
X60492Y-36773D01*
X60478Y-36788D01*
X60467Y-36805D01*
X60459Y-36825D01*
X60457Y-36834D01*
X60457Y-36847D01*
X60457Y-36860D01*
X60459Y-36870D01*
X60460Y-36874D01*
X60467Y-36894D01*
X60479Y-36911D01*
X60494Y-36925D01*
X60511Y-36937D01*
X60520Y-36940D01*
X60531Y-36944D01*
X60541Y-36946D01*
X60548Y-36947D01*
X60548Y-36947D01*
G37*
G36*
X61536Y-36947D02*
X61556Y-36944D01*
X61575Y-36937D01*
X61594Y-36926D01*
X61597Y-36923D01*
X61611Y-36909D01*
X61622Y-36892D01*
X61629Y-36873D01*
X61631Y-36863D01*
X61631Y-36850D01*
X61631Y-36837D01*
X61629Y-36827D01*
X61628Y-36822D01*
X61620Y-36803D01*
X61609Y-36786D01*
X61595Y-36772D01*
X61578Y-36761D01*
X61559Y-36754D01*
X61539Y-36751D01*
X61531Y-36750D01*
X61512Y-36753D01*
X61493Y-36759D01*
X61477Y-36769D01*
X61462Y-36781D01*
X61451Y-36796D01*
X61442Y-36814D01*
X61437Y-36833D01*
X61436Y-36853D01*
X61437Y-36865D01*
X61439Y-36876D01*
X61443Y-36887D01*
X61451Y-36902D01*
X61464Y-36917D01*
X61479Y-36930D01*
X61497Y-36939D01*
X61516Y-36945D01*
X61536Y-36947D01*
X61536Y-36947D01*
G37*
G36*
X60353Y-36750D02*
X60367Y-36750D01*
X60379Y-36749D01*
X60393Y-36744D01*
X60411Y-36735D01*
X60427Y-36722D01*
X60438Y-36710D01*
X60448Y-36693D01*
X60454Y-36674D01*
X60456Y-36666D01*
X60456Y-36654D01*
X60456Y-36642D01*
X60455Y-36632D01*
X60453Y-36626D01*
X60445Y-36607D01*
X60434Y-36590D01*
X60419Y-36576D01*
X60402Y-36565D01*
X60395Y-36562D01*
X60382Y-36557D01*
X60370Y-36555D01*
X60355Y-36555D01*
X60346Y-36556D01*
X60335Y-36557D01*
X60325Y-36560D01*
X60315Y-36565D01*
X60308Y-36568D01*
X60292Y-36580D01*
X60279Y-36595D01*
X60268Y-36613D01*
X60262Y-36633D01*
X60261Y-36638D01*
X60261Y-36649D01*
X60261Y-36662D01*
X60262Y-36672D01*
X60264Y-36679D01*
X60271Y-36698D01*
X60283Y-36715D01*
X60297Y-36729D01*
X60314Y-36740D01*
X60334Y-36748D01*
X60340Y-36749D01*
X60353Y-36750D01*
X60353Y-36750D01*
G37*
G36*
X61139Y-36750D02*
X61159Y-36749D01*
X61177Y-36744D01*
X61188Y-36739D01*
X61205Y-36727D01*
X61219Y-36713D01*
X61230Y-36695D01*
X61237Y-36676D01*
X61238Y-36672D01*
X61240Y-36656D01*
X61239Y-36641D01*
X61235Y-36624D01*
X61227Y-36605D01*
X61216Y-36589D01*
X61201Y-36575D01*
X61184Y-36564D01*
X61164Y-36557D01*
X61151Y-36554D01*
X61158Y-36553D01*
X61159Y-36553D01*
X61173Y-36549D01*
X61188Y-36543D01*
X61202Y-36534D01*
X61204Y-36532D01*
X61218Y-36518D01*
X61229Y-36501D01*
X61236Y-36483D01*
X61239Y-36464D01*
X61239Y-36445D01*
X61234Y-36426D01*
X61226Y-36408D01*
X61226Y-36407D01*
X61213Y-36391D01*
X61199Y-36378D01*
X61182Y-36368D01*
X61164Y-36362D01*
X61145Y-36360D01*
X61126Y-36361D01*
X61108Y-36365D01*
X61090Y-36374D01*
X61074Y-36386D01*
X61065Y-36396D01*
X61056Y-36410D01*
X61049Y-36425D01*
X61045Y-36440D01*
X61044Y-36443D01*
X61044Y-36445D01*
X61044Y-36444D01*
X61043Y-36440D01*
X61040Y-36427D01*
X61034Y-36413D01*
X61025Y-36399D01*
X61021Y-36393D01*
X61006Y-36379D01*
X60989Y-36369D01*
X60970Y-36362D01*
X60950Y-36359D01*
X60930Y-36361D01*
X60918Y-36364D01*
X60899Y-36372D01*
X60883Y-36383D01*
X60869Y-36398D01*
X60858Y-36415D01*
X60851Y-36434D01*
X60849Y-36444D01*
X60849Y-36463D01*
X60852Y-36483D01*
X60859Y-36501D01*
X60870Y-36518D01*
X60884Y-36532D01*
X60902Y-36544D01*
X60909Y-36547D01*
X60918Y-36550D01*
X60927Y-36553D01*
X60933Y-36554D01*
X60934Y-36554D01*
X60934Y-36554D01*
X60929Y-36556D01*
X60920Y-36558D01*
X60907Y-36563D01*
X60896Y-36569D01*
X60889Y-36573D01*
X60876Y-36584D01*
X60865Y-36598D01*
X60856Y-36613D01*
X60851Y-36629D01*
X60849Y-36647D01*
X60849Y-36664D01*
X60850Y-36667D01*
X60855Y-36688D01*
X60864Y-36706D01*
X60878Y-36722D01*
X60888Y-36731D01*
X60906Y-36742D01*
X60925Y-36749D01*
X60933Y-36750D01*
X60943Y-36750D01*
X60955Y-36750D01*
X60965Y-36749D01*
X60973Y-36747D01*
X60980Y-36745D01*
X60999Y-36736D01*
X61015Y-36723D01*
X61028Y-36707D01*
X61033Y-36699D01*
X61039Y-36686D01*
X61042Y-36673D01*
X61043Y-36672D01*
X61044Y-36667D01*
X61044Y-36665D01*
X61044Y-36665D01*
X61044Y-36640D01*
X61044Y-36640D01*
X61044Y-36637D01*
X61042Y-36632D01*
X61042Y-36631D01*
X61036Y-36613D01*
X61027Y-36597D01*
X61014Y-36582D01*
X61000Y-36570D01*
X60983Y-36561D01*
X60982Y-36561D01*
X60973Y-36558D01*
X60965Y-36556D01*
X60956Y-36554D01*
X60965Y-36553D01*
X60976Y-36550D01*
X60994Y-36542D01*
X61010Y-36531D01*
X61024Y-36517D01*
X61034Y-36501D01*
X61038Y-36493D01*
X61041Y-36483D01*
X61043Y-36474D01*
X61044Y-36471D01*
X61044Y-36469D01*
X61044Y-36470D01*
X61045Y-36474D01*
X61047Y-36482D01*
X61050Y-36492D01*
X61054Y-36501D01*
X61060Y-36511D01*
X61073Y-36526D01*
X61088Y-36539D01*
X61105Y-36548D01*
X61124Y-36553D01*
X61132Y-36554D01*
X61123Y-36556D01*
X61122Y-36556D01*
X61113Y-36559D01*
X61105Y-36561D01*
X61103Y-36562D01*
X61087Y-36571D01*
X61072Y-36583D01*
X61060Y-36598D01*
X61051Y-36615D01*
X61046Y-36632D01*
X61045Y-36633D01*
X61044Y-36638D01*
X61044Y-36640D01*
X61044Y-36665D01*
X61044Y-36665D01*
X61044Y-36668D01*
X61046Y-36673D01*
X61049Y-36686D01*
X61057Y-36703D01*
X61069Y-36719D01*
X61084Y-36732D01*
X61101Y-36742D01*
X61101Y-36742D01*
X61119Y-36748D01*
X61139Y-36750D01*
X61139Y-36750D01*
G37*
G36*
X61722Y-36750D02*
X61738Y-36750D01*
X61753Y-36748D01*
X61762Y-36745D01*
X61781Y-36736D01*
X61797Y-36724D01*
X61810Y-36709D01*
X61819Y-36692D01*
X61825Y-36673D01*
X61828Y-36653D01*
X61827Y-36644D01*
X61824Y-36624D01*
X61816Y-36605D01*
X61803Y-36588D01*
X61800Y-36584D01*
X61786Y-36572D01*
X61770Y-36563D01*
X61752Y-36557D01*
X61752Y-36557D01*
X61737Y-36555D01*
X61722Y-36555D01*
X61707Y-36557D01*
X61701Y-36559D01*
X61683Y-36566D01*
X61667Y-36577D01*
X61653Y-36591D01*
X61643Y-36607D01*
X61635Y-36625D01*
X61632Y-36644D01*
X61632Y-36664D01*
X61637Y-36684D01*
X61643Y-36698D01*
X61654Y-36715D01*
X61669Y-36729D01*
X61686Y-36740D01*
X61705Y-36747D01*
X61707Y-36748D01*
X61722Y-36750D01*
X61722Y-36750D01*
G37*
G36*
X60754Y-36164D02*
X60773Y-36161D01*
X60792Y-36154D01*
X60801Y-36150D01*
X60809Y-36144D01*
X60819Y-36135D01*
X60829Y-36124D01*
X60839Y-36108D01*
X60846Y-36089D01*
X60847Y-36084D01*
X60848Y-36071D01*
X60848Y-36057D01*
X60847Y-36045D01*
X60841Y-36029D01*
X60832Y-36011D01*
X60820Y-35997D01*
X60818Y-35995D01*
X60809Y-35987D01*
X60799Y-35980D01*
X60789Y-35975D01*
X60785Y-35974D01*
X60777Y-35971D01*
X60769Y-35969D01*
X60764Y-35968D01*
X60760Y-35968D01*
X60764Y-35967D01*
X60769Y-35966D01*
X60775Y-35964D01*
X60782Y-35962D01*
X60797Y-35956D01*
X60811Y-35946D01*
X60823Y-35936D01*
X60825Y-35934D01*
X60836Y-35917D01*
X60844Y-35898D01*
X60848Y-35879D01*
X60848Y-35859D01*
X60847Y-35854D01*
X60842Y-35834D01*
X60833Y-35816D01*
X60819Y-35800D01*
X60807Y-35790D01*
X60791Y-35780D01*
X60771Y-35773D01*
X60768Y-35773D01*
X60754Y-35772D01*
X60740Y-35772D01*
X60728Y-35774D01*
X60717Y-35777D01*
X60699Y-35786D01*
X60683Y-35798D01*
X60670Y-35813D01*
X60660Y-35830D01*
X60655Y-35849D01*
X60654Y-35851D01*
X60653Y-35856D01*
X60652Y-35857D01*
X60651Y-35855D01*
X60651Y-35851D01*
X60649Y-35843D01*
X60646Y-35834D01*
X60643Y-35826D01*
X60640Y-35821D01*
X60627Y-35804D01*
X60612Y-35790D01*
X60595Y-35780D01*
X60576Y-35774D01*
X60555Y-35772D01*
X60539Y-35773D01*
X60520Y-35777D01*
X60503Y-35786D01*
X60493Y-35793D01*
X60479Y-35807D01*
X60468Y-35824D01*
X60460Y-35842D01*
X60457Y-35861D01*
X60457Y-35881D01*
X60461Y-35899D01*
X60469Y-35918D01*
X60481Y-35934D01*
X60496Y-35948D01*
X60514Y-35958D01*
X60534Y-35965D01*
X60545Y-35968D01*
X60539Y-35969D01*
X60534Y-35969D01*
X60519Y-35974D01*
X60503Y-35982D01*
X60489Y-35993D01*
X60477Y-36005D01*
X60471Y-36015D01*
X60464Y-36028D01*
X60459Y-36041D01*
X60457Y-36052D01*
X60457Y-36064D01*
X60457Y-36077D01*
X60459Y-36087D01*
X60462Y-36098D01*
X60471Y-36117D01*
X60484Y-36133D01*
X60499Y-36146D01*
X60517Y-36156D01*
X60538Y-36162D01*
X60543Y-36163D01*
X60555Y-36163D01*
X60568Y-36162D01*
X60579Y-36160D01*
X60587Y-36158D01*
X60605Y-36149D01*
X60621Y-36137D01*
X60635Y-36122D01*
X60644Y-36104D01*
X60651Y-36085D01*
X60651Y-36083D01*
X60652Y-36079D01*
X60653Y-36079D01*
X60653Y-36053D01*
X60652Y-36052D01*
X60651Y-36048D01*
X60651Y-36047D01*
X60647Y-36034D01*
X60641Y-36020D01*
X60633Y-36007D01*
X60627Y-36000D01*
X60612Y-35986D01*
X60594Y-35976D01*
X60574Y-35969D01*
X60565Y-35968D01*
X60572Y-35966D01*
X60577Y-35965D01*
X60584Y-35963D01*
X60588Y-35962D01*
X60605Y-35953D01*
X60621Y-35941D01*
X60634Y-35926D01*
X60644Y-35909D01*
X60650Y-35890D01*
X60651Y-35885D01*
X60652Y-35883D01*
X60653Y-35884D01*
X60655Y-35891D01*
X60655Y-35891D01*
X60658Y-35901D01*
X60663Y-35913D01*
X60669Y-35924D01*
X60674Y-35930D01*
X60682Y-35939D01*
X60692Y-35948D01*
X60702Y-35955D01*
X60702Y-35955D01*
X60717Y-35962D01*
X60733Y-35966D01*
X60740Y-35968D01*
X60732Y-35969D01*
X60715Y-35974D01*
X60697Y-35983D01*
X60682Y-35995D01*
X60669Y-36010D01*
X60666Y-36015D01*
X60662Y-36025D01*
X60658Y-36034D01*
X60655Y-36043D01*
X60654Y-36050D01*
X60654Y-36050D01*
X60653Y-36053D01*
X60653Y-36079D01*
X60653Y-36079D01*
X60654Y-36084D01*
X60655Y-36089D01*
X60657Y-36096D01*
X60661Y-36106D01*
X60671Y-36123D01*
X60684Y-36137D01*
X60699Y-36149D01*
X60716Y-36157D01*
X60734Y-36162D01*
X60754Y-36164D01*
X60754Y-36164D01*
G37*
G36*
X61343Y-36164D02*
X61362Y-36160D01*
X61380Y-36154D01*
X61397Y-36143D01*
X61411Y-36130D01*
X61423Y-36114D01*
X61431Y-36096D01*
X61433Y-36089D01*
X61434Y-36084D01*
X61434Y-36083D01*
X61435Y-36079D01*
X61435Y-36079D01*
X61435Y-36052D01*
X61434Y-36049D01*
X61433Y-36042D01*
X61429Y-36031D01*
X61421Y-36013D01*
X61409Y-35998D01*
X61394Y-35985D01*
X61376Y-35975D01*
X61357Y-35969D01*
X61348Y-35968D01*
X61355Y-35966D01*
X61355Y-35966D01*
X61371Y-35961D01*
X61386Y-35955D01*
X61393Y-35950D01*
X61402Y-35942D01*
X61412Y-35933D01*
X61419Y-35924D01*
X61424Y-35915D01*
X61430Y-35902D01*
X61433Y-35891D01*
X61434Y-35885D01*
X61435Y-35883D01*
X61436Y-35884D01*
X61438Y-35890D01*
X61441Y-35903D01*
X61450Y-35921D01*
X61463Y-35937D01*
X61478Y-35950D01*
X61496Y-35960D01*
X61516Y-35966D01*
X61523Y-35968D01*
X61514Y-35969D01*
X61505Y-35972D01*
X61486Y-35980D01*
X61469Y-35992D01*
X61455Y-36007D01*
X61451Y-36013D01*
X61446Y-36021D01*
X61441Y-36032D01*
X61439Y-36039D01*
X61437Y-36047D01*
X61437Y-36047D01*
X61436Y-36051D01*
X61435Y-36052D01*
X61435Y-36079D01*
X61436Y-36080D01*
X61437Y-36085D01*
X61439Y-36091D01*
X61444Y-36106D01*
X61452Y-36120D01*
X61458Y-36128D01*
X61472Y-36142D01*
X61490Y-36153D01*
X61510Y-36161D01*
X61518Y-36162D01*
X61532Y-36163D01*
X61546Y-36163D01*
X61558Y-36161D01*
X61559Y-36160D01*
X61579Y-36152D01*
X61596Y-36141D01*
X61610Y-36127D01*
X61621Y-36109D01*
X61629Y-36089D01*
X61631Y-36081D01*
X61631Y-36067D01*
X61631Y-36053D01*
X61629Y-36041D01*
X61625Y-36031D01*
X61618Y-36017D01*
X61611Y-36005D01*
X61602Y-35995D01*
X61590Y-35985D01*
X61577Y-35978D01*
X61572Y-35975D01*
X61563Y-35972D01*
X61554Y-35969D01*
X61547Y-35968D01*
X61546Y-35968D01*
X61549Y-35967D01*
X61554Y-35965D01*
X61566Y-35962D01*
X61578Y-35957D01*
X61589Y-35950D01*
X61591Y-35949D01*
X61604Y-35937D01*
X61615Y-35924D01*
X61624Y-35909D01*
X61626Y-35902D01*
X61631Y-35882D01*
X61631Y-35862D01*
X61628Y-35842D01*
X61627Y-35838D01*
X61618Y-35820D01*
X61606Y-35804D01*
X61591Y-35790D01*
X61574Y-35780D01*
X61555Y-35773D01*
X61552Y-35773D01*
X61538Y-35772D01*
X61524Y-35772D01*
X61511Y-35774D01*
X61508Y-35775D01*
X61488Y-35782D01*
X61471Y-35794D01*
X61457Y-35808D01*
X61445Y-35826D01*
X61443Y-35832D01*
X61440Y-35841D01*
X61438Y-35849D01*
X61437Y-35855D01*
X61437Y-35857D01*
X61436Y-35857D01*
X61435Y-35855D01*
X61434Y-35849D01*
X61430Y-35836D01*
X61422Y-35819D01*
X61410Y-35803D01*
X61395Y-35790D01*
X61378Y-35780D01*
X61378Y-35780D01*
X61360Y-35774D01*
X61340Y-35772D01*
X61320Y-35773D01*
X61302Y-35778D01*
X61291Y-35783D01*
X61274Y-35795D01*
X61260Y-35809D01*
X61249Y-35827D01*
X61242Y-35846D01*
X61241Y-35850D01*
X61239Y-35866D01*
X61240Y-35881D01*
X61244Y-35899D01*
X61252Y-35918D01*
X61264Y-35934D01*
X61279Y-35948D01*
X61297Y-35958D01*
X61317Y-35965D01*
X61321Y-35966D01*
X61324Y-35968D01*
X61324Y-35968D01*
X61318Y-35969D01*
X61307Y-35972D01*
X61295Y-35977D01*
X61284Y-35984D01*
X61273Y-35992D01*
X61259Y-36007D01*
X61248Y-36025D01*
X61247Y-36028D01*
X61241Y-36047D01*
X61240Y-36067D01*
X61242Y-36087D01*
X61248Y-36106D01*
X61253Y-36115D01*
X61259Y-36124D01*
X61267Y-36133D01*
X61268Y-36134D01*
X61284Y-36147D01*
X61301Y-36157D01*
X61321Y-36162D01*
X61323Y-36162D01*
X61343Y-36164D01*
X61343Y-36164D01*
G37*
%LPC*%
G54D13*
X52250Y-36000D03*
X62750Y-36250D03*
X52250Y-39000D03*
X62750Y-38750D03*
G54D14*
X52000Y-34000D03*
G54D15*
X53000Y-34000D03*
X54000Y-34000D03*
X55000Y-34000D03*
X56000Y-34000D03*
X57000Y-34000D03*
X58000Y-34000D03*
X59000Y-34000D03*
X60000Y-34000D03*
X61000Y-34000D03*
X62000Y-34000D03*
X63000Y-34000D03*
G54D14*
X52000Y-41000D03*
G54D15*
X53000Y-41000D03*
X54000Y-41000D03*
X55000Y-41000D03*
X56000Y-41000D03*
X57000Y-41000D03*
X58000Y-41000D03*
X59000Y-41000D03*
X60000Y-41000D03*
X61000Y-41000D03*
X62000Y-41000D03*
X63000Y-41000D03*
G54D16*
X55335Y-39075D03*
X55728Y-39075D03*
X56122Y-39075D03*
X56516Y-39075D03*
X56909Y-39075D03*
X57303Y-39075D03*
X57697Y-39075D03*
X58091Y-39075D03*
X58484Y-39075D03*
X58878Y-39075D03*
X59272Y-39075D03*
X59665Y-39075D03*
X59665Y-35925D03*
X59272Y-35925D03*
X58878Y-35925D03*
X58484Y-35925D03*
X58091Y-35925D03*
X57697Y-35925D03*
X57303Y-35925D03*
X56909Y-35925D03*
X56516Y-35925D03*
X56122Y-35925D03*
X55728Y-35925D03*
X55335Y-35925D03*
G54D17*
X59666Y-36693D03*
X59666Y-37205D03*
X56516Y-38288D03*
X56516Y-37776D03*
X56910Y-38288D03*
X56910Y-37776D03*
X57304Y-38288D03*
X57304Y-37776D03*
X57697Y-38288D03*
X57697Y-37776D03*
X58091Y-38288D03*
X58091Y-37776D03*
X58485Y-38288D03*
X58485Y-37776D03*
X58878Y-38288D03*
X58878Y-37776D03*
X59272Y-38288D03*
X59272Y-37776D03*
X59666Y-38288D03*
X59666Y-37776D03*
X59272Y-36693D03*
X59272Y-37205D03*
X58878Y-36693D03*
X58878Y-37205D03*
X58485Y-36693D03*
X58485Y-37205D03*
X58091Y-36693D03*
X58091Y-37205D03*
X57697Y-36693D03*
X57697Y-37205D03*
X57304Y-36693D03*
X57304Y-37205D03*
X56910Y-36693D03*
X56910Y-37205D03*
X56516Y-36693D03*
X56516Y-37205D03*
X56122Y-36693D03*
X56122Y-37205D03*
X55729Y-36693D03*
X55729Y-37205D03*
X55335Y-36693D03*
X55335Y-37205D03*
X56122Y-38288D03*
X56122Y-37776D03*
X55729Y-38288D03*
X55729Y-37776D03*
X55335Y-38288D03*
X55335Y-37776D03*
M02*
