G04 (created by PCBNEW-RS274X (2012-jan-04)-stable) date Sun 02 Sep 2012 08:45:38 PM CEST*
G01*
G70*
G90*
%MOIN*%
G04 Gerber Fmt 3.4, Leading zero omitted, Abs format*
%FSLAX34Y34*%
G04 APERTURE LIST*
%ADD10C,0.006000*%
%ADD11C,0.010000*%
%ADD12C,0.002600*%
%ADD13C,0.002000*%
%ADD14C,0.004000*%
%ADD15C,0.012000*%
%ADD16C,0.015000*%
%ADD17C,0.000100*%
%ADD18R,0.059000X0.051100*%
%ADD19R,0.070800X0.062900*%
%ADD20R,0.060000X0.060000*%
%ADD21R,0.065000X0.065000*%
%ADD22C,0.065000*%
%ADD23R,0.025600X0.063000*%
%ADD24R,0.025600X0.039400*%
G04 APERTURE END LIST*
G54D10*
G54D11*
X54672Y-38407D02*
X54691Y-38388D01*
X54710Y-38407D01*
X54691Y-38426D01*
X54672Y-38407D01*
X54710Y-38407D01*
X54558Y-38407D02*
X54329Y-38426D01*
X54310Y-38407D01*
X54329Y-38388D01*
X54558Y-38407D01*
X54310Y-38407D01*
X54691Y-37740D02*
X54710Y-37778D01*
X54710Y-37855D01*
X54691Y-37893D01*
X54672Y-37912D01*
X54634Y-37931D01*
X54519Y-37931D01*
X54481Y-37912D01*
X54462Y-37893D01*
X54443Y-37855D01*
X54443Y-37778D01*
X54462Y-37740D01*
X54443Y-37397D02*
X54710Y-37397D01*
X54443Y-37569D02*
X54653Y-37569D01*
X54691Y-37550D01*
X54710Y-37512D01*
X54710Y-37454D01*
X54691Y-37416D01*
X54672Y-37397D01*
X54443Y-37264D02*
X54443Y-37112D01*
X54310Y-37207D02*
X54653Y-37207D01*
X54691Y-37188D01*
X54710Y-37150D01*
X54710Y-37112D01*
X54672Y-36673D02*
X54691Y-36654D01*
X54710Y-36673D01*
X54691Y-36692D01*
X54672Y-36673D01*
X54710Y-36673D01*
X54558Y-36673D02*
X54329Y-36692D01*
X54310Y-36673D01*
X54329Y-36654D01*
X54558Y-36673D01*
X54310Y-36673D01*
X53259Y-38797D02*
X53221Y-38778D01*
X53164Y-38778D01*
X53106Y-38797D01*
X53068Y-38835D01*
X53049Y-38873D01*
X53030Y-38949D01*
X53030Y-39006D01*
X53049Y-39083D01*
X53068Y-39121D01*
X53106Y-39159D01*
X53164Y-39178D01*
X53202Y-39178D01*
X53259Y-39159D01*
X53278Y-39140D01*
X53278Y-39006D01*
X53202Y-39006D01*
X53449Y-39178D02*
X53449Y-38778D01*
X53678Y-39178D01*
X53678Y-38778D01*
X53868Y-39178D02*
X53868Y-38778D01*
X53963Y-38778D01*
X54021Y-38797D01*
X54059Y-38835D01*
X54078Y-38873D01*
X54097Y-38949D01*
X54097Y-39006D01*
X54078Y-39083D01*
X54059Y-39121D01*
X54021Y-39159D01*
X53963Y-39178D01*
X53868Y-39178D01*
X53030Y-35825D02*
X53163Y-36225D01*
X53297Y-35825D01*
X53659Y-36187D02*
X53640Y-36206D01*
X53583Y-36225D01*
X53545Y-36225D01*
X53487Y-36206D01*
X53449Y-36168D01*
X53430Y-36130D01*
X53411Y-36053D01*
X53411Y-35996D01*
X53430Y-35920D01*
X53449Y-35882D01*
X53487Y-35844D01*
X53545Y-35825D01*
X53583Y-35825D01*
X53640Y-35844D01*
X53659Y-35863D01*
X54059Y-36187D02*
X54040Y-36206D01*
X53983Y-36225D01*
X53945Y-36225D01*
X53887Y-36206D01*
X53849Y-36168D01*
X53830Y-36130D01*
X53811Y-36053D01*
X53811Y-35996D01*
X53830Y-35920D01*
X53849Y-35882D01*
X53887Y-35844D01*
X53945Y-35825D01*
X53983Y-35825D01*
X54040Y-35844D01*
X54059Y-35863D01*
X53204Y-39800D02*
X53223Y-39781D01*
X53261Y-39762D01*
X53357Y-39762D01*
X53395Y-39781D01*
X53414Y-39800D01*
X53433Y-39838D01*
X53433Y-39876D01*
X53414Y-39933D01*
X53185Y-40162D01*
X53433Y-40162D01*
X53680Y-39762D02*
X53719Y-39762D01*
X53757Y-39781D01*
X53776Y-39800D01*
X53795Y-39838D01*
X53814Y-39914D01*
X53814Y-40010D01*
X53795Y-40086D01*
X53776Y-40124D01*
X53757Y-40143D01*
X53719Y-40162D01*
X53680Y-40162D01*
X53642Y-40143D01*
X53623Y-40124D01*
X53604Y-40086D01*
X53585Y-40010D01*
X53585Y-39914D01*
X53604Y-39838D01*
X53623Y-39800D01*
X53642Y-39781D01*
X53680Y-39762D01*
X54195Y-40162D02*
X53966Y-40162D01*
X54080Y-40162D02*
X54080Y-39762D01*
X54042Y-39819D01*
X54004Y-39857D01*
X53966Y-39876D01*
X54347Y-39800D02*
X54366Y-39781D01*
X54404Y-39762D01*
X54500Y-39762D01*
X54538Y-39781D01*
X54557Y-39800D01*
X54576Y-39838D01*
X54576Y-39876D01*
X54557Y-39933D01*
X54328Y-40162D01*
X54576Y-40162D01*
X55052Y-40010D02*
X55357Y-40010D01*
X55852Y-40162D02*
X55852Y-39762D01*
X55852Y-39914D02*
X55890Y-39895D01*
X55967Y-39895D01*
X56005Y-39914D01*
X56024Y-39933D01*
X56043Y-39971D01*
X56043Y-40086D01*
X56024Y-40124D01*
X56005Y-40143D01*
X55967Y-40162D01*
X55890Y-40162D01*
X55852Y-40143D01*
X56271Y-40162D02*
X56233Y-40143D01*
X56214Y-40105D01*
X56214Y-39762D01*
X56481Y-40162D02*
X56443Y-40143D01*
X56424Y-40124D01*
X56405Y-40086D01*
X56405Y-39971D01*
X56424Y-39933D01*
X56443Y-39914D01*
X56481Y-39895D01*
X56539Y-39895D01*
X56577Y-39914D01*
X56596Y-39933D01*
X56615Y-39971D01*
X56615Y-40086D01*
X56596Y-40124D01*
X56577Y-40143D01*
X56539Y-40162D01*
X56481Y-40162D01*
X56958Y-39895D02*
X56958Y-40219D01*
X56939Y-40257D01*
X56920Y-40276D01*
X56881Y-40295D01*
X56824Y-40295D01*
X56786Y-40276D01*
X56958Y-40143D02*
X56920Y-40162D01*
X56843Y-40162D01*
X56805Y-40143D01*
X56786Y-40124D01*
X56767Y-40086D01*
X56767Y-39971D01*
X56786Y-39933D01*
X56805Y-39914D01*
X56843Y-39895D01*
X56920Y-39895D01*
X56958Y-39914D01*
X57148Y-40124D02*
X57167Y-40143D01*
X57148Y-40162D01*
X57129Y-40143D01*
X57148Y-40124D01*
X57148Y-40162D01*
X57319Y-40143D02*
X57357Y-40162D01*
X57433Y-40162D01*
X57472Y-40143D01*
X57491Y-40105D01*
X57491Y-40086D01*
X57472Y-40048D01*
X57433Y-40029D01*
X57376Y-40029D01*
X57338Y-40010D01*
X57319Y-39971D01*
X57319Y-39952D01*
X57338Y-39914D01*
X57376Y-39895D01*
X57433Y-39895D01*
X57472Y-39914D01*
X57662Y-39895D02*
X57662Y-40295D01*
X57662Y-39914D02*
X57700Y-39895D01*
X57777Y-39895D01*
X57815Y-39914D01*
X57834Y-39933D01*
X57853Y-39971D01*
X57853Y-40086D01*
X57834Y-40124D01*
X57815Y-40143D01*
X57777Y-40162D01*
X57700Y-40162D01*
X57662Y-40143D01*
X58024Y-40162D02*
X58024Y-39895D01*
X58024Y-39762D02*
X58005Y-39781D01*
X58024Y-39800D01*
X58043Y-39781D01*
X58024Y-39762D01*
X58024Y-39800D01*
X58157Y-39895D02*
X58309Y-39895D01*
X58214Y-39762D02*
X58214Y-40105D01*
X58233Y-40143D01*
X58271Y-40162D01*
X58309Y-40162D01*
X58405Y-39895D02*
X58615Y-39895D01*
X58405Y-40162D01*
X58615Y-40162D01*
X58920Y-40143D02*
X58882Y-40162D01*
X58805Y-40162D01*
X58767Y-40143D01*
X58748Y-40105D01*
X58748Y-39952D01*
X58767Y-39914D01*
X58805Y-39895D01*
X58882Y-39895D01*
X58920Y-39914D01*
X58939Y-39952D01*
X58939Y-39990D01*
X58748Y-40029D01*
X59110Y-39895D02*
X59110Y-40162D01*
X59110Y-39933D02*
X59129Y-39914D01*
X59167Y-39895D01*
X59225Y-39895D01*
X59263Y-39914D01*
X59282Y-39952D01*
X59282Y-40162D01*
X59472Y-39895D02*
X59472Y-40295D01*
X59472Y-39914D02*
X59510Y-39895D01*
X59587Y-39895D01*
X59625Y-39914D01*
X59644Y-39933D01*
X59663Y-39971D01*
X59663Y-40086D01*
X59644Y-40124D01*
X59625Y-40143D01*
X59587Y-40162D01*
X59510Y-40162D01*
X59472Y-40143D01*
X59777Y-39895D02*
X59929Y-39895D01*
X59834Y-40162D02*
X59834Y-39819D01*
X59853Y-39781D01*
X59891Y-39762D01*
X59929Y-39762D01*
X60216Y-40143D02*
X60178Y-40162D01*
X60101Y-40162D01*
X60063Y-40143D01*
X60044Y-40105D01*
X60044Y-39952D01*
X60063Y-39914D01*
X60101Y-39895D01*
X60178Y-39895D01*
X60216Y-39914D01*
X60235Y-39952D01*
X60235Y-39990D01*
X60044Y-40029D01*
X60406Y-40162D02*
X60406Y-39895D01*
X60406Y-39762D02*
X60387Y-39781D01*
X60406Y-39800D01*
X60425Y-39781D01*
X60406Y-39762D01*
X60406Y-39800D01*
X60653Y-40162D02*
X60615Y-40143D01*
X60596Y-40105D01*
X60596Y-39762D01*
X60806Y-40124D02*
X60825Y-40143D01*
X60806Y-40162D01*
X60787Y-40143D01*
X60806Y-40124D01*
X60806Y-40162D01*
X61053Y-40162D02*
X61015Y-40143D01*
X60996Y-40124D01*
X60977Y-40086D01*
X60977Y-39971D01*
X60996Y-39933D01*
X61015Y-39914D01*
X61053Y-39895D01*
X61111Y-39895D01*
X61149Y-39914D01*
X61168Y-39933D01*
X61187Y-39971D01*
X61187Y-40086D01*
X61168Y-40124D01*
X61149Y-40143D01*
X61111Y-40162D01*
X61053Y-40162D01*
X61358Y-40162D02*
X61358Y-39895D01*
X61358Y-39971D02*
X61377Y-39933D01*
X61396Y-39914D01*
X61434Y-39895D01*
X61473Y-39895D01*
X61778Y-39895D02*
X61778Y-40219D01*
X61759Y-40257D01*
X61740Y-40276D01*
X61701Y-40295D01*
X61644Y-40295D01*
X61606Y-40276D01*
X61778Y-40143D02*
X61740Y-40162D01*
X61663Y-40162D01*
X61625Y-40143D01*
X61606Y-40124D01*
X61587Y-40086D01*
X61587Y-39971D01*
X61606Y-39933D01*
X61625Y-39914D01*
X61663Y-39895D01*
X61740Y-39895D01*
X61778Y-39914D01*
X53414Y-35222D02*
X53471Y-35241D01*
X53567Y-35241D01*
X53605Y-35222D01*
X53624Y-35203D01*
X53643Y-35165D01*
X53643Y-35127D01*
X53624Y-35089D01*
X53605Y-35069D01*
X53567Y-35050D01*
X53490Y-35031D01*
X53452Y-35012D01*
X53433Y-34993D01*
X53414Y-34955D01*
X53414Y-34917D01*
X53433Y-34879D01*
X53452Y-34860D01*
X53490Y-34841D01*
X53586Y-34841D01*
X53643Y-34860D01*
X53890Y-34841D02*
X53967Y-34841D01*
X54005Y-34860D01*
X54043Y-34898D01*
X54062Y-34974D01*
X54062Y-35108D01*
X54043Y-35184D01*
X54005Y-35222D01*
X53967Y-35241D01*
X53890Y-35241D01*
X53852Y-35222D01*
X53814Y-35184D01*
X53795Y-35108D01*
X53795Y-34974D01*
X53814Y-34898D01*
X53852Y-34860D01*
X53890Y-34841D01*
X54233Y-35241D02*
X54233Y-34841D01*
X54386Y-34841D01*
X54424Y-34860D01*
X54443Y-34879D01*
X54462Y-34917D01*
X54462Y-34974D01*
X54443Y-35012D01*
X54424Y-35031D01*
X54386Y-35050D01*
X54233Y-35050D01*
X54614Y-34879D02*
X54633Y-34860D01*
X54671Y-34841D01*
X54767Y-34841D01*
X54805Y-34860D01*
X54824Y-34879D01*
X54843Y-34917D01*
X54843Y-34955D01*
X54824Y-35012D01*
X54595Y-35241D01*
X54843Y-35241D01*
X55186Y-34974D02*
X55186Y-35241D01*
X55090Y-34822D02*
X54995Y-35108D01*
X55243Y-35108D01*
X55395Y-35089D02*
X55700Y-35089D01*
X55852Y-34841D02*
X56100Y-34841D01*
X55966Y-34993D01*
X56024Y-34993D01*
X56062Y-35012D01*
X56081Y-35031D01*
X56100Y-35069D01*
X56100Y-35165D01*
X56081Y-35203D01*
X56062Y-35222D01*
X56024Y-35241D01*
X55909Y-35241D01*
X55871Y-35222D01*
X55852Y-35203D01*
X56347Y-34841D02*
X56386Y-34841D01*
X56424Y-34860D01*
X56443Y-34879D01*
X56462Y-34917D01*
X56481Y-34993D01*
X56481Y-35089D01*
X56462Y-35165D01*
X56443Y-35203D01*
X56424Y-35222D01*
X56386Y-35241D01*
X56347Y-35241D01*
X56309Y-35222D01*
X56290Y-35203D01*
X56271Y-35165D01*
X56252Y-35089D01*
X56252Y-34993D01*
X56271Y-34917D01*
X56290Y-34879D01*
X56309Y-34860D01*
X56347Y-34841D01*
X56728Y-34841D02*
X56767Y-34841D01*
X56805Y-34860D01*
X56824Y-34879D01*
X56843Y-34917D01*
X56862Y-34993D01*
X56862Y-35089D01*
X56843Y-35165D01*
X56824Y-35203D01*
X56805Y-35222D01*
X56767Y-35241D01*
X56728Y-35241D01*
X56690Y-35222D01*
X56671Y-35203D01*
X56652Y-35165D01*
X56633Y-35089D01*
X56633Y-34993D01*
X56652Y-34917D01*
X56671Y-34879D01*
X56690Y-34860D01*
X56728Y-34841D01*
X57033Y-35089D02*
X57338Y-35089D01*
X57738Y-35241D02*
X57509Y-35241D01*
X57623Y-35241D02*
X57623Y-34841D01*
X57585Y-34898D01*
X57547Y-34936D01*
X57509Y-34955D01*
X57909Y-35203D02*
X57928Y-35222D01*
X57909Y-35241D01*
X57890Y-35222D01*
X57909Y-35203D01*
X57909Y-35241D01*
X58175Y-34841D02*
X58214Y-34841D01*
X58252Y-34860D01*
X58271Y-34879D01*
X58290Y-34917D01*
X58309Y-34993D01*
X58309Y-35089D01*
X58290Y-35165D01*
X58271Y-35203D01*
X58252Y-35222D01*
X58214Y-35241D01*
X58175Y-35241D01*
X58137Y-35222D01*
X58118Y-35203D01*
X58099Y-35165D01*
X58080Y-35089D01*
X58080Y-34993D01*
X58099Y-34917D01*
X58118Y-34879D01*
X58137Y-34860D01*
X58175Y-34841D01*
X58556Y-34841D02*
X58595Y-34841D01*
X58633Y-34860D01*
X58652Y-34879D01*
X58671Y-34917D01*
X58690Y-34993D01*
X58690Y-35089D01*
X58671Y-35165D01*
X58652Y-35203D01*
X58633Y-35222D01*
X58595Y-35241D01*
X58556Y-35241D01*
X58518Y-35222D01*
X58499Y-35203D01*
X58480Y-35165D01*
X58461Y-35089D01*
X58461Y-34993D01*
X58480Y-34917D01*
X58499Y-34879D01*
X58518Y-34860D01*
X58556Y-34841D01*
X59166Y-35241D02*
X59166Y-34841D01*
X59166Y-34993D02*
X59204Y-34974D01*
X59281Y-34974D01*
X59319Y-34993D01*
X59338Y-35012D01*
X59357Y-35050D01*
X59357Y-35165D01*
X59338Y-35203D01*
X59319Y-35222D01*
X59281Y-35241D01*
X59204Y-35241D01*
X59166Y-35222D01*
X59528Y-35241D02*
X59528Y-34974D01*
X59528Y-35050D02*
X59547Y-35012D01*
X59566Y-34993D01*
X59604Y-34974D01*
X59643Y-34974D01*
X59929Y-35222D02*
X59891Y-35241D01*
X59814Y-35241D01*
X59776Y-35222D01*
X59757Y-35184D01*
X59757Y-35031D01*
X59776Y-34993D01*
X59814Y-34974D01*
X59891Y-34974D01*
X59929Y-34993D01*
X59948Y-35031D01*
X59948Y-35069D01*
X59757Y-35108D01*
X60291Y-35241D02*
X60291Y-35031D01*
X60272Y-34993D01*
X60234Y-34974D01*
X60157Y-34974D01*
X60119Y-34993D01*
X60291Y-35222D02*
X60253Y-35241D01*
X60157Y-35241D01*
X60119Y-35222D01*
X60100Y-35184D01*
X60100Y-35146D01*
X60119Y-35108D01*
X60157Y-35089D01*
X60253Y-35089D01*
X60291Y-35069D01*
X60481Y-35241D02*
X60481Y-34841D01*
X60519Y-35089D02*
X60634Y-35241D01*
X60634Y-34974D02*
X60481Y-35127D01*
X60862Y-35241D02*
X60824Y-35222D01*
X60805Y-35203D01*
X60786Y-35165D01*
X60786Y-35050D01*
X60805Y-35012D01*
X60824Y-34993D01*
X60862Y-34974D01*
X60920Y-34974D01*
X60958Y-34993D01*
X60977Y-35012D01*
X60996Y-35050D01*
X60996Y-35165D01*
X60977Y-35203D01*
X60958Y-35222D01*
X60920Y-35241D01*
X60862Y-35241D01*
X61339Y-34974D02*
X61339Y-35241D01*
X61167Y-34974D02*
X61167Y-35184D01*
X61186Y-35222D01*
X61224Y-35241D01*
X61282Y-35241D01*
X61320Y-35222D01*
X61339Y-35203D01*
X61472Y-34974D02*
X61624Y-34974D01*
X61529Y-34841D02*
X61529Y-35184D01*
X61548Y-35222D01*
X61586Y-35241D01*
X61624Y-35241D01*
X51695Y-34800D02*
X51714Y-34781D01*
X51752Y-34762D01*
X51848Y-34762D01*
X51886Y-34781D01*
X51905Y-34800D01*
X51924Y-34838D01*
X51924Y-34876D01*
X51905Y-34933D01*
X51676Y-35162D01*
X51924Y-35162D01*
X52267Y-34895D02*
X52267Y-35162D01*
X52171Y-34743D02*
X52076Y-35029D01*
X52324Y-35029D01*
X62924Y-35162D02*
X62695Y-35162D01*
X62809Y-35162D02*
X62809Y-34762D01*
X62771Y-34819D01*
X62733Y-34857D01*
X62695Y-34876D01*
X63057Y-34762D02*
X63305Y-34762D01*
X63171Y-34914D01*
X63229Y-34914D01*
X63267Y-34933D01*
X63286Y-34952D01*
X63305Y-34990D01*
X63305Y-35086D01*
X63286Y-35124D01*
X63267Y-35143D01*
X63229Y-35162D01*
X63114Y-35162D01*
X63076Y-35143D01*
X63057Y-35124D01*
X62924Y-40162D02*
X62695Y-40162D01*
X62809Y-40162D02*
X62809Y-39762D01*
X62771Y-39819D01*
X62733Y-39857D01*
X62695Y-39876D01*
X63076Y-39800D02*
X63095Y-39781D01*
X63133Y-39762D01*
X63229Y-39762D01*
X63267Y-39781D01*
X63286Y-39800D01*
X63305Y-39838D01*
X63305Y-39876D01*
X63286Y-39933D01*
X63057Y-40162D01*
X63305Y-40162D01*
X52115Y-40162D02*
X51886Y-40162D01*
X52000Y-40162D02*
X52000Y-39762D01*
X51962Y-39819D01*
X51924Y-39857D01*
X51886Y-39876D01*
G54D12*
X62465Y-37071D02*
X62465Y-37366D01*
X62465Y-37366D02*
X63035Y-37366D01*
X63035Y-37071D02*
X63035Y-37366D01*
X62465Y-37071D02*
X63035Y-37071D01*
X62465Y-37640D02*
X62465Y-37935D01*
X62465Y-37935D02*
X63035Y-37935D01*
X63035Y-37640D02*
X63035Y-37935D01*
X62465Y-37640D02*
X63035Y-37640D01*
X62593Y-37461D02*
X62593Y-37539D01*
X62593Y-37539D02*
X62907Y-37539D01*
X62907Y-37461D02*
X62907Y-37539D01*
X62593Y-37461D02*
X62907Y-37461D01*
G54D13*
X63137Y-36724D02*
X63137Y-38276D01*
X62363Y-38276D02*
X62363Y-36724D01*
X62363Y-36724D02*
X63137Y-36724D01*
G54D14*
X63009Y-37350D02*
X63009Y-37650D01*
X62491Y-37360D02*
X62491Y-37650D01*
G54D13*
X63137Y-38276D02*
X62363Y-38276D01*
G54D12*
X51915Y-36830D02*
X51915Y-37126D01*
X51915Y-37126D02*
X52584Y-37126D01*
X52584Y-36830D02*
X52584Y-37126D01*
X51915Y-36830D02*
X52584Y-36830D01*
X51916Y-37874D02*
X51916Y-38170D01*
X51916Y-38170D02*
X52585Y-38170D01*
X52585Y-37874D02*
X52585Y-38170D01*
X51916Y-37874D02*
X52585Y-37874D01*
X52093Y-37422D02*
X52093Y-37578D01*
X52093Y-37578D02*
X52407Y-37578D01*
X52407Y-37422D02*
X52407Y-37578D01*
X52093Y-37422D02*
X52407Y-37422D01*
G54D13*
X52637Y-36527D02*
X52637Y-38473D01*
X51863Y-38473D02*
X51863Y-36527D01*
X51863Y-36527D02*
X52637Y-36527D01*
X52637Y-38473D02*
X51863Y-38473D01*
G54D14*
X52559Y-37121D02*
X52559Y-37879D01*
X51941Y-37121D02*
X51941Y-37879D01*
G54D10*
X52750Y-36500D02*
X51750Y-36500D01*
X51750Y-35500D02*
X52750Y-35500D01*
X51750Y-36500D02*
X51750Y-35500D01*
X52750Y-35500D02*
X52750Y-36500D01*
X63250Y-36750D02*
X62250Y-36750D01*
X62250Y-35750D02*
X63250Y-35750D01*
X62250Y-36750D02*
X62250Y-35750D01*
X63250Y-35750D02*
X63250Y-36750D01*
X52750Y-39500D02*
X51750Y-39500D01*
X51750Y-38500D02*
X52750Y-38500D01*
X51750Y-39500D02*
X51750Y-38500D01*
X52750Y-38500D02*
X52750Y-39500D01*
X63250Y-39250D02*
X62250Y-39250D01*
X62250Y-38250D02*
X63250Y-38250D01*
X62250Y-39250D02*
X62250Y-38250D01*
X63250Y-38250D02*
X63250Y-39250D01*
G54D15*
X51500Y-34500D02*
X51500Y-34500D01*
X51500Y-34500D02*
X51500Y-33500D01*
X51500Y-33500D02*
X61500Y-33500D01*
X61500Y-34500D02*
X51500Y-34500D01*
X52500Y-34500D02*
X52500Y-33500D01*
X61500Y-33500D02*
X63250Y-33500D01*
X63250Y-33500D02*
X63500Y-33500D01*
X63500Y-33500D02*
X63500Y-34500D01*
X63500Y-34500D02*
X61500Y-34500D01*
X51500Y-41500D02*
X51500Y-41500D01*
X51500Y-41500D02*
X51500Y-40500D01*
X51500Y-40500D02*
X61500Y-40500D01*
X61500Y-41500D02*
X51500Y-41500D01*
X52500Y-41500D02*
X52500Y-40500D01*
X61500Y-40500D02*
X63250Y-40500D01*
X63250Y-40500D02*
X63500Y-40500D01*
X63500Y-40500D02*
X63500Y-41500D01*
X63500Y-41500D02*
X61500Y-41500D01*
G54D16*
X55492Y-38287D02*
X55489Y-38317D01*
X55480Y-38346D01*
X55465Y-38373D01*
X55446Y-38397D01*
X55422Y-38417D01*
X55395Y-38431D01*
X55366Y-38440D01*
X55336Y-38443D01*
X55306Y-38441D01*
X55277Y-38432D01*
X55250Y-38418D01*
X55226Y-38399D01*
X55206Y-38375D01*
X55191Y-38348D01*
X55182Y-38319D01*
X55179Y-38289D01*
X55181Y-38259D01*
X55190Y-38230D01*
X55204Y-38202D01*
X55223Y-38178D01*
X55246Y-38159D01*
X55273Y-38144D01*
X55302Y-38134D01*
X55332Y-38131D01*
X55362Y-38133D01*
X55391Y-38141D01*
X55419Y-38155D01*
X55443Y-38174D01*
X55463Y-38197D01*
X55478Y-38224D01*
X55488Y-38253D01*
X55491Y-38283D01*
X55492Y-38287D01*
X55413Y-38288D02*
X55411Y-38303D01*
X55407Y-38317D01*
X55399Y-38331D01*
X55390Y-38342D01*
X55378Y-38352D01*
X55365Y-38359D01*
X55350Y-38364D01*
X55335Y-38365D01*
X55321Y-38364D01*
X55306Y-38360D01*
X55293Y-38353D01*
X55281Y-38343D01*
X55271Y-38332D01*
X55264Y-38318D01*
X55259Y-38304D01*
X55258Y-38289D01*
X55259Y-38274D01*
X55263Y-38260D01*
X55270Y-38246D01*
X55279Y-38234D01*
X55291Y-38224D01*
X55304Y-38217D01*
X55319Y-38212D01*
X55334Y-38211D01*
X55348Y-38212D01*
X55363Y-38216D01*
X55376Y-38223D01*
X55388Y-38232D01*
X55398Y-38244D01*
X55406Y-38257D01*
X55411Y-38271D01*
X55412Y-38286D01*
X55413Y-38288D01*
X54941Y-36319D02*
X60059Y-36319D01*
X60059Y-36319D02*
X60059Y-38681D01*
X60059Y-38681D02*
X54941Y-38681D01*
X54941Y-38681D02*
X54941Y-36319D01*
G54D17*
G36*
X60611Y-39409D02*
X60620Y-39404D01*
X60641Y-39391D01*
X60670Y-39372D01*
X60705Y-39349D01*
X60739Y-39325D01*
X60768Y-39306D01*
X60788Y-39293D01*
X60796Y-39289D01*
X60801Y-39290D01*
X60817Y-39298D01*
X60841Y-39311D01*
X60855Y-39318D01*
X60877Y-39327D01*
X60888Y-39329D01*
X60890Y-39326D01*
X60898Y-39310D01*
X60910Y-39281D01*
X60927Y-39243D01*
X60946Y-39198D01*
X60966Y-39150D01*
X60987Y-39102D01*
X61006Y-39055D01*
X61023Y-39013D01*
X61037Y-38979D01*
X61046Y-38955D01*
X61049Y-38945D01*
X61048Y-38943D01*
X61037Y-38932D01*
X61018Y-38918D01*
X60977Y-38884D01*
X60936Y-38833D01*
X60911Y-38775D01*
X60902Y-38710D01*
X60909Y-38651D01*
X60933Y-38594D01*
X60973Y-38542D01*
X61022Y-38504D01*
X61078Y-38479D01*
X61142Y-38471D01*
X61203Y-38478D01*
X61261Y-38501D01*
X61313Y-38541D01*
X61335Y-38566D01*
X61365Y-38618D01*
X61382Y-38674D01*
X61384Y-38688D01*
X61381Y-38750D01*
X61363Y-38809D01*
X61331Y-38861D01*
X61286Y-38905D01*
X61280Y-38909D01*
X61259Y-38924D01*
X61245Y-38935D01*
X61234Y-38944D01*
X61312Y-39133D01*
X61325Y-39163D01*
X61346Y-39214D01*
X61365Y-39259D01*
X61381Y-39294D01*
X61391Y-39318D01*
X61396Y-39327D01*
X61396Y-39328D01*
X61403Y-39329D01*
X61417Y-39324D01*
X61444Y-39311D01*
X61461Y-39302D01*
X61481Y-39292D01*
X61490Y-39289D01*
X61498Y-39293D01*
X61517Y-39305D01*
X61545Y-39324D01*
X61579Y-39347D01*
X61611Y-39369D01*
X61640Y-39388D01*
X61662Y-39402D01*
X61672Y-39408D01*
X61674Y-39408D01*
X61683Y-39403D01*
X61700Y-39388D01*
X61726Y-39364D01*
X61762Y-39328D01*
X61768Y-39323D01*
X61798Y-39292D01*
X61822Y-39267D01*
X61838Y-39249D01*
X61844Y-39240D01*
X61844Y-39240D01*
X61839Y-39230D01*
X61825Y-39209D01*
X61806Y-39179D01*
X61782Y-39144D01*
X61719Y-39053D01*
X61754Y-38967D01*
X61764Y-38941D01*
X61778Y-38909D01*
X61788Y-38887D01*
X61793Y-38877D01*
X61802Y-38873D01*
X61825Y-38868D01*
X61859Y-38861D01*
X61900Y-38853D01*
X61939Y-38846D01*
X61973Y-38839D01*
X61999Y-38834D01*
X62010Y-38832D01*
X62013Y-38831D01*
X62015Y-38825D01*
X62016Y-38813D01*
X62017Y-38792D01*
X62018Y-38759D01*
X62018Y-38710D01*
X62018Y-38705D01*
X62017Y-38659D01*
X62017Y-38622D01*
X62015Y-38599D01*
X62014Y-38589D01*
X62014Y-38589D01*
X62003Y-38587D01*
X61978Y-38581D01*
X61943Y-38575D01*
X61902Y-38567D01*
X61899Y-38566D01*
X61858Y-38558D01*
X61823Y-38551D01*
X61799Y-38545D01*
X61788Y-38542D01*
X61786Y-38539D01*
X61778Y-38523D01*
X61766Y-38497D01*
X61752Y-38466D01*
X61739Y-38433D01*
X61727Y-38404D01*
X61719Y-38382D01*
X61717Y-38372D01*
X61717Y-38372D01*
X61723Y-38362D01*
X61737Y-38341D01*
X61757Y-38311D01*
X61782Y-38276D01*
X61783Y-38273D01*
X61807Y-38238D01*
X61827Y-38208D01*
X61839Y-38187D01*
X61844Y-38178D01*
X61844Y-38177D01*
X61836Y-38167D01*
X61818Y-38147D01*
X61793Y-38120D01*
X61762Y-38089D01*
X61752Y-38079D01*
X61718Y-38046D01*
X61695Y-38024D01*
X61680Y-38013D01*
X61673Y-38010D01*
X61673Y-38010D01*
X61662Y-38017D01*
X61640Y-38031D01*
X61610Y-38052D01*
X61574Y-38076D01*
X61572Y-38077D01*
X61537Y-38101D01*
X61508Y-38121D01*
X61487Y-38135D01*
X61478Y-38140D01*
X61476Y-38140D01*
X61462Y-38136D01*
X61437Y-38127D01*
X61407Y-38115D01*
X61374Y-38102D01*
X61345Y-38090D01*
X61323Y-38080D01*
X61312Y-38074D01*
X61312Y-38073D01*
X61308Y-38061D01*
X61302Y-38035D01*
X61295Y-37999D01*
X61287Y-37956D01*
X61285Y-37949D01*
X61277Y-37907D01*
X61271Y-37873D01*
X61266Y-37849D01*
X61263Y-37839D01*
X61257Y-37838D01*
X61237Y-37836D01*
X61206Y-37835D01*
X61168Y-37835D01*
X61129Y-37835D01*
X61090Y-37836D01*
X61057Y-37837D01*
X61034Y-37839D01*
X61024Y-37841D01*
X61023Y-37841D01*
X61020Y-37854D01*
X61014Y-37880D01*
X61007Y-37917D01*
X60998Y-37960D01*
X60997Y-37967D01*
X60989Y-38009D01*
X60982Y-38043D01*
X60977Y-38067D01*
X60974Y-38076D01*
X60971Y-38078D01*
X60953Y-38085D01*
X60925Y-38097D01*
X60891Y-38111D01*
X60811Y-38143D01*
X60712Y-38076D01*
X60703Y-38070D01*
X60668Y-38046D01*
X60639Y-38026D01*
X60619Y-38013D01*
X60610Y-38009D01*
X60610Y-38009D01*
X60600Y-38018D01*
X60580Y-38036D01*
X60554Y-38062D01*
X60523Y-38093D01*
X60500Y-38115D01*
X60473Y-38143D01*
X60455Y-38162D01*
X60446Y-38174D01*
X60443Y-38181D01*
X60444Y-38186D01*
X60450Y-38196D01*
X60464Y-38217D01*
X60485Y-38247D01*
X60509Y-38282D01*
X60528Y-38311D01*
X60550Y-38344D01*
X60564Y-38368D01*
X60568Y-38379D01*
X60567Y-38384D01*
X60560Y-38403D01*
X60549Y-38432D01*
X60534Y-38467D01*
X60500Y-38545D01*
X60449Y-38555D01*
X60418Y-38560D01*
X60374Y-38569D01*
X60333Y-38577D01*
X60268Y-38589D01*
X60266Y-38826D01*
X60276Y-38830D01*
X60286Y-38833D01*
X60310Y-38838D01*
X60344Y-38845D01*
X60384Y-38853D01*
X60418Y-38859D01*
X60453Y-38866D01*
X60478Y-38871D01*
X60489Y-38873D01*
X60492Y-38877D01*
X60500Y-38893D01*
X60513Y-38920D01*
X60526Y-38952D01*
X60540Y-38985D01*
X60552Y-39016D01*
X60561Y-39039D01*
X60564Y-39052D01*
X60559Y-39061D01*
X60546Y-39081D01*
X60527Y-39110D01*
X60504Y-39144D01*
X60480Y-39179D01*
X60460Y-39208D01*
X60447Y-39229D01*
X60441Y-39239D01*
X60444Y-39246D01*
X60457Y-39262D01*
X60483Y-39289D01*
X60522Y-39327D01*
X60528Y-39333D01*
X60559Y-39363D01*
X60585Y-39387D01*
X60603Y-39403D01*
X60611Y-39409D01*
X60611Y-39409D01*
G37*
G36*
X61438Y-37045D02*
X61457Y-37042D01*
X61476Y-37036D01*
X61484Y-37032D01*
X61500Y-37020D01*
X61514Y-37006D01*
X61524Y-36989D01*
X61530Y-36971D01*
X61533Y-36952D01*
X61533Y-36933D01*
X61528Y-36914D01*
X61519Y-36895D01*
X61514Y-36887D01*
X61505Y-36878D01*
X61496Y-36870D01*
X61488Y-36864D01*
X61485Y-36862D01*
X61468Y-36854D01*
X61451Y-36850D01*
X61431Y-36849D01*
X61425Y-36849D01*
X61414Y-36851D01*
X61405Y-36853D01*
X61394Y-36858D01*
X61383Y-36864D01*
X61367Y-36877D01*
X61354Y-36892D01*
X61344Y-36910D01*
X61342Y-36919D01*
X61339Y-36928D01*
X61338Y-36936D01*
X61338Y-36937D01*
X61338Y-36937D01*
X61337Y-36933D01*
X61337Y-36932D01*
X61334Y-36920D01*
X61329Y-36907D01*
X61323Y-36896D01*
X61312Y-36881D01*
X61297Y-36867D01*
X61280Y-36857D01*
X61261Y-36851D01*
X61240Y-36849D01*
X61235Y-36849D01*
X61219Y-36851D01*
X61204Y-36855D01*
X61202Y-36856D01*
X61185Y-36865D01*
X61170Y-36878D01*
X61158Y-36892D01*
X61149Y-36909D01*
X61144Y-36926D01*
X61143Y-36927D01*
X61142Y-36932D01*
X61142Y-36934D01*
X61142Y-36934D01*
X61142Y-36931D01*
X61140Y-36926D01*
X61140Y-36924D01*
X61134Y-36907D01*
X61125Y-36891D01*
X61112Y-36876D01*
X61101Y-36866D01*
X61083Y-36856D01*
X61065Y-36851D01*
X61044Y-36849D01*
X61029Y-36850D01*
X61010Y-36855D01*
X60992Y-36864D01*
X60976Y-36876D01*
X60963Y-36892D01*
X60962Y-36894D01*
X60958Y-36901D01*
X60954Y-36907D01*
X60953Y-36912D01*
X60950Y-36921D01*
X60948Y-36929D01*
X60947Y-36936D01*
X60947Y-36937D01*
X60946Y-36937D01*
X60946Y-36933D01*
X60943Y-36922D01*
X60939Y-36909D01*
X60933Y-36897D01*
X60921Y-36881D01*
X60906Y-36867D01*
X60889Y-36857D01*
X60870Y-36851D01*
X60849Y-36849D01*
X60831Y-36850D01*
X60811Y-36856D01*
X60794Y-36865D01*
X60778Y-36879D01*
X60771Y-36887D01*
X60763Y-36898D01*
X60757Y-36910D01*
X60754Y-36921D01*
X60751Y-36940D01*
X60751Y-36959D01*
X60756Y-36978D01*
X60763Y-36995D01*
X60774Y-37010D01*
X60787Y-37023D01*
X60803Y-37034D01*
X60821Y-37041D01*
X60841Y-37044D01*
X60843Y-37044D01*
X60863Y-37044D01*
X60881Y-37039D01*
X60899Y-37030D01*
X60906Y-37026D01*
X60919Y-37015D01*
X60930Y-37001D01*
X60938Y-36986D01*
X60941Y-36981D01*
X60943Y-36972D01*
X60945Y-36964D01*
X60946Y-36957D01*
X60946Y-36953D01*
X60947Y-36957D01*
X60947Y-36960D01*
X60949Y-36969D01*
X60952Y-36979D01*
X60955Y-36987D01*
X60960Y-36996D01*
X60972Y-37012D01*
X60987Y-37026D01*
X61004Y-37036D01*
X61023Y-37043D01*
X61027Y-37043D01*
X61040Y-37044D01*
X61054Y-37044D01*
X61067Y-37042D01*
X61080Y-37038D01*
X61099Y-37028D01*
X61115Y-37015D01*
X61116Y-37014D01*
X61127Y-37000D01*
X61135Y-36983D01*
X61140Y-36967D01*
X61141Y-36966D01*
X61142Y-36961D01*
X61142Y-36959D01*
X61142Y-36961D01*
X61143Y-36965D01*
X61143Y-36966D01*
X61146Y-36976D01*
X61151Y-36988D01*
X61156Y-36998D01*
X61165Y-37010D01*
X61180Y-37024D01*
X61197Y-37035D01*
X61216Y-37042D01*
X61220Y-37043D01*
X61233Y-37044D01*
X61247Y-37044D01*
X61260Y-37043D01*
X61271Y-37040D01*
X61289Y-37031D01*
X61305Y-37019D01*
X61319Y-37004D01*
X61329Y-36987D01*
X61331Y-36981D01*
X61334Y-36972D01*
X61336Y-36964D01*
X61337Y-36957D01*
X61337Y-36956D01*
X61337Y-36956D01*
X61338Y-36960D01*
X61338Y-36961D01*
X61341Y-36973D01*
X61346Y-36986D01*
X61352Y-36998D01*
X61354Y-37002D01*
X61367Y-37016D01*
X61382Y-37029D01*
X61399Y-37038D01*
X61418Y-37043D01*
X61438Y-37045D01*
X61438Y-37045D01*
G37*
G36*
X60646Y-36849D02*
X60658Y-36848D01*
X60669Y-36847D01*
X60683Y-36844D01*
X60701Y-36836D01*
X60717Y-36824D01*
X60731Y-36809D01*
X60741Y-36792D01*
X60748Y-36774D01*
X60750Y-36754D01*
X60749Y-36734D01*
X60744Y-36715D01*
X60735Y-36698D01*
X60723Y-36682D01*
X60707Y-36669D01*
X60702Y-36666D01*
X60683Y-36657D01*
X60663Y-36653D01*
X60643Y-36653D01*
X60623Y-36657D01*
X60607Y-36664D01*
X60590Y-36675D01*
X60576Y-36690D01*
X60565Y-36707D01*
X60557Y-36727D01*
X60555Y-36736D01*
X60555Y-36749D01*
X60555Y-36762D01*
X60557Y-36772D01*
X60558Y-36776D01*
X60565Y-36796D01*
X60577Y-36813D01*
X60592Y-36827D01*
X60609Y-36839D01*
X60618Y-36842D01*
X60629Y-36846D01*
X60639Y-36848D01*
X60646Y-36849D01*
X60646Y-36849D01*
G37*
G36*
X61634Y-36849D02*
X61654Y-36846D01*
X61673Y-36839D01*
X61692Y-36828D01*
X61695Y-36825D01*
X61709Y-36811D01*
X61720Y-36794D01*
X61727Y-36775D01*
X61729Y-36765D01*
X61729Y-36752D01*
X61729Y-36739D01*
X61727Y-36729D01*
X61726Y-36724D01*
X61718Y-36705D01*
X61707Y-36688D01*
X61693Y-36674D01*
X61676Y-36663D01*
X61657Y-36656D01*
X61637Y-36653D01*
X61629Y-36652D01*
X61610Y-36655D01*
X61591Y-36661D01*
X61575Y-36671D01*
X61560Y-36683D01*
X61549Y-36698D01*
X61540Y-36716D01*
X61535Y-36735D01*
X61534Y-36755D01*
X61535Y-36767D01*
X61537Y-36778D01*
X61541Y-36789D01*
X61549Y-36804D01*
X61562Y-36819D01*
X61577Y-36832D01*
X61595Y-36841D01*
X61614Y-36847D01*
X61634Y-36849D01*
X61634Y-36849D01*
G37*
G36*
X60451Y-36652D02*
X60465Y-36652D01*
X60477Y-36651D01*
X60491Y-36646D01*
X60509Y-36637D01*
X60525Y-36624D01*
X60536Y-36612D01*
X60546Y-36595D01*
X60552Y-36576D01*
X60554Y-36568D01*
X60554Y-36556D01*
X60554Y-36544D01*
X60553Y-36534D01*
X60551Y-36528D01*
X60543Y-36509D01*
X60532Y-36492D01*
X60517Y-36478D01*
X60500Y-36467D01*
X60493Y-36464D01*
X60480Y-36459D01*
X60468Y-36457D01*
X60453Y-36457D01*
X60444Y-36458D01*
X60433Y-36459D01*
X60423Y-36462D01*
X60413Y-36467D01*
X60406Y-36470D01*
X60390Y-36482D01*
X60377Y-36497D01*
X60366Y-36515D01*
X60360Y-36535D01*
X60359Y-36540D01*
X60359Y-36551D01*
X60359Y-36564D01*
X60360Y-36574D01*
X60362Y-36581D01*
X60369Y-36600D01*
X60381Y-36617D01*
X60395Y-36631D01*
X60412Y-36642D01*
X60432Y-36650D01*
X60438Y-36651D01*
X60451Y-36652D01*
X60451Y-36652D01*
G37*
G36*
X61237Y-36652D02*
X61257Y-36651D01*
X61275Y-36646D01*
X61286Y-36641D01*
X61303Y-36629D01*
X61317Y-36615D01*
X61328Y-36597D01*
X61335Y-36578D01*
X61336Y-36574D01*
X61338Y-36558D01*
X61337Y-36543D01*
X61333Y-36526D01*
X61325Y-36507D01*
X61314Y-36491D01*
X61299Y-36477D01*
X61282Y-36466D01*
X61262Y-36459D01*
X61249Y-36456D01*
X61256Y-36455D01*
X61257Y-36455D01*
X61271Y-36451D01*
X61286Y-36445D01*
X61300Y-36436D01*
X61302Y-36434D01*
X61316Y-36420D01*
X61327Y-36403D01*
X61334Y-36385D01*
X61337Y-36366D01*
X61337Y-36347D01*
X61332Y-36328D01*
X61324Y-36310D01*
X61324Y-36309D01*
X61311Y-36293D01*
X61297Y-36280D01*
X61280Y-36270D01*
X61262Y-36264D01*
X61243Y-36262D01*
X61224Y-36263D01*
X61206Y-36267D01*
X61188Y-36276D01*
X61172Y-36288D01*
X61163Y-36298D01*
X61154Y-36312D01*
X61147Y-36327D01*
X61143Y-36342D01*
X61142Y-36345D01*
X61142Y-36347D01*
X61142Y-36346D01*
X61141Y-36342D01*
X61138Y-36329D01*
X61132Y-36315D01*
X61123Y-36301D01*
X61119Y-36295D01*
X61104Y-36281D01*
X61087Y-36271D01*
X61068Y-36264D01*
X61048Y-36261D01*
X61028Y-36263D01*
X61016Y-36266D01*
X60997Y-36274D01*
X60981Y-36285D01*
X60967Y-36300D01*
X60956Y-36317D01*
X60949Y-36336D01*
X60947Y-36346D01*
X60947Y-36365D01*
X60950Y-36385D01*
X60957Y-36403D01*
X60968Y-36420D01*
X60982Y-36434D01*
X61000Y-36446D01*
X61007Y-36449D01*
X61016Y-36452D01*
X61025Y-36455D01*
X61031Y-36456D01*
X61032Y-36456D01*
X61032Y-36456D01*
X61027Y-36458D01*
X61018Y-36460D01*
X61005Y-36465D01*
X60994Y-36471D01*
X60987Y-36475D01*
X60974Y-36486D01*
X60963Y-36500D01*
X60954Y-36515D01*
X60949Y-36531D01*
X60947Y-36549D01*
X60947Y-36566D01*
X60948Y-36569D01*
X60953Y-36590D01*
X60962Y-36608D01*
X60976Y-36624D01*
X60986Y-36633D01*
X61004Y-36644D01*
X61023Y-36651D01*
X61031Y-36652D01*
X61041Y-36652D01*
X61053Y-36652D01*
X61063Y-36651D01*
X61071Y-36649D01*
X61078Y-36647D01*
X61097Y-36638D01*
X61113Y-36625D01*
X61126Y-36609D01*
X61131Y-36601D01*
X61137Y-36588D01*
X61140Y-36575D01*
X61141Y-36574D01*
X61142Y-36569D01*
X61142Y-36567D01*
X61142Y-36567D01*
X61142Y-36542D01*
X61142Y-36542D01*
X61142Y-36539D01*
X61140Y-36534D01*
X61140Y-36533D01*
X61134Y-36515D01*
X61125Y-36499D01*
X61112Y-36484D01*
X61098Y-36472D01*
X61081Y-36463D01*
X61080Y-36463D01*
X61071Y-36460D01*
X61063Y-36458D01*
X61054Y-36456D01*
X61063Y-36455D01*
X61074Y-36452D01*
X61092Y-36444D01*
X61108Y-36433D01*
X61122Y-36419D01*
X61132Y-36403D01*
X61136Y-36395D01*
X61139Y-36385D01*
X61141Y-36376D01*
X61142Y-36373D01*
X61142Y-36371D01*
X61142Y-36372D01*
X61143Y-36376D01*
X61145Y-36384D01*
X61148Y-36394D01*
X61152Y-36403D01*
X61158Y-36413D01*
X61171Y-36428D01*
X61186Y-36441D01*
X61203Y-36450D01*
X61222Y-36455D01*
X61230Y-36456D01*
X61221Y-36458D01*
X61220Y-36458D01*
X61211Y-36461D01*
X61203Y-36463D01*
X61201Y-36464D01*
X61185Y-36473D01*
X61170Y-36485D01*
X61158Y-36500D01*
X61149Y-36517D01*
X61144Y-36534D01*
X61143Y-36535D01*
X61142Y-36540D01*
X61142Y-36542D01*
X61142Y-36567D01*
X61142Y-36567D01*
X61142Y-36570D01*
X61144Y-36575D01*
X61147Y-36588D01*
X61155Y-36605D01*
X61167Y-36621D01*
X61182Y-36634D01*
X61199Y-36644D01*
X61199Y-36644D01*
X61217Y-36650D01*
X61237Y-36652D01*
X61237Y-36652D01*
G37*
G36*
X61820Y-36652D02*
X61836Y-36652D01*
X61851Y-36650D01*
X61860Y-36647D01*
X61879Y-36638D01*
X61895Y-36626D01*
X61908Y-36611D01*
X61917Y-36594D01*
X61923Y-36575D01*
X61926Y-36555D01*
X61925Y-36546D01*
X61922Y-36526D01*
X61914Y-36507D01*
X61901Y-36490D01*
X61898Y-36486D01*
X61884Y-36474D01*
X61868Y-36465D01*
X61850Y-36459D01*
X61850Y-36459D01*
X61835Y-36457D01*
X61820Y-36457D01*
X61805Y-36459D01*
X61799Y-36461D01*
X61781Y-36468D01*
X61765Y-36479D01*
X61751Y-36493D01*
X61741Y-36509D01*
X61733Y-36527D01*
X61730Y-36546D01*
X61730Y-36566D01*
X61735Y-36586D01*
X61741Y-36600D01*
X61752Y-36617D01*
X61767Y-36631D01*
X61784Y-36642D01*
X61803Y-36649D01*
X61805Y-36650D01*
X61820Y-36652D01*
X61820Y-36652D01*
G37*
G36*
X60852Y-36066D02*
X60871Y-36063D01*
X60890Y-36056D01*
X60899Y-36052D01*
X60907Y-36046D01*
X60917Y-36037D01*
X60927Y-36026D01*
X60937Y-36010D01*
X60944Y-35991D01*
X60945Y-35986D01*
X60946Y-35973D01*
X60946Y-35959D01*
X60945Y-35947D01*
X60939Y-35931D01*
X60930Y-35913D01*
X60918Y-35899D01*
X60916Y-35897D01*
X60907Y-35889D01*
X60897Y-35882D01*
X60887Y-35877D01*
X60883Y-35876D01*
X60875Y-35873D01*
X60867Y-35871D01*
X60862Y-35870D01*
X60858Y-35870D01*
X60862Y-35869D01*
X60867Y-35868D01*
X60873Y-35866D01*
X60880Y-35864D01*
X60895Y-35858D01*
X60909Y-35848D01*
X60921Y-35838D01*
X60923Y-35836D01*
X60934Y-35819D01*
X60942Y-35800D01*
X60946Y-35781D01*
X60946Y-35761D01*
X60945Y-35756D01*
X60940Y-35736D01*
X60931Y-35718D01*
X60917Y-35702D01*
X60905Y-35692D01*
X60889Y-35682D01*
X60869Y-35675D01*
X60866Y-35675D01*
X60852Y-35674D01*
X60838Y-35674D01*
X60826Y-35676D01*
X60815Y-35679D01*
X60797Y-35688D01*
X60781Y-35700D01*
X60768Y-35715D01*
X60758Y-35732D01*
X60753Y-35751D01*
X60752Y-35753D01*
X60751Y-35758D01*
X60750Y-35759D01*
X60749Y-35757D01*
X60749Y-35753D01*
X60747Y-35745D01*
X60744Y-35736D01*
X60741Y-35728D01*
X60738Y-35723D01*
X60725Y-35706D01*
X60710Y-35692D01*
X60693Y-35682D01*
X60674Y-35676D01*
X60653Y-35674D01*
X60637Y-35675D01*
X60618Y-35679D01*
X60601Y-35688D01*
X60591Y-35695D01*
X60577Y-35709D01*
X60566Y-35726D01*
X60558Y-35744D01*
X60555Y-35763D01*
X60555Y-35783D01*
X60559Y-35801D01*
X60567Y-35820D01*
X60579Y-35836D01*
X60594Y-35850D01*
X60612Y-35860D01*
X60632Y-35867D01*
X60643Y-35870D01*
X60637Y-35871D01*
X60632Y-35871D01*
X60617Y-35876D01*
X60601Y-35884D01*
X60587Y-35895D01*
X60575Y-35907D01*
X60569Y-35917D01*
X60562Y-35930D01*
X60557Y-35943D01*
X60555Y-35954D01*
X60555Y-35966D01*
X60555Y-35979D01*
X60557Y-35989D01*
X60560Y-36000D01*
X60569Y-36019D01*
X60582Y-36035D01*
X60597Y-36048D01*
X60615Y-36058D01*
X60636Y-36064D01*
X60641Y-36065D01*
X60653Y-36065D01*
X60666Y-36064D01*
X60677Y-36062D01*
X60685Y-36060D01*
X60703Y-36051D01*
X60719Y-36039D01*
X60733Y-36024D01*
X60742Y-36006D01*
X60749Y-35987D01*
X60749Y-35985D01*
X60750Y-35981D01*
X60751Y-35981D01*
X60751Y-35955D01*
X60750Y-35954D01*
X60749Y-35950D01*
X60749Y-35949D01*
X60745Y-35936D01*
X60739Y-35922D01*
X60731Y-35909D01*
X60725Y-35902D01*
X60710Y-35888D01*
X60692Y-35878D01*
X60672Y-35871D01*
X60663Y-35870D01*
X60670Y-35868D01*
X60675Y-35867D01*
X60682Y-35865D01*
X60686Y-35864D01*
X60703Y-35855D01*
X60719Y-35843D01*
X60732Y-35828D01*
X60742Y-35811D01*
X60748Y-35792D01*
X60749Y-35787D01*
X60750Y-35785D01*
X60751Y-35786D01*
X60753Y-35793D01*
X60753Y-35793D01*
X60756Y-35803D01*
X60761Y-35815D01*
X60767Y-35826D01*
X60772Y-35832D01*
X60780Y-35841D01*
X60790Y-35850D01*
X60800Y-35857D01*
X60800Y-35857D01*
X60815Y-35864D01*
X60831Y-35868D01*
X60838Y-35870D01*
X60830Y-35871D01*
X60813Y-35876D01*
X60795Y-35885D01*
X60780Y-35897D01*
X60767Y-35912D01*
X60764Y-35917D01*
X60760Y-35927D01*
X60756Y-35936D01*
X60753Y-35945D01*
X60752Y-35952D01*
X60752Y-35952D01*
X60751Y-35955D01*
X60751Y-35981D01*
X60751Y-35981D01*
X60752Y-35986D01*
X60753Y-35991D01*
X60755Y-35998D01*
X60759Y-36008D01*
X60769Y-36025D01*
X60782Y-36039D01*
X60797Y-36051D01*
X60814Y-36059D01*
X60832Y-36064D01*
X60852Y-36066D01*
X60852Y-36066D01*
G37*
G36*
X61441Y-36066D02*
X61460Y-36062D01*
X61478Y-36056D01*
X61495Y-36045D01*
X61509Y-36032D01*
X61521Y-36016D01*
X61529Y-35998D01*
X61531Y-35991D01*
X61532Y-35986D01*
X61532Y-35985D01*
X61533Y-35981D01*
X61533Y-35981D01*
X61533Y-35954D01*
X61532Y-35951D01*
X61531Y-35944D01*
X61527Y-35933D01*
X61519Y-35915D01*
X61507Y-35900D01*
X61492Y-35887D01*
X61474Y-35877D01*
X61455Y-35871D01*
X61446Y-35870D01*
X61453Y-35868D01*
X61453Y-35868D01*
X61469Y-35863D01*
X61484Y-35857D01*
X61491Y-35852D01*
X61500Y-35844D01*
X61510Y-35835D01*
X61517Y-35826D01*
X61522Y-35817D01*
X61528Y-35804D01*
X61531Y-35793D01*
X61532Y-35787D01*
X61533Y-35785D01*
X61534Y-35786D01*
X61536Y-35792D01*
X61539Y-35805D01*
X61548Y-35823D01*
X61561Y-35839D01*
X61576Y-35852D01*
X61594Y-35862D01*
X61614Y-35868D01*
X61621Y-35870D01*
X61612Y-35871D01*
X61603Y-35874D01*
X61584Y-35882D01*
X61567Y-35894D01*
X61553Y-35909D01*
X61549Y-35915D01*
X61544Y-35923D01*
X61539Y-35934D01*
X61537Y-35941D01*
X61535Y-35949D01*
X61535Y-35949D01*
X61534Y-35953D01*
X61533Y-35954D01*
X61533Y-35981D01*
X61534Y-35982D01*
X61535Y-35987D01*
X61537Y-35993D01*
X61542Y-36008D01*
X61550Y-36022D01*
X61556Y-36030D01*
X61570Y-36044D01*
X61588Y-36055D01*
X61608Y-36063D01*
X61616Y-36064D01*
X61630Y-36065D01*
X61644Y-36065D01*
X61656Y-36063D01*
X61657Y-36062D01*
X61677Y-36054D01*
X61694Y-36043D01*
X61708Y-36029D01*
X61719Y-36011D01*
X61727Y-35991D01*
X61729Y-35983D01*
X61729Y-35969D01*
X61729Y-35955D01*
X61727Y-35943D01*
X61723Y-35933D01*
X61716Y-35919D01*
X61709Y-35907D01*
X61700Y-35897D01*
X61688Y-35887D01*
X61675Y-35880D01*
X61670Y-35877D01*
X61661Y-35874D01*
X61652Y-35871D01*
X61645Y-35870D01*
X61644Y-35870D01*
X61647Y-35869D01*
X61652Y-35867D01*
X61664Y-35864D01*
X61676Y-35859D01*
X61687Y-35852D01*
X61689Y-35851D01*
X61702Y-35839D01*
X61713Y-35826D01*
X61722Y-35811D01*
X61724Y-35804D01*
X61729Y-35784D01*
X61729Y-35764D01*
X61726Y-35744D01*
X61725Y-35740D01*
X61716Y-35722D01*
X61704Y-35706D01*
X61689Y-35692D01*
X61672Y-35682D01*
X61653Y-35675D01*
X61650Y-35675D01*
X61636Y-35674D01*
X61622Y-35674D01*
X61609Y-35676D01*
X61606Y-35677D01*
X61586Y-35684D01*
X61569Y-35696D01*
X61555Y-35710D01*
X61543Y-35728D01*
X61541Y-35734D01*
X61538Y-35743D01*
X61536Y-35751D01*
X61535Y-35757D01*
X61535Y-35759D01*
X61534Y-35759D01*
X61533Y-35757D01*
X61532Y-35751D01*
X61528Y-35738D01*
X61520Y-35721D01*
X61508Y-35705D01*
X61493Y-35692D01*
X61476Y-35682D01*
X61476Y-35682D01*
X61458Y-35676D01*
X61438Y-35674D01*
X61418Y-35675D01*
X61400Y-35680D01*
X61389Y-35685D01*
X61372Y-35697D01*
X61358Y-35711D01*
X61347Y-35729D01*
X61340Y-35748D01*
X61339Y-35752D01*
X61337Y-35768D01*
X61338Y-35783D01*
X61342Y-35801D01*
X61350Y-35820D01*
X61362Y-35836D01*
X61377Y-35850D01*
X61395Y-35860D01*
X61415Y-35867D01*
X61419Y-35868D01*
X61422Y-35870D01*
X61422Y-35870D01*
X61416Y-35871D01*
X61405Y-35874D01*
X61393Y-35879D01*
X61382Y-35886D01*
X61371Y-35894D01*
X61357Y-35909D01*
X61346Y-35927D01*
X61345Y-35930D01*
X61339Y-35949D01*
X61338Y-35969D01*
X61340Y-35989D01*
X61346Y-36008D01*
X61351Y-36017D01*
X61357Y-36026D01*
X61365Y-36035D01*
X61366Y-36036D01*
X61382Y-36049D01*
X61399Y-36059D01*
X61419Y-36064D01*
X61421Y-36064D01*
X61441Y-36066D01*
X61441Y-36066D01*
G37*
%LPC*%
G54D18*
X62750Y-37126D03*
X62750Y-37874D03*
G54D19*
X52250Y-36949D03*
X52250Y-38051D03*
G54D20*
X52250Y-36000D03*
X62750Y-36250D03*
X52250Y-39000D03*
X62750Y-38750D03*
G54D21*
X52000Y-34000D03*
G54D22*
X53000Y-34000D03*
X54000Y-34000D03*
X55000Y-34000D03*
X56000Y-34000D03*
X57000Y-34000D03*
X58000Y-34000D03*
X59000Y-34000D03*
X60000Y-34000D03*
X61000Y-34000D03*
X62000Y-34000D03*
X63000Y-34000D03*
G54D21*
X52000Y-41000D03*
G54D22*
X53000Y-41000D03*
X54000Y-41000D03*
X55000Y-41000D03*
X56000Y-41000D03*
X57000Y-41000D03*
X58000Y-41000D03*
X59000Y-41000D03*
X60000Y-41000D03*
X61000Y-41000D03*
X62000Y-41000D03*
X63000Y-41000D03*
G54D23*
X55335Y-39075D03*
X55728Y-39075D03*
X56122Y-39075D03*
X56516Y-39075D03*
X56909Y-39075D03*
X57303Y-39075D03*
X57697Y-39075D03*
X58091Y-39075D03*
X58484Y-39075D03*
X58878Y-39075D03*
X59272Y-39075D03*
X59665Y-39075D03*
X59665Y-35925D03*
X59272Y-35925D03*
X58878Y-35925D03*
X58484Y-35925D03*
X58091Y-35925D03*
X57697Y-35925D03*
X57303Y-35925D03*
X56909Y-35925D03*
X56516Y-35925D03*
X56122Y-35925D03*
X55728Y-35925D03*
X55335Y-35925D03*
G54D24*
X59666Y-36693D03*
X59666Y-37205D03*
X56122Y-38288D03*
X56122Y-37776D03*
X56516Y-38288D03*
X56516Y-37776D03*
X56910Y-38288D03*
X56910Y-37776D03*
X57304Y-38288D03*
X57304Y-37776D03*
X57697Y-38288D03*
X57697Y-37776D03*
X58091Y-38288D03*
X58091Y-37776D03*
X58485Y-38288D03*
X58485Y-37776D03*
X58878Y-38288D03*
X58878Y-37776D03*
X59272Y-38288D03*
X59272Y-37776D03*
X59666Y-38288D03*
X59666Y-37776D03*
X59272Y-36693D03*
X59272Y-37205D03*
X58878Y-36693D03*
X58878Y-37205D03*
X58485Y-36693D03*
X58485Y-37205D03*
X58091Y-36693D03*
X58091Y-37205D03*
X57697Y-36693D03*
X57697Y-37205D03*
X57304Y-36693D03*
X57304Y-37205D03*
X56910Y-36693D03*
X56910Y-37205D03*
X56516Y-36693D03*
X56516Y-37205D03*
X56122Y-36693D03*
X56122Y-37205D03*
X55729Y-36693D03*
X55729Y-37205D03*
X55335Y-36693D03*
X55335Y-37205D03*
X55335Y-38288D03*
X55335Y-37776D03*
X55729Y-38288D03*
X55729Y-37776D03*
M02*
