G04 (created by PCBNEW-RS274X (2012-jan-04)-stable) date Sun 02 Sep 2012 01:17:06 AM CEST*
G01*
G70*
G90*
%MOIN*%
G04 Gerber Fmt 3.4, Leading zero omitted, Abs format*
%FSLAX34Y34*%
G04 APERTURE LIST*
%ADD10C,0.006000*%
%ADD11C,0.010000*%
%ADD12C,0.002600*%
%ADD13C,0.002000*%
%ADD14C,0.004000*%
%ADD15C,0.012000*%
%ADD16C,0.015000*%
%ADD17R,0.059000X0.051100*%
%ADD18R,0.070800X0.062900*%
%ADD19R,0.060000X0.060000*%
%ADD20R,0.065000X0.065000*%
%ADD21C,0.065000*%
%ADD22R,0.025600X0.063000*%
%ADD23R,0.025600X0.039400*%
G04 APERTURE END LIST*
G54D10*
G54D11*
X60676Y-38407D02*
X60695Y-38388D01*
X60714Y-38407D01*
X60695Y-38426D01*
X60676Y-38407D01*
X60714Y-38407D01*
X60562Y-38407D02*
X60333Y-38426D01*
X60314Y-38407D01*
X60333Y-38388D01*
X60562Y-38407D01*
X60314Y-38407D01*
X60695Y-37740D02*
X60714Y-37778D01*
X60714Y-37855D01*
X60695Y-37893D01*
X60676Y-37912D01*
X60638Y-37931D01*
X60523Y-37931D01*
X60485Y-37912D01*
X60466Y-37893D01*
X60447Y-37855D01*
X60447Y-37778D01*
X60466Y-37740D01*
X60447Y-37397D02*
X60714Y-37397D01*
X60447Y-37569D02*
X60657Y-37569D01*
X60695Y-37550D01*
X60714Y-37512D01*
X60714Y-37454D01*
X60695Y-37416D01*
X60676Y-37397D01*
X60447Y-37264D02*
X60447Y-37112D01*
X60314Y-37207D02*
X60657Y-37207D01*
X60695Y-37188D01*
X60714Y-37150D01*
X60714Y-37112D01*
X60676Y-36673D02*
X60695Y-36654D01*
X60714Y-36673D01*
X60695Y-36692D01*
X60676Y-36673D01*
X60714Y-36673D01*
X60562Y-36673D02*
X60333Y-36692D01*
X60314Y-36673D01*
X60333Y-36654D01*
X60562Y-36673D01*
X60314Y-36673D01*
X54672Y-38407D02*
X54691Y-38388D01*
X54710Y-38407D01*
X54691Y-38426D01*
X54672Y-38407D01*
X54710Y-38407D01*
X54558Y-38407D02*
X54329Y-38426D01*
X54310Y-38407D01*
X54329Y-38388D01*
X54558Y-38407D01*
X54310Y-38407D01*
X54691Y-37740D02*
X54710Y-37778D01*
X54710Y-37855D01*
X54691Y-37893D01*
X54672Y-37912D01*
X54634Y-37931D01*
X54519Y-37931D01*
X54481Y-37912D01*
X54462Y-37893D01*
X54443Y-37855D01*
X54443Y-37778D01*
X54462Y-37740D01*
X54443Y-37397D02*
X54710Y-37397D01*
X54443Y-37569D02*
X54653Y-37569D01*
X54691Y-37550D01*
X54710Y-37512D01*
X54710Y-37454D01*
X54691Y-37416D01*
X54672Y-37397D01*
X54443Y-37264D02*
X54443Y-37112D01*
X54310Y-37207D02*
X54653Y-37207D01*
X54691Y-37188D01*
X54710Y-37150D01*
X54710Y-37112D01*
X54672Y-36673D02*
X54691Y-36654D01*
X54710Y-36673D01*
X54691Y-36692D01*
X54672Y-36673D01*
X54710Y-36673D01*
X54558Y-36673D02*
X54329Y-36692D01*
X54310Y-36673D01*
X54329Y-36654D01*
X54558Y-36673D01*
X54310Y-36673D01*
X61232Y-38600D02*
X61194Y-38581D01*
X61137Y-38581D01*
X61079Y-38600D01*
X61041Y-38638D01*
X61022Y-38676D01*
X61003Y-38752D01*
X61003Y-38809D01*
X61022Y-38886D01*
X61041Y-38924D01*
X61079Y-38962D01*
X61137Y-38981D01*
X61175Y-38981D01*
X61232Y-38962D01*
X61251Y-38943D01*
X61251Y-38809D01*
X61175Y-38809D01*
X61422Y-38981D02*
X61422Y-38581D01*
X61651Y-38981D01*
X61651Y-38581D01*
X61841Y-38981D02*
X61841Y-38581D01*
X61936Y-38581D01*
X61994Y-38600D01*
X62032Y-38638D01*
X62051Y-38676D01*
X62070Y-38752D01*
X62070Y-38809D01*
X62051Y-38886D01*
X62032Y-38924D01*
X61994Y-38962D01*
X61936Y-38981D01*
X61841Y-38981D01*
X61003Y-36022D02*
X61136Y-36422D01*
X61270Y-36022D01*
X61632Y-36384D02*
X61613Y-36403D01*
X61556Y-36422D01*
X61518Y-36422D01*
X61460Y-36403D01*
X61422Y-36365D01*
X61403Y-36327D01*
X61384Y-36250D01*
X61384Y-36193D01*
X61403Y-36117D01*
X61422Y-36079D01*
X61460Y-36041D01*
X61518Y-36022D01*
X61556Y-36022D01*
X61613Y-36041D01*
X61632Y-36060D01*
X62032Y-36384D02*
X62013Y-36403D01*
X61956Y-36422D01*
X61918Y-36422D01*
X61860Y-36403D01*
X61822Y-36365D01*
X61803Y-36327D01*
X61784Y-36250D01*
X61784Y-36193D01*
X61803Y-36117D01*
X61822Y-36079D01*
X61860Y-36041D01*
X61918Y-36022D01*
X61956Y-36022D01*
X62013Y-36041D01*
X62032Y-36060D01*
X53259Y-38797D02*
X53221Y-38778D01*
X53164Y-38778D01*
X53106Y-38797D01*
X53068Y-38835D01*
X53049Y-38873D01*
X53030Y-38949D01*
X53030Y-39006D01*
X53049Y-39083D01*
X53068Y-39121D01*
X53106Y-39159D01*
X53164Y-39178D01*
X53202Y-39178D01*
X53259Y-39159D01*
X53278Y-39140D01*
X53278Y-39006D01*
X53202Y-39006D01*
X53449Y-39178D02*
X53449Y-38778D01*
X53678Y-39178D01*
X53678Y-38778D01*
X53868Y-39178D02*
X53868Y-38778D01*
X53963Y-38778D01*
X54021Y-38797D01*
X54059Y-38835D01*
X54078Y-38873D01*
X54097Y-38949D01*
X54097Y-39006D01*
X54078Y-39083D01*
X54059Y-39121D01*
X54021Y-39159D01*
X53963Y-39178D01*
X53868Y-39178D01*
X53030Y-35825D02*
X53163Y-36225D01*
X53297Y-35825D01*
X53659Y-36187D02*
X53640Y-36206D01*
X53583Y-36225D01*
X53545Y-36225D01*
X53487Y-36206D01*
X53449Y-36168D01*
X53430Y-36130D01*
X53411Y-36053D01*
X53411Y-35996D01*
X53430Y-35920D01*
X53449Y-35882D01*
X53487Y-35844D01*
X53545Y-35825D01*
X53583Y-35825D01*
X53640Y-35844D01*
X53659Y-35863D01*
X54059Y-36187D02*
X54040Y-36206D01*
X53983Y-36225D01*
X53945Y-36225D01*
X53887Y-36206D01*
X53849Y-36168D01*
X53830Y-36130D01*
X53811Y-36053D01*
X53811Y-35996D01*
X53830Y-35920D01*
X53849Y-35882D01*
X53887Y-35844D01*
X53945Y-35825D01*
X53983Y-35825D01*
X54040Y-35844D01*
X54059Y-35863D01*
X53204Y-39800D02*
X53223Y-39781D01*
X53261Y-39762D01*
X53357Y-39762D01*
X53395Y-39781D01*
X53414Y-39800D01*
X53433Y-39838D01*
X53433Y-39876D01*
X53414Y-39933D01*
X53185Y-40162D01*
X53433Y-40162D01*
X53680Y-39762D02*
X53719Y-39762D01*
X53757Y-39781D01*
X53776Y-39800D01*
X53795Y-39838D01*
X53814Y-39914D01*
X53814Y-40010D01*
X53795Y-40086D01*
X53776Y-40124D01*
X53757Y-40143D01*
X53719Y-40162D01*
X53680Y-40162D01*
X53642Y-40143D01*
X53623Y-40124D01*
X53604Y-40086D01*
X53585Y-40010D01*
X53585Y-39914D01*
X53604Y-39838D01*
X53623Y-39800D01*
X53642Y-39781D01*
X53680Y-39762D01*
X54195Y-40162D02*
X53966Y-40162D01*
X54080Y-40162D02*
X54080Y-39762D01*
X54042Y-39819D01*
X54004Y-39857D01*
X53966Y-39876D01*
X54347Y-39800D02*
X54366Y-39781D01*
X54404Y-39762D01*
X54500Y-39762D01*
X54538Y-39781D01*
X54557Y-39800D01*
X54576Y-39838D01*
X54576Y-39876D01*
X54557Y-39933D01*
X54328Y-40162D01*
X54576Y-40162D01*
X55052Y-40010D02*
X55357Y-40010D01*
X55852Y-40162D02*
X55852Y-39762D01*
X55852Y-39914D02*
X55890Y-39895D01*
X55967Y-39895D01*
X56005Y-39914D01*
X56024Y-39933D01*
X56043Y-39971D01*
X56043Y-40086D01*
X56024Y-40124D01*
X56005Y-40143D01*
X55967Y-40162D01*
X55890Y-40162D01*
X55852Y-40143D01*
X56271Y-40162D02*
X56233Y-40143D01*
X56214Y-40105D01*
X56214Y-39762D01*
X56481Y-40162D02*
X56443Y-40143D01*
X56424Y-40124D01*
X56405Y-40086D01*
X56405Y-39971D01*
X56424Y-39933D01*
X56443Y-39914D01*
X56481Y-39895D01*
X56539Y-39895D01*
X56577Y-39914D01*
X56596Y-39933D01*
X56615Y-39971D01*
X56615Y-40086D01*
X56596Y-40124D01*
X56577Y-40143D01*
X56539Y-40162D01*
X56481Y-40162D01*
X56958Y-39895D02*
X56958Y-40219D01*
X56939Y-40257D01*
X56920Y-40276D01*
X56881Y-40295D01*
X56824Y-40295D01*
X56786Y-40276D01*
X56958Y-40143D02*
X56920Y-40162D01*
X56843Y-40162D01*
X56805Y-40143D01*
X56786Y-40124D01*
X56767Y-40086D01*
X56767Y-39971D01*
X56786Y-39933D01*
X56805Y-39914D01*
X56843Y-39895D01*
X56920Y-39895D01*
X56958Y-39914D01*
X57148Y-40124D02*
X57167Y-40143D01*
X57148Y-40162D01*
X57129Y-40143D01*
X57148Y-40124D01*
X57148Y-40162D01*
X57319Y-40143D02*
X57357Y-40162D01*
X57433Y-40162D01*
X57472Y-40143D01*
X57491Y-40105D01*
X57491Y-40086D01*
X57472Y-40048D01*
X57433Y-40029D01*
X57376Y-40029D01*
X57338Y-40010D01*
X57319Y-39971D01*
X57319Y-39952D01*
X57338Y-39914D01*
X57376Y-39895D01*
X57433Y-39895D01*
X57472Y-39914D01*
X57662Y-39895D02*
X57662Y-40295D01*
X57662Y-39914D02*
X57700Y-39895D01*
X57777Y-39895D01*
X57815Y-39914D01*
X57834Y-39933D01*
X57853Y-39971D01*
X57853Y-40086D01*
X57834Y-40124D01*
X57815Y-40143D01*
X57777Y-40162D01*
X57700Y-40162D01*
X57662Y-40143D01*
X58024Y-40162D02*
X58024Y-39895D01*
X58024Y-39762D02*
X58005Y-39781D01*
X58024Y-39800D01*
X58043Y-39781D01*
X58024Y-39762D01*
X58024Y-39800D01*
X58157Y-39895D02*
X58309Y-39895D01*
X58214Y-39762D02*
X58214Y-40105D01*
X58233Y-40143D01*
X58271Y-40162D01*
X58309Y-40162D01*
X58405Y-39895D02*
X58615Y-39895D01*
X58405Y-40162D01*
X58615Y-40162D01*
X58920Y-40143D02*
X58882Y-40162D01*
X58805Y-40162D01*
X58767Y-40143D01*
X58748Y-40105D01*
X58748Y-39952D01*
X58767Y-39914D01*
X58805Y-39895D01*
X58882Y-39895D01*
X58920Y-39914D01*
X58939Y-39952D01*
X58939Y-39990D01*
X58748Y-40029D01*
X59110Y-39895D02*
X59110Y-40162D01*
X59110Y-39933D02*
X59129Y-39914D01*
X59167Y-39895D01*
X59225Y-39895D01*
X59263Y-39914D01*
X59282Y-39952D01*
X59282Y-40162D01*
X59472Y-39895D02*
X59472Y-40295D01*
X59472Y-39914D02*
X59510Y-39895D01*
X59587Y-39895D01*
X59625Y-39914D01*
X59644Y-39933D01*
X59663Y-39971D01*
X59663Y-40086D01*
X59644Y-40124D01*
X59625Y-40143D01*
X59587Y-40162D01*
X59510Y-40162D01*
X59472Y-40143D01*
X59777Y-39895D02*
X59929Y-39895D01*
X59834Y-40162D02*
X59834Y-39819D01*
X59853Y-39781D01*
X59891Y-39762D01*
X59929Y-39762D01*
X60216Y-40143D02*
X60178Y-40162D01*
X60101Y-40162D01*
X60063Y-40143D01*
X60044Y-40105D01*
X60044Y-39952D01*
X60063Y-39914D01*
X60101Y-39895D01*
X60178Y-39895D01*
X60216Y-39914D01*
X60235Y-39952D01*
X60235Y-39990D01*
X60044Y-40029D01*
X60406Y-40162D02*
X60406Y-39895D01*
X60406Y-39762D02*
X60387Y-39781D01*
X60406Y-39800D01*
X60425Y-39781D01*
X60406Y-39762D01*
X60406Y-39800D01*
X60653Y-40162D02*
X60615Y-40143D01*
X60596Y-40105D01*
X60596Y-39762D01*
X60806Y-40124D02*
X60825Y-40143D01*
X60806Y-40162D01*
X60787Y-40143D01*
X60806Y-40124D01*
X60806Y-40162D01*
X61053Y-40162D02*
X61015Y-40143D01*
X60996Y-40124D01*
X60977Y-40086D01*
X60977Y-39971D01*
X60996Y-39933D01*
X61015Y-39914D01*
X61053Y-39895D01*
X61111Y-39895D01*
X61149Y-39914D01*
X61168Y-39933D01*
X61187Y-39971D01*
X61187Y-40086D01*
X61168Y-40124D01*
X61149Y-40143D01*
X61111Y-40162D01*
X61053Y-40162D01*
X61358Y-40162D02*
X61358Y-39895D01*
X61358Y-39971D02*
X61377Y-39933D01*
X61396Y-39914D01*
X61434Y-39895D01*
X61473Y-39895D01*
X61778Y-39895D02*
X61778Y-40219D01*
X61759Y-40257D01*
X61740Y-40276D01*
X61701Y-40295D01*
X61644Y-40295D01*
X61606Y-40276D01*
X61778Y-40143D02*
X61740Y-40162D01*
X61663Y-40162D01*
X61625Y-40143D01*
X61606Y-40124D01*
X61587Y-40086D01*
X61587Y-39971D01*
X61606Y-39933D01*
X61625Y-39914D01*
X61663Y-39895D01*
X61740Y-39895D01*
X61778Y-39914D01*
X53414Y-35222D02*
X53471Y-35241D01*
X53567Y-35241D01*
X53605Y-35222D01*
X53624Y-35203D01*
X53643Y-35165D01*
X53643Y-35127D01*
X53624Y-35089D01*
X53605Y-35069D01*
X53567Y-35050D01*
X53490Y-35031D01*
X53452Y-35012D01*
X53433Y-34993D01*
X53414Y-34955D01*
X53414Y-34917D01*
X53433Y-34879D01*
X53452Y-34860D01*
X53490Y-34841D01*
X53586Y-34841D01*
X53643Y-34860D01*
X53890Y-34841D02*
X53967Y-34841D01*
X54005Y-34860D01*
X54043Y-34898D01*
X54062Y-34974D01*
X54062Y-35108D01*
X54043Y-35184D01*
X54005Y-35222D01*
X53967Y-35241D01*
X53890Y-35241D01*
X53852Y-35222D01*
X53814Y-35184D01*
X53795Y-35108D01*
X53795Y-34974D01*
X53814Y-34898D01*
X53852Y-34860D01*
X53890Y-34841D01*
X54233Y-35241D02*
X54233Y-34841D01*
X54386Y-34841D01*
X54424Y-34860D01*
X54443Y-34879D01*
X54462Y-34917D01*
X54462Y-34974D01*
X54443Y-35012D01*
X54424Y-35031D01*
X54386Y-35050D01*
X54233Y-35050D01*
X54614Y-34879D02*
X54633Y-34860D01*
X54671Y-34841D01*
X54767Y-34841D01*
X54805Y-34860D01*
X54824Y-34879D01*
X54843Y-34917D01*
X54843Y-34955D01*
X54824Y-35012D01*
X54595Y-35241D01*
X54843Y-35241D01*
X55186Y-34974D02*
X55186Y-35241D01*
X55090Y-34822D02*
X54995Y-35108D01*
X55243Y-35108D01*
X55395Y-35089D02*
X55700Y-35089D01*
X55852Y-34841D02*
X56100Y-34841D01*
X55966Y-34993D01*
X56024Y-34993D01*
X56062Y-35012D01*
X56081Y-35031D01*
X56100Y-35069D01*
X56100Y-35165D01*
X56081Y-35203D01*
X56062Y-35222D01*
X56024Y-35241D01*
X55909Y-35241D01*
X55871Y-35222D01*
X55852Y-35203D01*
X56347Y-34841D02*
X56386Y-34841D01*
X56424Y-34860D01*
X56443Y-34879D01*
X56462Y-34917D01*
X56481Y-34993D01*
X56481Y-35089D01*
X56462Y-35165D01*
X56443Y-35203D01*
X56424Y-35222D01*
X56386Y-35241D01*
X56347Y-35241D01*
X56309Y-35222D01*
X56290Y-35203D01*
X56271Y-35165D01*
X56252Y-35089D01*
X56252Y-34993D01*
X56271Y-34917D01*
X56290Y-34879D01*
X56309Y-34860D01*
X56347Y-34841D01*
X56728Y-34841D02*
X56767Y-34841D01*
X56805Y-34860D01*
X56824Y-34879D01*
X56843Y-34917D01*
X56862Y-34993D01*
X56862Y-35089D01*
X56843Y-35165D01*
X56824Y-35203D01*
X56805Y-35222D01*
X56767Y-35241D01*
X56728Y-35241D01*
X56690Y-35222D01*
X56671Y-35203D01*
X56652Y-35165D01*
X56633Y-35089D01*
X56633Y-34993D01*
X56652Y-34917D01*
X56671Y-34879D01*
X56690Y-34860D01*
X56728Y-34841D01*
X57033Y-35089D02*
X57338Y-35089D01*
X57738Y-35241D02*
X57509Y-35241D01*
X57623Y-35241D02*
X57623Y-34841D01*
X57585Y-34898D01*
X57547Y-34936D01*
X57509Y-34955D01*
X57909Y-35203D02*
X57928Y-35222D01*
X57909Y-35241D01*
X57890Y-35222D01*
X57909Y-35203D01*
X57909Y-35241D01*
X58175Y-34841D02*
X58214Y-34841D01*
X58252Y-34860D01*
X58271Y-34879D01*
X58290Y-34917D01*
X58309Y-34993D01*
X58309Y-35089D01*
X58290Y-35165D01*
X58271Y-35203D01*
X58252Y-35222D01*
X58214Y-35241D01*
X58175Y-35241D01*
X58137Y-35222D01*
X58118Y-35203D01*
X58099Y-35165D01*
X58080Y-35089D01*
X58080Y-34993D01*
X58099Y-34917D01*
X58118Y-34879D01*
X58137Y-34860D01*
X58175Y-34841D01*
X58556Y-34841D02*
X58595Y-34841D01*
X58633Y-34860D01*
X58652Y-34879D01*
X58671Y-34917D01*
X58690Y-34993D01*
X58690Y-35089D01*
X58671Y-35165D01*
X58652Y-35203D01*
X58633Y-35222D01*
X58595Y-35241D01*
X58556Y-35241D01*
X58518Y-35222D01*
X58499Y-35203D01*
X58480Y-35165D01*
X58461Y-35089D01*
X58461Y-34993D01*
X58480Y-34917D01*
X58499Y-34879D01*
X58518Y-34860D01*
X58556Y-34841D01*
X59166Y-35241D02*
X59166Y-34841D01*
X59166Y-34993D02*
X59204Y-34974D01*
X59281Y-34974D01*
X59319Y-34993D01*
X59338Y-35012D01*
X59357Y-35050D01*
X59357Y-35165D01*
X59338Y-35203D01*
X59319Y-35222D01*
X59281Y-35241D01*
X59204Y-35241D01*
X59166Y-35222D01*
X59528Y-35241D02*
X59528Y-34974D01*
X59528Y-35050D02*
X59547Y-35012D01*
X59566Y-34993D01*
X59604Y-34974D01*
X59643Y-34974D01*
X59929Y-35222D02*
X59891Y-35241D01*
X59814Y-35241D01*
X59776Y-35222D01*
X59757Y-35184D01*
X59757Y-35031D01*
X59776Y-34993D01*
X59814Y-34974D01*
X59891Y-34974D01*
X59929Y-34993D01*
X59948Y-35031D01*
X59948Y-35069D01*
X59757Y-35108D01*
X60291Y-35241D02*
X60291Y-35031D01*
X60272Y-34993D01*
X60234Y-34974D01*
X60157Y-34974D01*
X60119Y-34993D01*
X60291Y-35222D02*
X60253Y-35241D01*
X60157Y-35241D01*
X60119Y-35222D01*
X60100Y-35184D01*
X60100Y-35146D01*
X60119Y-35108D01*
X60157Y-35089D01*
X60253Y-35089D01*
X60291Y-35069D01*
X60481Y-35241D02*
X60481Y-34841D01*
X60519Y-35089D02*
X60634Y-35241D01*
X60634Y-34974D02*
X60481Y-35127D01*
X60862Y-35241D02*
X60824Y-35222D01*
X60805Y-35203D01*
X60786Y-35165D01*
X60786Y-35050D01*
X60805Y-35012D01*
X60824Y-34993D01*
X60862Y-34974D01*
X60920Y-34974D01*
X60958Y-34993D01*
X60977Y-35012D01*
X60996Y-35050D01*
X60996Y-35165D01*
X60977Y-35203D01*
X60958Y-35222D01*
X60920Y-35241D01*
X60862Y-35241D01*
X61339Y-34974D02*
X61339Y-35241D01*
X61167Y-34974D02*
X61167Y-35184D01*
X61186Y-35222D01*
X61224Y-35241D01*
X61282Y-35241D01*
X61320Y-35222D01*
X61339Y-35203D01*
X61472Y-34974D02*
X61624Y-34974D01*
X61529Y-34841D02*
X61529Y-35184D01*
X61548Y-35222D01*
X61586Y-35241D01*
X61624Y-35241D01*
X51695Y-34800D02*
X51714Y-34781D01*
X51752Y-34762D01*
X51848Y-34762D01*
X51886Y-34781D01*
X51905Y-34800D01*
X51924Y-34838D01*
X51924Y-34876D01*
X51905Y-34933D01*
X51676Y-35162D01*
X51924Y-35162D01*
X52267Y-34895D02*
X52267Y-35162D01*
X52171Y-34743D02*
X52076Y-35029D01*
X52324Y-35029D01*
X62924Y-35162D02*
X62695Y-35162D01*
X62809Y-35162D02*
X62809Y-34762D01*
X62771Y-34819D01*
X62733Y-34857D01*
X62695Y-34876D01*
X63057Y-34762D02*
X63305Y-34762D01*
X63171Y-34914D01*
X63229Y-34914D01*
X63267Y-34933D01*
X63286Y-34952D01*
X63305Y-34990D01*
X63305Y-35086D01*
X63286Y-35124D01*
X63267Y-35143D01*
X63229Y-35162D01*
X63114Y-35162D01*
X63076Y-35143D01*
X63057Y-35124D01*
X62924Y-40162D02*
X62695Y-40162D01*
X62809Y-40162D02*
X62809Y-39762D01*
X62771Y-39819D01*
X62733Y-39857D01*
X62695Y-39876D01*
X63076Y-39800D02*
X63095Y-39781D01*
X63133Y-39762D01*
X63229Y-39762D01*
X63267Y-39781D01*
X63286Y-39800D01*
X63305Y-39838D01*
X63305Y-39876D01*
X63286Y-39933D01*
X63057Y-40162D01*
X63305Y-40162D01*
X52115Y-40162D02*
X51886Y-40162D01*
X52000Y-40162D02*
X52000Y-39762D01*
X51962Y-39819D01*
X51924Y-39857D01*
X51886Y-39876D01*
G54D12*
X62465Y-37071D02*
X62465Y-37366D01*
X62465Y-37366D02*
X63035Y-37366D01*
X63035Y-37071D02*
X63035Y-37366D01*
X62465Y-37071D02*
X63035Y-37071D01*
X62465Y-37640D02*
X62465Y-37935D01*
X62465Y-37935D02*
X63035Y-37935D01*
X63035Y-37640D02*
X63035Y-37935D01*
X62465Y-37640D02*
X63035Y-37640D01*
X62593Y-37461D02*
X62593Y-37539D01*
X62593Y-37539D02*
X62907Y-37539D01*
X62907Y-37461D02*
X62907Y-37539D01*
X62593Y-37461D02*
X62907Y-37461D01*
G54D13*
X63137Y-36724D02*
X63137Y-38276D01*
X62363Y-38276D02*
X62363Y-36724D01*
X62363Y-36724D02*
X63137Y-36724D01*
G54D14*
X63009Y-37350D02*
X63009Y-37650D01*
X62491Y-37360D02*
X62491Y-37650D01*
G54D13*
X63137Y-38276D02*
X62363Y-38276D01*
G54D12*
X51915Y-36830D02*
X51915Y-37126D01*
X51915Y-37126D02*
X52584Y-37126D01*
X52584Y-36830D02*
X52584Y-37126D01*
X51915Y-36830D02*
X52584Y-36830D01*
X51916Y-37874D02*
X51916Y-38170D01*
X51916Y-38170D02*
X52585Y-38170D01*
X52585Y-37874D02*
X52585Y-38170D01*
X51916Y-37874D02*
X52585Y-37874D01*
X52093Y-37422D02*
X52093Y-37578D01*
X52093Y-37578D02*
X52407Y-37578D01*
X52407Y-37422D02*
X52407Y-37578D01*
X52093Y-37422D02*
X52407Y-37422D01*
G54D13*
X52637Y-36527D02*
X52637Y-38473D01*
X51863Y-38473D02*
X51863Y-36527D01*
X51863Y-36527D02*
X52637Y-36527D01*
X52637Y-38473D02*
X51863Y-38473D01*
G54D14*
X52559Y-37121D02*
X52559Y-37879D01*
X51941Y-37121D02*
X51941Y-37879D01*
G54D10*
X52750Y-36500D02*
X51750Y-36500D01*
X51750Y-35500D02*
X52750Y-35500D01*
X51750Y-36500D02*
X51750Y-35500D01*
X52750Y-35500D02*
X52750Y-36500D01*
X63250Y-36750D02*
X62250Y-36750D01*
X62250Y-35750D02*
X63250Y-35750D01*
X62250Y-36750D02*
X62250Y-35750D01*
X63250Y-35750D02*
X63250Y-36750D01*
X52750Y-39500D02*
X51750Y-39500D01*
X51750Y-38500D02*
X52750Y-38500D01*
X51750Y-39500D02*
X51750Y-38500D01*
X52750Y-38500D02*
X52750Y-39500D01*
X63250Y-39250D02*
X62250Y-39250D01*
X62250Y-38250D02*
X63250Y-38250D01*
X62250Y-39250D02*
X62250Y-38250D01*
X63250Y-38250D02*
X63250Y-39250D01*
G54D15*
X51500Y-34500D02*
X51500Y-34500D01*
X51500Y-34500D02*
X51500Y-33500D01*
X51500Y-33500D02*
X61500Y-33500D01*
X61500Y-34500D02*
X51500Y-34500D01*
X52500Y-34500D02*
X52500Y-33500D01*
X61500Y-33500D02*
X63250Y-33500D01*
X63250Y-33500D02*
X63500Y-33500D01*
X63500Y-33500D02*
X63500Y-34500D01*
X63500Y-34500D02*
X61500Y-34500D01*
X51500Y-41500D02*
X51500Y-41500D01*
X51500Y-41500D02*
X51500Y-40500D01*
X51500Y-40500D02*
X61500Y-40500D01*
X61500Y-41500D02*
X51500Y-41500D01*
X52500Y-41500D02*
X52500Y-40500D01*
X61500Y-40500D02*
X63250Y-40500D01*
X63250Y-40500D02*
X63500Y-40500D01*
X63500Y-40500D02*
X63500Y-41500D01*
X63500Y-41500D02*
X61500Y-41500D01*
G54D16*
X55492Y-38287D02*
X55489Y-38317D01*
X55480Y-38346D01*
X55465Y-38373D01*
X55446Y-38397D01*
X55422Y-38417D01*
X55395Y-38431D01*
X55366Y-38440D01*
X55336Y-38443D01*
X55306Y-38441D01*
X55277Y-38432D01*
X55250Y-38418D01*
X55226Y-38399D01*
X55206Y-38375D01*
X55191Y-38348D01*
X55182Y-38319D01*
X55179Y-38289D01*
X55181Y-38259D01*
X55190Y-38230D01*
X55204Y-38202D01*
X55223Y-38178D01*
X55246Y-38159D01*
X55273Y-38144D01*
X55302Y-38134D01*
X55332Y-38131D01*
X55362Y-38133D01*
X55391Y-38141D01*
X55419Y-38155D01*
X55443Y-38174D01*
X55463Y-38197D01*
X55478Y-38224D01*
X55488Y-38253D01*
X55491Y-38283D01*
X55492Y-38287D01*
X55413Y-38288D02*
X55411Y-38303D01*
X55407Y-38317D01*
X55399Y-38331D01*
X55390Y-38342D01*
X55378Y-38352D01*
X55365Y-38359D01*
X55350Y-38364D01*
X55335Y-38365D01*
X55321Y-38364D01*
X55306Y-38360D01*
X55293Y-38353D01*
X55281Y-38343D01*
X55271Y-38332D01*
X55264Y-38318D01*
X55259Y-38304D01*
X55258Y-38289D01*
X55259Y-38274D01*
X55263Y-38260D01*
X55270Y-38246D01*
X55279Y-38234D01*
X55291Y-38224D01*
X55304Y-38217D01*
X55319Y-38212D01*
X55334Y-38211D01*
X55348Y-38212D01*
X55363Y-38216D01*
X55376Y-38223D01*
X55388Y-38232D01*
X55398Y-38244D01*
X55406Y-38257D01*
X55411Y-38271D01*
X55412Y-38286D01*
X55413Y-38288D01*
X54941Y-36319D02*
X60059Y-36319D01*
X60059Y-36319D02*
X60059Y-38681D01*
X60059Y-38681D02*
X54941Y-38681D01*
X54941Y-38681D02*
X54941Y-36319D01*
%LPC*%
G54D17*
X62750Y-37126D03*
X62750Y-37874D03*
G54D18*
X52250Y-36949D03*
X52250Y-38051D03*
G54D19*
X52250Y-36000D03*
X62750Y-36250D03*
X52250Y-39000D03*
X62750Y-38750D03*
G54D20*
X52000Y-34000D03*
G54D21*
X53000Y-34000D03*
X54000Y-34000D03*
X55000Y-34000D03*
X56000Y-34000D03*
X57000Y-34000D03*
X58000Y-34000D03*
X59000Y-34000D03*
X60000Y-34000D03*
X61000Y-34000D03*
X62000Y-34000D03*
X63000Y-34000D03*
G54D20*
X52000Y-41000D03*
G54D21*
X53000Y-41000D03*
X54000Y-41000D03*
X55000Y-41000D03*
X56000Y-41000D03*
X57000Y-41000D03*
X58000Y-41000D03*
X59000Y-41000D03*
X60000Y-41000D03*
X61000Y-41000D03*
X62000Y-41000D03*
X63000Y-41000D03*
G54D22*
X55335Y-39075D03*
X55728Y-39075D03*
X56122Y-39075D03*
X56516Y-39075D03*
X56909Y-39075D03*
X57303Y-39075D03*
X57697Y-39075D03*
X58091Y-39075D03*
X58484Y-39075D03*
X58878Y-39075D03*
X59272Y-39075D03*
X59665Y-39075D03*
X59665Y-35925D03*
X59272Y-35925D03*
X58878Y-35925D03*
X58484Y-35925D03*
X58091Y-35925D03*
X57697Y-35925D03*
X57303Y-35925D03*
X56909Y-35925D03*
X56516Y-35925D03*
X56122Y-35925D03*
X55728Y-35925D03*
X55335Y-35925D03*
G54D23*
X59666Y-36693D03*
X59666Y-37205D03*
X56122Y-38288D03*
X56122Y-37776D03*
X56516Y-38288D03*
X56516Y-37776D03*
X56910Y-38288D03*
X56910Y-37776D03*
X57304Y-38288D03*
X57304Y-37776D03*
X57697Y-38288D03*
X57697Y-37776D03*
X58091Y-38288D03*
X58091Y-37776D03*
X58485Y-38288D03*
X58485Y-37776D03*
X58878Y-38288D03*
X58878Y-37776D03*
X59272Y-38288D03*
X59272Y-37776D03*
X59666Y-38288D03*
X59666Y-37776D03*
X59272Y-36693D03*
X59272Y-37205D03*
X58878Y-36693D03*
X58878Y-37205D03*
X58485Y-36693D03*
X58485Y-37205D03*
X58091Y-36693D03*
X58091Y-37205D03*
X57697Y-36693D03*
X57697Y-37205D03*
X57304Y-36693D03*
X57304Y-37205D03*
X56910Y-36693D03*
X56910Y-37205D03*
X56516Y-36693D03*
X56516Y-37205D03*
X56122Y-36693D03*
X56122Y-37205D03*
X55729Y-36693D03*
X55729Y-37205D03*
X55335Y-36693D03*
X55335Y-37205D03*
X55335Y-38288D03*
X55335Y-37776D03*
X55729Y-38288D03*
X55729Y-37776D03*
M02*
