G04 (created by PCBNEW-RS274X (2012-jan-04)-stable) date Sun 02 Sep 2012 01:17:06 AM CEST*
G01*
G70*
G90*
%MOIN*%
G04 Gerber Fmt 3.4, Leading zero omitted, Abs format*
%FSLAX34Y34*%
G04 APERTURE LIST*
%ADD10C,0.006000*%
%ADD11R,0.060000X0.060000*%
%ADD12R,0.065000X0.065000*%
%ADD13C,0.065000*%
%ADD14R,0.025600X0.063000*%
%ADD15R,0.025600X0.039400*%
%ADD16C,0.016000*%
%ADD17C,0.008000*%
%ADD18C,0.020000*%
G04 APERTURE END LIST*
G54D10*
G54D11*
X52250Y-36000D03*
X62750Y-36250D03*
X52250Y-39000D03*
X62750Y-38750D03*
G54D12*
X52000Y-34000D03*
G54D13*
X53000Y-34000D03*
X54000Y-34000D03*
X55000Y-34000D03*
X56000Y-34000D03*
X57000Y-34000D03*
X58000Y-34000D03*
X59000Y-34000D03*
X60000Y-34000D03*
X61000Y-34000D03*
X62000Y-34000D03*
X63000Y-34000D03*
G54D12*
X52000Y-41000D03*
G54D13*
X53000Y-41000D03*
X54000Y-41000D03*
X55000Y-41000D03*
X56000Y-41000D03*
X57000Y-41000D03*
X58000Y-41000D03*
X59000Y-41000D03*
X60000Y-41000D03*
X61000Y-41000D03*
X62000Y-41000D03*
X63000Y-41000D03*
G54D14*
X55335Y-39075D03*
X55728Y-39075D03*
X56122Y-39075D03*
X56516Y-39075D03*
X56909Y-39075D03*
X57303Y-39075D03*
X57697Y-39075D03*
X58091Y-39075D03*
X58484Y-39075D03*
X58878Y-39075D03*
X59272Y-39075D03*
X59665Y-39075D03*
X59665Y-35925D03*
X59272Y-35925D03*
X58878Y-35925D03*
X58484Y-35925D03*
X58091Y-35925D03*
X57697Y-35925D03*
X57303Y-35925D03*
X56909Y-35925D03*
X56516Y-35925D03*
X56122Y-35925D03*
X55728Y-35925D03*
X55335Y-35925D03*
G54D15*
X59666Y-36693D03*
X59666Y-37205D03*
X56516Y-38288D03*
X56516Y-37776D03*
X56910Y-38288D03*
X56910Y-37776D03*
X57304Y-38288D03*
X57304Y-37776D03*
X57697Y-38288D03*
X57697Y-37776D03*
X58091Y-38288D03*
X58091Y-37776D03*
X58485Y-38288D03*
X58485Y-37776D03*
X58878Y-38288D03*
X58878Y-37776D03*
X59272Y-38288D03*
X59272Y-37776D03*
X59666Y-38288D03*
X59666Y-37776D03*
X59272Y-36693D03*
X59272Y-37205D03*
X58878Y-36693D03*
X58878Y-37205D03*
X58485Y-36693D03*
X58485Y-37205D03*
X58091Y-36693D03*
X58091Y-37205D03*
X57697Y-36693D03*
X57697Y-37205D03*
X57304Y-36693D03*
X57304Y-37205D03*
X56910Y-36693D03*
X56910Y-37205D03*
X56516Y-36693D03*
X56516Y-37205D03*
X56122Y-36693D03*
X56122Y-37205D03*
X55729Y-36693D03*
X55729Y-37205D03*
X55335Y-36693D03*
X55335Y-37205D03*
X56122Y-38288D03*
X56122Y-37776D03*
X55729Y-38288D03*
X55729Y-37776D03*
X55335Y-38288D03*
X55335Y-37776D03*
G54D16*
X55335Y-39232D02*
X55335Y-38288D01*
X58878Y-39232D02*
X58878Y-38288D01*
X59272Y-39232D02*
X59272Y-38288D01*
X59665Y-38289D02*
X59666Y-38288D01*
X59665Y-39232D02*
X59665Y-38289D01*
X59665Y-35768D02*
X59665Y-36692D01*
X59665Y-36692D02*
X59666Y-36693D01*
G54D17*
X59666Y-37205D02*
X59666Y-36693D01*
X59272Y-37205D02*
X59272Y-36693D01*
G54D16*
X59272Y-36693D02*
X59272Y-35768D01*
G54D17*
X58878Y-37205D02*
X58878Y-36693D01*
G54D16*
X58878Y-36693D02*
X58878Y-35768D01*
X58485Y-35769D02*
X58484Y-35768D01*
X58485Y-36693D02*
X58485Y-35769D01*
G54D17*
X58485Y-37205D02*
X58485Y-36693D01*
G54D16*
X58091Y-36693D02*
X58091Y-35768D01*
G54D17*
X58091Y-37205D02*
X58091Y-36693D01*
G54D16*
X57697Y-36693D02*
X57697Y-35768D01*
G54D17*
X57697Y-37205D02*
X57697Y-36693D01*
X57304Y-37205D02*
X57304Y-36693D01*
G54D16*
X57304Y-36693D02*
X57304Y-35769D01*
X57304Y-35769D02*
X57303Y-35768D01*
X55728Y-39232D02*
X55728Y-38289D01*
X55728Y-38289D02*
X55729Y-38288D01*
G54D17*
X56910Y-37205D02*
X56910Y-36693D01*
G54D16*
X56910Y-36693D02*
X56910Y-35769D01*
X56910Y-35769D02*
X56909Y-35768D01*
X56516Y-36693D02*
X56516Y-35768D01*
X56122Y-36693D02*
X56122Y-35768D01*
G54D17*
X56122Y-37205D02*
X56122Y-36693D01*
G54D16*
X55729Y-36693D02*
X55729Y-35769D01*
X55729Y-35769D02*
X55728Y-35768D01*
X55335Y-35768D02*
X55335Y-36693D01*
G54D17*
X55335Y-37205D02*
X55335Y-36693D01*
G54D16*
X56122Y-39232D02*
X56122Y-38288D01*
X56516Y-39232D02*
X56516Y-38288D01*
X56909Y-39232D02*
X56909Y-38289D01*
X56909Y-38289D02*
X56910Y-38288D01*
X57303Y-38289D02*
X57304Y-38288D01*
X57303Y-39232D02*
X57303Y-38289D01*
X57697Y-39232D02*
X57697Y-38288D01*
X58091Y-39232D02*
X58091Y-38288D01*
X58484Y-38289D02*
X58485Y-38288D01*
X58484Y-39232D02*
X58484Y-38289D01*
G54D17*
X55729Y-36693D02*
X55729Y-37205D01*
X58091Y-38288D02*
X58091Y-37776D01*
X59666Y-38288D02*
X59666Y-37776D01*
X56122Y-38288D02*
X56122Y-37776D01*
X58485Y-38288D02*
X58485Y-37776D01*
X58878Y-38288D02*
X58878Y-37776D01*
X56516Y-36693D02*
X56516Y-37205D01*
X55729Y-38288D02*
X55729Y-37776D01*
X59272Y-38288D02*
X59272Y-37776D01*
X55335Y-38288D02*
X55335Y-37776D01*
X56516Y-38288D02*
X56516Y-37776D01*
X56910Y-38288D02*
X56910Y-37776D01*
X57697Y-38288D02*
X57697Y-37776D01*
X57304Y-38288D02*
X57304Y-37776D01*
G54D10*
G36*
X63325Y-40587D02*
X63251Y-40537D01*
X63249Y-40536D01*
X63249Y-36570D01*
X63249Y-36531D01*
X63249Y-35930D01*
X63241Y-35892D01*
X63226Y-35856D01*
X63205Y-35823D01*
X63177Y-35796D01*
X63145Y-35774D01*
X63109Y-35759D01*
X63070Y-35751D01*
X63031Y-35751D01*
X62430Y-35751D01*
X62392Y-35759D01*
X62356Y-35774D01*
X62323Y-35795D01*
X62296Y-35823D01*
X62274Y-35855D01*
X62259Y-35891D01*
X62251Y-35930D01*
X62251Y-35969D01*
X62251Y-36570D01*
X62259Y-36608D01*
X62274Y-36644D01*
X62295Y-36677D01*
X62323Y-36704D01*
X62355Y-36726D01*
X62391Y-36741D01*
X62430Y-36749D01*
X62469Y-36749D01*
X63070Y-36749D01*
X63108Y-36741D01*
X63144Y-36726D01*
X63177Y-36705D01*
X63204Y-36677D01*
X63226Y-36645D01*
X63241Y-36609D01*
X63249Y-36570D01*
X63249Y-40536D01*
X63156Y-40497D01*
X63055Y-40476D01*
X62953Y-40476D01*
X62852Y-40495D01*
X62756Y-40533D01*
X62670Y-40589D01*
X62597Y-40661D01*
X62539Y-40746D01*
X62499Y-40836D01*
X62465Y-40753D01*
X62408Y-40668D01*
X62336Y-40595D01*
X62251Y-40537D01*
X62156Y-40497D01*
X62055Y-40476D01*
X61953Y-40476D01*
X61852Y-40495D01*
X61756Y-40533D01*
X61670Y-40589D01*
X61597Y-40661D01*
X61539Y-40746D01*
X61499Y-40836D01*
X61465Y-40753D01*
X61408Y-40668D01*
X61336Y-40595D01*
X61251Y-40537D01*
X61156Y-40497D01*
X61055Y-40476D01*
X60953Y-40476D01*
X60852Y-40495D01*
X60756Y-40533D01*
X60670Y-40589D01*
X60597Y-40661D01*
X60539Y-40746D01*
X60499Y-40836D01*
X60465Y-40753D01*
X60408Y-40668D01*
X60336Y-40595D01*
X60251Y-40537D01*
X60156Y-40497D01*
X60055Y-40476D01*
X59993Y-40476D01*
X59993Y-38505D01*
X59993Y-38466D01*
X59993Y-38071D01*
X59993Y-36910D01*
X59993Y-36871D01*
X59993Y-36476D01*
X59985Y-36438D01*
X59970Y-36402D01*
X59949Y-36369D01*
X59947Y-36367D01*
X59969Y-36335D01*
X59984Y-36299D01*
X59992Y-36260D01*
X59992Y-36221D01*
X59992Y-35590D01*
X59984Y-35552D01*
X59969Y-35516D01*
X59948Y-35483D01*
X59920Y-35456D01*
X59888Y-35434D01*
X59852Y-35419D01*
X59813Y-35411D01*
X59774Y-35411D01*
X59517Y-35411D01*
X59479Y-35419D01*
X59469Y-35423D01*
X59459Y-35419D01*
X59420Y-35411D01*
X59381Y-35411D01*
X59124Y-35411D01*
X59086Y-35419D01*
X59075Y-35423D01*
X59065Y-35419D01*
X59026Y-35411D01*
X58987Y-35411D01*
X58730Y-35411D01*
X58692Y-35419D01*
X58681Y-35423D01*
X58671Y-35419D01*
X58632Y-35411D01*
X58593Y-35411D01*
X58336Y-35411D01*
X58298Y-35419D01*
X58288Y-35423D01*
X58278Y-35419D01*
X58239Y-35411D01*
X58200Y-35411D01*
X57943Y-35411D01*
X57905Y-35419D01*
X57894Y-35423D01*
X57884Y-35419D01*
X57845Y-35411D01*
X57806Y-35411D01*
X57549Y-35411D01*
X57511Y-35419D01*
X57500Y-35423D01*
X57490Y-35419D01*
X57451Y-35411D01*
X57412Y-35411D01*
X57155Y-35411D01*
X57117Y-35419D01*
X57106Y-35423D01*
X57096Y-35419D01*
X57057Y-35411D01*
X57018Y-35411D01*
X56761Y-35411D01*
X56723Y-35419D01*
X56713Y-35423D01*
X56703Y-35419D01*
X56664Y-35411D01*
X56625Y-35411D01*
X56368Y-35411D01*
X56330Y-35419D01*
X56319Y-35423D01*
X56309Y-35419D01*
X56270Y-35411D01*
X56231Y-35411D01*
X55974Y-35411D01*
X55936Y-35419D01*
X55925Y-35423D01*
X55915Y-35419D01*
X55876Y-35411D01*
X55837Y-35411D01*
X55580Y-35411D01*
X55542Y-35419D01*
X55532Y-35423D01*
X55522Y-35419D01*
X55483Y-35411D01*
X55444Y-35411D01*
X55187Y-35411D01*
X55149Y-35419D01*
X55113Y-35434D01*
X55080Y-35455D01*
X55053Y-35483D01*
X55031Y-35515D01*
X55016Y-35551D01*
X55008Y-35590D01*
X55008Y-35629D01*
X55008Y-36260D01*
X55016Y-36298D01*
X55031Y-36334D01*
X55052Y-36367D01*
X55053Y-36368D01*
X55053Y-36369D01*
X55031Y-36401D01*
X55016Y-36437D01*
X55008Y-36476D01*
X55008Y-36515D01*
X55008Y-36910D01*
X55016Y-36948D01*
X55031Y-36984D01*
X55052Y-37017D01*
X55080Y-37044D01*
X55112Y-37066D01*
X55148Y-37081D01*
X55187Y-37089D01*
X55226Y-37089D01*
X55483Y-37089D01*
X55521Y-37081D01*
X55531Y-37076D01*
X55542Y-37081D01*
X55581Y-37089D01*
X55620Y-37089D01*
X55877Y-37089D01*
X55915Y-37081D01*
X55925Y-37076D01*
X55935Y-37081D01*
X55974Y-37089D01*
X56013Y-37089D01*
X56270Y-37089D01*
X56308Y-37081D01*
X56318Y-37076D01*
X56329Y-37081D01*
X56368Y-37089D01*
X56407Y-37089D01*
X56664Y-37089D01*
X56702Y-37081D01*
X56712Y-37076D01*
X56723Y-37081D01*
X56762Y-37089D01*
X56801Y-37089D01*
X57058Y-37089D01*
X57096Y-37081D01*
X57106Y-37076D01*
X57117Y-37081D01*
X57156Y-37089D01*
X57195Y-37089D01*
X57452Y-37089D01*
X57490Y-37081D01*
X57500Y-37076D01*
X57510Y-37081D01*
X57549Y-37089D01*
X57588Y-37089D01*
X57845Y-37089D01*
X57883Y-37081D01*
X57893Y-37076D01*
X57904Y-37081D01*
X57943Y-37089D01*
X57982Y-37089D01*
X58239Y-37089D01*
X58277Y-37081D01*
X58287Y-37076D01*
X58298Y-37081D01*
X58337Y-37089D01*
X58376Y-37089D01*
X58633Y-37089D01*
X58671Y-37081D01*
X58681Y-37076D01*
X58691Y-37081D01*
X58730Y-37089D01*
X58769Y-37089D01*
X59026Y-37089D01*
X59064Y-37081D01*
X59074Y-37076D01*
X59085Y-37081D01*
X59124Y-37089D01*
X59163Y-37089D01*
X59420Y-37089D01*
X59458Y-37081D01*
X59468Y-37076D01*
X59479Y-37081D01*
X59518Y-37089D01*
X59557Y-37089D01*
X59814Y-37089D01*
X59852Y-37081D01*
X59888Y-37066D01*
X59921Y-37045D01*
X59948Y-37017D01*
X59970Y-36985D01*
X59985Y-36949D01*
X59993Y-36910D01*
X59993Y-38071D01*
X59985Y-38033D01*
X59970Y-37997D01*
X59949Y-37964D01*
X59921Y-37937D01*
X59889Y-37915D01*
X59853Y-37900D01*
X59814Y-37892D01*
X59775Y-37892D01*
X59518Y-37892D01*
X59480Y-37900D01*
X59469Y-37904D01*
X59459Y-37900D01*
X59420Y-37892D01*
X59381Y-37892D01*
X59124Y-37892D01*
X59086Y-37900D01*
X59075Y-37904D01*
X59065Y-37900D01*
X59026Y-37892D01*
X58987Y-37892D01*
X58730Y-37892D01*
X58692Y-37900D01*
X58682Y-37904D01*
X58672Y-37900D01*
X58633Y-37892D01*
X58594Y-37892D01*
X58337Y-37892D01*
X58299Y-37900D01*
X58288Y-37904D01*
X58278Y-37900D01*
X58239Y-37892D01*
X58200Y-37892D01*
X57943Y-37892D01*
X57905Y-37900D01*
X57894Y-37904D01*
X57884Y-37900D01*
X57845Y-37892D01*
X57806Y-37892D01*
X57549Y-37892D01*
X57511Y-37900D01*
X57501Y-37904D01*
X57491Y-37900D01*
X57452Y-37892D01*
X57413Y-37892D01*
X57156Y-37892D01*
X57118Y-37900D01*
X57107Y-37904D01*
X57097Y-37900D01*
X57058Y-37892D01*
X57019Y-37892D01*
X56762Y-37892D01*
X56724Y-37900D01*
X56713Y-37904D01*
X56703Y-37900D01*
X56664Y-37892D01*
X56625Y-37892D01*
X56368Y-37892D01*
X56330Y-37900D01*
X56319Y-37904D01*
X56309Y-37900D01*
X56270Y-37892D01*
X56231Y-37892D01*
X55974Y-37892D01*
X55936Y-37900D01*
X55926Y-37904D01*
X55916Y-37900D01*
X55877Y-37892D01*
X55838Y-37892D01*
X55581Y-37892D01*
X55543Y-37900D01*
X55532Y-37904D01*
X55522Y-37900D01*
X55483Y-37892D01*
X55444Y-37892D01*
X55187Y-37892D01*
X55149Y-37900D01*
X55113Y-37915D01*
X55080Y-37936D01*
X55053Y-37964D01*
X55031Y-37996D01*
X55016Y-38032D01*
X55008Y-38071D01*
X55008Y-38110D01*
X55008Y-38505D01*
X55016Y-38543D01*
X55031Y-38579D01*
X55052Y-38612D01*
X55055Y-38614D01*
X55055Y-38630D01*
X55053Y-38633D01*
X55031Y-38665D01*
X55016Y-38701D01*
X55008Y-38740D01*
X55008Y-38779D01*
X55008Y-39410D01*
X55016Y-39448D01*
X55031Y-39484D01*
X55052Y-39517D01*
X55080Y-39544D01*
X55112Y-39566D01*
X55148Y-39581D01*
X55187Y-39589D01*
X55226Y-39589D01*
X55483Y-39589D01*
X55521Y-39581D01*
X55531Y-39576D01*
X55541Y-39581D01*
X55580Y-39589D01*
X55619Y-39589D01*
X55876Y-39589D01*
X55914Y-39581D01*
X55924Y-39576D01*
X55935Y-39581D01*
X55974Y-39589D01*
X56013Y-39589D01*
X56270Y-39589D01*
X56308Y-39581D01*
X56318Y-39576D01*
X56329Y-39581D01*
X56368Y-39589D01*
X56407Y-39589D01*
X56664Y-39589D01*
X56702Y-39581D01*
X56712Y-39576D01*
X56722Y-39581D01*
X56761Y-39589D01*
X56800Y-39589D01*
X57057Y-39589D01*
X57095Y-39581D01*
X57105Y-39576D01*
X57116Y-39581D01*
X57155Y-39589D01*
X57194Y-39589D01*
X57451Y-39589D01*
X57489Y-39581D01*
X57499Y-39576D01*
X57510Y-39581D01*
X57549Y-39589D01*
X57588Y-39589D01*
X57845Y-39589D01*
X57883Y-39581D01*
X57893Y-39576D01*
X57904Y-39581D01*
X57943Y-39589D01*
X57982Y-39589D01*
X58239Y-39589D01*
X58277Y-39581D01*
X58287Y-39576D01*
X58297Y-39581D01*
X58336Y-39589D01*
X58375Y-39589D01*
X58632Y-39589D01*
X58670Y-39581D01*
X58680Y-39576D01*
X58691Y-39581D01*
X58730Y-39589D01*
X58769Y-39589D01*
X59026Y-39589D01*
X59064Y-39581D01*
X59074Y-39576D01*
X59085Y-39581D01*
X59124Y-39589D01*
X59163Y-39589D01*
X59420Y-39589D01*
X59458Y-39581D01*
X59468Y-39576D01*
X59478Y-39581D01*
X59517Y-39589D01*
X59556Y-39589D01*
X59813Y-39589D01*
X59851Y-39581D01*
X59887Y-39566D01*
X59920Y-39545D01*
X59947Y-39517D01*
X59969Y-39485D01*
X59984Y-39449D01*
X59992Y-39410D01*
X59992Y-39371D01*
X59992Y-38740D01*
X59984Y-38702D01*
X59969Y-38666D01*
X59948Y-38633D01*
X59945Y-38630D01*
X59945Y-38615D01*
X59948Y-38612D01*
X59970Y-38580D01*
X59985Y-38544D01*
X59993Y-38505D01*
X59993Y-40476D01*
X59953Y-40476D01*
X59852Y-40495D01*
X59756Y-40533D01*
X59670Y-40589D01*
X59597Y-40661D01*
X59539Y-40746D01*
X59499Y-40836D01*
X59465Y-40753D01*
X59408Y-40668D01*
X59336Y-40595D01*
X59251Y-40537D01*
X59156Y-40497D01*
X59055Y-40476D01*
X58953Y-40476D01*
X58852Y-40495D01*
X58756Y-40533D01*
X58670Y-40589D01*
X58597Y-40661D01*
X58539Y-40746D01*
X58499Y-40836D01*
X58465Y-40753D01*
X58408Y-40668D01*
X58336Y-40595D01*
X58251Y-40537D01*
X58156Y-40497D01*
X58055Y-40476D01*
X57953Y-40476D01*
X57852Y-40495D01*
X57756Y-40533D01*
X57670Y-40589D01*
X57597Y-40661D01*
X57539Y-40746D01*
X57499Y-40836D01*
X57465Y-40753D01*
X57408Y-40668D01*
X57336Y-40595D01*
X57251Y-40537D01*
X57156Y-40497D01*
X57055Y-40476D01*
X56953Y-40476D01*
X56852Y-40495D01*
X56756Y-40533D01*
X56670Y-40589D01*
X56597Y-40661D01*
X56539Y-40746D01*
X56499Y-40836D01*
X56465Y-40753D01*
X56408Y-40668D01*
X56336Y-40595D01*
X56251Y-40537D01*
X56156Y-40497D01*
X56055Y-40476D01*
X55953Y-40476D01*
X55852Y-40495D01*
X55756Y-40533D01*
X55670Y-40589D01*
X55597Y-40661D01*
X55539Y-40746D01*
X55499Y-40836D01*
X55465Y-40753D01*
X55408Y-40668D01*
X55336Y-40595D01*
X55251Y-40537D01*
X55156Y-40497D01*
X55055Y-40476D01*
X54953Y-40476D01*
X54852Y-40495D01*
X54756Y-40533D01*
X54670Y-40589D01*
X54597Y-40661D01*
X54539Y-40746D01*
X54499Y-40836D01*
X54465Y-40753D01*
X54408Y-40668D01*
X54336Y-40595D01*
X54251Y-40537D01*
X54156Y-40497D01*
X54055Y-40476D01*
X53953Y-40476D01*
X53852Y-40495D01*
X53756Y-40533D01*
X53670Y-40589D01*
X53597Y-40661D01*
X53539Y-40746D01*
X53499Y-40836D01*
X53465Y-40753D01*
X53408Y-40668D01*
X53336Y-40595D01*
X53251Y-40537D01*
X53156Y-40497D01*
X53055Y-40476D01*
X52953Y-40476D01*
X52852Y-40495D01*
X52756Y-40533D01*
X52749Y-40537D01*
X52749Y-36320D01*
X52749Y-36281D01*
X52749Y-35680D01*
X52741Y-35642D01*
X52726Y-35606D01*
X52705Y-35573D01*
X52677Y-35546D01*
X52645Y-35524D01*
X52609Y-35509D01*
X52570Y-35501D01*
X52531Y-35501D01*
X51930Y-35501D01*
X51892Y-35509D01*
X51856Y-35524D01*
X51823Y-35545D01*
X51796Y-35573D01*
X51774Y-35605D01*
X51759Y-35641D01*
X51751Y-35680D01*
X51751Y-35719D01*
X51751Y-36320D01*
X51759Y-36358D01*
X51774Y-36394D01*
X51795Y-36427D01*
X51823Y-36454D01*
X51855Y-36476D01*
X51891Y-36491D01*
X51930Y-36499D01*
X51969Y-36499D01*
X52570Y-36499D01*
X52608Y-36491D01*
X52644Y-36476D01*
X52677Y-36455D01*
X52704Y-36427D01*
X52726Y-36395D01*
X52741Y-36359D01*
X52749Y-36320D01*
X52749Y-40537D01*
X52670Y-40589D01*
X52597Y-40661D01*
X52539Y-40746D01*
X52524Y-40780D01*
X52524Y-40655D01*
X52516Y-40617D01*
X52501Y-40581D01*
X52480Y-40548D01*
X52452Y-40521D01*
X52420Y-40499D01*
X52384Y-40484D01*
X52345Y-40476D01*
X52306Y-40476D01*
X51675Y-40476D01*
X51675Y-34524D01*
X51694Y-34524D01*
X52345Y-34524D01*
X52383Y-34516D01*
X52419Y-34501D01*
X52452Y-34480D01*
X52479Y-34452D01*
X52501Y-34420D01*
X52516Y-34384D01*
X52524Y-34345D01*
X52524Y-34306D01*
X52524Y-34220D01*
X52532Y-34240D01*
X52587Y-34327D01*
X52658Y-34401D01*
X52743Y-34459D01*
X52837Y-34501D01*
X52937Y-34523D01*
X53040Y-34525D01*
X53141Y-34507D01*
X53237Y-34470D01*
X53324Y-34415D01*
X53398Y-34344D01*
X53458Y-34260D01*
X53499Y-34167D01*
X53500Y-34160D01*
X53532Y-34240D01*
X53587Y-34327D01*
X53658Y-34401D01*
X53743Y-34459D01*
X53837Y-34501D01*
X53937Y-34523D01*
X54040Y-34525D01*
X54141Y-34507D01*
X54237Y-34470D01*
X54324Y-34415D01*
X54398Y-34344D01*
X54458Y-34260D01*
X54499Y-34167D01*
X54500Y-34160D01*
X54532Y-34240D01*
X54587Y-34327D01*
X54658Y-34401D01*
X54743Y-34459D01*
X54837Y-34501D01*
X54937Y-34523D01*
X55040Y-34525D01*
X55141Y-34507D01*
X55237Y-34470D01*
X55324Y-34415D01*
X55398Y-34344D01*
X55458Y-34260D01*
X55499Y-34167D01*
X55500Y-34160D01*
X55532Y-34240D01*
X55587Y-34327D01*
X55658Y-34401D01*
X55743Y-34459D01*
X55837Y-34501D01*
X55937Y-34523D01*
X56040Y-34525D01*
X56141Y-34507D01*
X56237Y-34470D01*
X56324Y-34415D01*
X56398Y-34344D01*
X56458Y-34260D01*
X56499Y-34167D01*
X56500Y-34160D01*
X56532Y-34240D01*
X56587Y-34327D01*
X56658Y-34401D01*
X56743Y-34459D01*
X56837Y-34501D01*
X56937Y-34523D01*
X57040Y-34525D01*
X57141Y-34507D01*
X57237Y-34470D01*
X57324Y-34415D01*
X57398Y-34344D01*
X57458Y-34260D01*
X57499Y-34167D01*
X57500Y-34160D01*
X57532Y-34240D01*
X57587Y-34327D01*
X57658Y-34401D01*
X57743Y-34459D01*
X57837Y-34501D01*
X57937Y-34523D01*
X58040Y-34525D01*
X58141Y-34507D01*
X58237Y-34470D01*
X58324Y-34415D01*
X58398Y-34344D01*
X58458Y-34260D01*
X58499Y-34167D01*
X58500Y-34160D01*
X58532Y-34240D01*
X58587Y-34327D01*
X58658Y-34401D01*
X58743Y-34459D01*
X58837Y-34501D01*
X58937Y-34523D01*
X59040Y-34525D01*
X59141Y-34507D01*
X59237Y-34470D01*
X59324Y-34415D01*
X59398Y-34344D01*
X59458Y-34260D01*
X59499Y-34167D01*
X59500Y-34160D01*
X59532Y-34240D01*
X59587Y-34327D01*
X59658Y-34401D01*
X59743Y-34459D01*
X59837Y-34501D01*
X59937Y-34523D01*
X60040Y-34525D01*
X60141Y-34507D01*
X60237Y-34470D01*
X60324Y-34415D01*
X60398Y-34344D01*
X60458Y-34260D01*
X60499Y-34167D01*
X60500Y-34160D01*
X60532Y-34240D01*
X60587Y-34327D01*
X60658Y-34401D01*
X60743Y-34459D01*
X60837Y-34501D01*
X60937Y-34523D01*
X61040Y-34525D01*
X61141Y-34507D01*
X61237Y-34470D01*
X61324Y-34415D01*
X61398Y-34344D01*
X61458Y-34260D01*
X61499Y-34167D01*
X61500Y-34160D01*
X61532Y-34240D01*
X61587Y-34327D01*
X61658Y-34401D01*
X61743Y-34459D01*
X61837Y-34501D01*
X61937Y-34523D01*
X62040Y-34525D01*
X62141Y-34507D01*
X62237Y-34470D01*
X62324Y-34415D01*
X62398Y-34344D01*
X62458Y-34260D01*
X62499Y-34167D01*
X62500Y-34160D01*
X62532Y-34240D01*
X62587Y-34327D01*
X62658Y-34401D01*
X62743Y-34459D01*
X62837Y-34501D01*
X62937Y-34523D01*
X63040Y-34525D01*
X63141Y-34507D01*
X63237Y-34470D01*
X63324Y-34415D01*
X63325Y-34414D01*
X63325Y-40587D01*
X63325Y-40587D01*
G37*
G54D18*
X63325Y-40587D02*
X63251Y-40537D01*
X63249Y-40536D01*
X63249Y-36570D01*
X63249Y-36531D01*
X63249Y-35930D01*
X63241Y-35892D01*
X63226Y-35856D01*
X63205Y-35823D01*
X63177Y-35796D01*
X63145Y-35774D01*
X63109Y-35759D01*
X63070Y-35751D01*
X63031Y-35751D01*
X62430Y-35751D01*
X62392Y-35759D01*
X62356Y-35774D01*
X62323Y-35795D01*
X62296Y-35823D01*
X62274Y-35855D01*
X62259Y-35891D01*
X62251Y-35930D01*
X62251Y-35969D01*
X62251Y-36570D01*
X62259Y-36608D01*
X62274Y-36644D01*
X62295Y-36677D01*
X62323Y-36704D01*
X62355Y-36726D01*
X62391Y-36741D01*
X62430Y-36749D01*
X62469Y-36749D01*
X63070Y-36749D01*
X63108Y-36741D01*
X63144Y-36726D01*
X63177Y-36705D01*
X63204Y-36677D01*
X63226Y-36645D01*
X63241Y-36609D01*
X63249Y-36570D01*
X63249Y-40536D01*
X63156Y-40497D01*
X63055Y-40476D01*
X62953Y-40476D01*
X62852Y-40495D01*
X62756Y-40533D01*
X62670Y-40589D01*
X62597Y-40661D01*
X62539Y-40746D01*
X62499Y-40836D01*
X62465Y-40753D01*
X62408Y-40668D01*
X62336Y-40595D01*
X62251Y-40537D01*
X62156Y-40497D01*
X62055Y-40476D01*
X61953Y-40476D01*
X61852Y-40495D01*
X61756Y-40533D01*
X61670Y-40589D01*
X61597Y-40661D01*
X61539Y-40746D01*
X61499Y-40836D01*
X61465Y-40753D01*
X61408Y-40668D01*
X61336Y-40595D01*
X61251Y-40537D01*
X61156Y-40497D01*
X61055Y-40476D01*
X60953Y-40476D01*
X60852Y-40495D01*
X60756Y-40533D01*
X60670Y-40589D01*
X60597Y-40661D01*
X60539Y-40746D01*
X60499Y-40836D01*
X60465Y-40753D01*
X60408Y-40668D01*
X60336Y-40595D01*
X60251Y-40537D01*
X60156Y-40497D01*
X60055Y-40476D01*
X59993Y-40476D01*
X59993Y-38505D01*
X59993Y-38466D01*
X59993Y-38071D01*
X59993Y-36910D01*
X59993Y-36871D01*
X59993Y-36476D01*
X59985Y-36438D01*
X59970Y-36402D01*
X59949Y-36369D01*
X59947Y-36367D01*
X59969Y-36335D01*
X59984Y-36299D01*
X59992Y-36260D01*
X59992Y-36221D01*
X59992Y-35590D01*
X59984Y-35552D01*
X59969Y-35516D01*
X59948Y-35483D01*
X59920Y-35456D01*
X59888Y-35434D01*
X59852Y-35419D01*
X59813Y-35411D01*
X59774Y-35411D01*
X59517Y-35411D01*
X59479Y-35419D01*
X59469Y-35423D01*
X59459Y-35419D01*
X59420Y-35411D01*
X59381Y-35411D01*
X59124Y-35411D01*
X59086Y-35419D01*
X59075Y-35423D01*
X59065Y-35419D01*
X59026Y-35411D01*
X58987Y-35411D01*
X58730Y-35411D01*
X58692Y-35419D01*
X58681Y-35423D01*
X58671Y-35419D01*
X58632Y-35411D01*
X58593Y-35411D01*
X58336Y-35411D01*
X58298Y-35419D01*
X58288Y-35423D01*
X58278Y-35419D01*
X58239Y-35411D01*
X58200Y-35411D01*
X57943Y-35411D01*
X57905Y-35419D01*
X57894Y-35423D01*
X57884Y-35419D01*
X57845Y-35411D01*
X57806Y-35411D01*
X57549Y-35411D01*
X57511Y-35419D01*
X57500Y-35423D01*
X57490Y-35419D01*
X57451Y-35411D01*
X57412Y-35411D01*
X57155Y-35411D01*
X57117Y-35419D01*
X57106Y-35423D01*
X57096Y-35419D01*
X57057Y-35411D01*
X57018Y-35411D01*
X56761Y-35411D01*
X56723Y-35419D01*
X56713Y-35423D01*
X56703Y-35419D01*
X56664Y-35411D01*
X56625Y-35411D01*
X56368Y-35411D01*
X56330Y-35419D01*
X56319Y-35423D01*
X56309Y-35419D01*
X56270Y-35411D01*
X56231Y-35411D01*
X55974Y-35411D01*
X55936Y-35419D01*
X55925Y-35423D01*
X55915Y-35419D01*
X55876Y-35411D01*
X55837Y-35411D01*
X55580Y-35411D01*
X55542Y-35419D01*
X55532Y-35423D01*
X55522Y-35419D01*
X55483Y-35411D01*
X55444Y-35411D01*
X55187Y-35411D01*
X55149Y-35419D01*
X55113Y-35434D01*
X55080Y-35455D01*
X55053Y-35483D01*
X55031Y-35515D01*
X55016Y-35551D01*
X55008Y-35590D01*
X55008Y-35629D01*
X55008Y-36260D01*
X55016Y-36298D01*
X55031Y-36334D01*
X55052Y-36367D01*
X55053Y-36368D01*
X55053Y-36369D01*
X55031Y-36401D01*
X55016Y-36437D01*
X55008Y-36476D01*
X55008Y-36515D01*
X55008Y-36910D01*
X55016Y-36948D01*
X55031Y-36984D01*
X55052Y-37017D01*
X55080Y-37044D01*
X55112Y-37066D01*
X55148Y-37081D01*
X55187Y-37089D01*
X55226Y-37089D01*
X55483Y-37089D01*
X55521Y-37081D01*
X55531Y-37076D01*
X55542Y-37081D01*
X55581Y-37089D01*
X55620Y-37089D01*
X55877Y-37089D01*
X55915Y-37081D01*
X55925Y-37076D01*
X55935Y-37081D01*
X55974Y-37089D01*
X56013Y-37089D01*
X56270Y-37089D01*
X56308Y-37081D01*
X56318Y-37076D01*
X56329Y-37081D01*
X56368Y-37089D01*
X56407Y-37089D01*
X56664Y-37089D01*
X56702Y-37081D01*
X56712Y-37076D01*
X56723Y-37081D01*
X56762Y-37089D01*
X56801Y-37089D01*
X57058Y-37089D01*
X57096Y-37081D01*
X57106Y-37076D01*
X57117Y-37081D01*
X57156Y-37089D01*
X57195Y-37089D01*
X57452Y-37089D01*
X57490Y-37081D01*
X57500Y-37076D01*
X57510Y-37081D01*
X57549Y-37089D01*
X57588Y-37089D01*
X57845Y-37089D01*
X57883Y-37081D01*
X57893Y-37076D01*
X57904Y-37081D01*
X57943Y-37089D01*
X57982Y-37089D01*
X58239Y-37089D01*
X58277Y-37081D01*
X58287Y-37076D01*
X58298Y-37081D01*
X58337Y-37089D01*
X58376Y-37089D01*
X58633Y-37089D01*
X58671Y-37081D01*
X58681Y-37076D01*
X58691Y-37081D01*
X58730Y-37089D01*
X58769Y-37089D01*
X59026Y-37089D01*
X59064Y-37081D01*
X59074Y-37076D01*
X59085Y-37081D01*
X59124Y-37089D01*
X59163Y-37089D01*
X59420Y-37089D01*
X59458Y-37081D01*
X59468Y-37076D01*
X59479Y-37081D01*
X59518Y-37089D01*
X59557Y-37089D01*
X59814Y-37089D01*
X59852Y-37081D01*
X59888Y-37066D01*
X59921Y-37045D01*
X59948Y-37017D01*
X59970Y-36985D01*
X59985Y-36949D01*
X59993Y-36910D01*
X59993Y-38071D01*
X59985Y-38033D01*
X59970Y-37997D01*
X59949Y-37964D01*
X59921Y-37937D01*
X59889Y-37915D01*
X59853Y-37900D01*
X59814Y-37892D01*
X59775Y-37892D01*
X59518Y-37892D01*
X59480Y-37900D01*
X59469Y-37904D01*
X59459Y-37900D01*
X59420Y-37892D01*
X59381Y-37892D01*
X59124Y-37892D01*
X59086Y-37900D01*
X59075Y-37904D01*
X59065Y-37900D01*
X59026Y-37892D01*
X58987Y-37892D01*
X58730Y-37892D01*
X58692Y-37900D01*
X58682Y-37904D01*
X58672Y-37900D01*
X58633Y-37892D01*
X58594Y-37892D01*
X58337Y-37892D01*
X58299Y-37900D01*
X58288Y-37904D01*
X58278Y-37900D01*
X58239Y-37892D01*
X58200Y-37892D01*
X57943Y-37892D01*
X57905Y-37900D01*
X57894Y-37904D01*
X57884Y-37900D01*
X57845Y-37892D01*
X57806Y-37892D01*
X57549Y-37892D01*
X57511Y-37900D01*
X57501Y-37904D01*
X57491Y-37900D01*
X57452Y-37892D01*
X57413Y-37892D01*
X57156Y-37892D01*
X57118Y-37900D01*
X57107Y-37904D01*
X57097Y-37900D01*
X57058Y-37892D01*
X57019Y-37892D01*
X56762Y-37892D01*
X56724Y-37900D01*
X56713Y-37904D01*
X56703Y-37900D01*
X56664Y-37892D01*
X56625Y-37892D01*
X56368Y-37892D01*
X56330Y-37900D01*
X56319Y-37904D01*
X56309Y-37900D01*
X56270Y-37892D01*
X56231Y-37892D01*
X55974Y-37892D01*
X55936Y-37900D01*
X55926Y-37904D01*
X55916Y-37900D01*
X55877Y-37892D01*
X55838Y-37892D01*
X55581Y-37892D01*
X55543Y-37900D01*
X55532Y-37904D01*
X55522Y-37900D01*
X55483Y-37892D01*
X55444Y-37892D01*
X55187Y-37892D01*
X55149Y-37900D01*
X55113Y-37915D01*
X55080Y-37936D01*
X55053Y-37964D01*
X55031Y-37996D01*
X55016Y-38032D01*
X55008Y-38071D01*
X55008Y-38110D01*
X55008Y-38505D01*
X55016Y-38543D01*
X55031Y-38579D01*
X55052Y-38612D01*
X55055Y-38614D01*
X55055Y-38630D01*
X55053Y-38633D01*
X55031Y-38665D01*
X55016Y-38701D01*
X55008Y-38740D01*
X55008Y-38779D01*
X55008Y-39410D01*
X55016Y-39448D01*
X55031Y-39484D01*
X55052Y-39517D01*
X55080Y-39544D01*
X55112Y-39566D01*
X55148Y-39581D01*
X55187Y-39589D01*
X55226Y-39589D01*
X55483Y-39589D01*
X55521Y-39581D01*
X55531Y-39576D01*
X55541Y-39581D01*
X55580Y-39589D01*
X55619Y-39589D01*
X55876Y-39589D01*
X55914Y-39581D01*
X55924Y-39576D01*
X55935Y-39581D01*
X55974Y-39589D01*
X56013Y-39589D01*
X56270Y-39589D01*
X56308Y-39581D01*
X56318Y-39576D01*
X56329Y-39581D01*
X56368Y-39589D01*
X56407Y-39589D01*
X56664Y-39589D01*
X56702Y-39581D01*
X56712Y-39576D01*
X56722Y-39581D01*
X56761Y-39589D01*
X56800Y-39589D01*
X57057Y-39589D01*
X57095Y-39581D01*
X57105Y-39576D01*
X57116Y-39581D01*
X57155Y-39589D01*
X57194Y-39589D01*
X57451Y-39589D01*
X57489Y-39581D01*
X57499Y-39576D01*
X57510Y-39581D01*
X57549Y-39589D01*
X57588Y-39589D01*
X57845Y-39589D01*
X57883Y-39581D01*
X57893Y-39576D01*
X57904Y-39581D01*
X57943Y-39589D01*
X57982Y-39589D01*
X58239Y-39589D01*
X58277Y-39581D01*
X58287Y-39576D01*
X58297Y-39581D01*
X58336Y-39589D01*
X58375Y-39589D01*
X58632Y-39589D01*
X58670Y-39581D01*
X58680Y-39576D01*
X58691Y-39581D01*
X58730Y-39589D01*
X58769Y-39589D01*
X59026Y-39589D01*
X59064Y-39581D01*
X59074Y-39576D01*
X59085Y-39581D01*
X59124Y-39589D01*
X59163Y-39589D01*
X59420Y-39589D01*
X59458Y-39581D01*
X59468Y-39576D01*
X59478Y-39581D01*
X59517Y-39589D01*
X59556Y-39589D01*
X59813Y-39589D01*
X59851Y-39581D01*
X59887Y-39566D01*
X59920Y-39545D01*
X59947Y-39517D01*
X59969Y-39485D01*
X59984Y-39449D01*
X59992Y-39410D01*
X59992Y-39371D01*
X59992Y-38740D01*
X59984Y-38702D01*
X59969Y-38666D01*
X59948Y-38633D01*
X59945Y-38630D01*
X59945Y-38615D01*
X59948Y-38612D01*
X59970Y-38580D01*
X59985Y-38544D01*
X59993Y-38505D01*
X59993Y-40476D01*
X59953Y-40476D01*
X59852Y-40495D01*
X59756Y-40533D01*
X59670Y-40589D01*
X59597Y-40661D01*
X59539Y-40746D01*
X59499Y-40836D01*
X59465Y-40753D01*
X59408Y-40668D01*
X59336Y-40595D01*
X59251Y-40537D01*
X59156Y-40497D01*
X59055Y-40476D01*
X58953Y-40476D01*
X58852Y-40495D01*
X58756Y-40533D01*
X58670Y-40589D01*
X58597Y-40661D01*
X58539Y-40746D01*
X58499Y-40836D01*
X58465Y-40753D01*
X58408Y-40668D01*
X58336Y-40595D01*
X58251Y-40537D01*
X58156Y-40497D01*
X58055Y-40476D01*
X57953Y-40476D01*
X57852Y-40495D01*
X57756Y-40533D01*
X57670Y-40589D01*
X57597Y-40661D01*
X57539Y-40746D01*
X57499Y-40836D01*
X57465Y-40753D01*
X57408Y-40668D01*
X57336Y-40595D01*
X57251Y-40537D01*
X57156Y-40497D01*
X57055Y-40476D01*
X56953Y-40476D01*
X56852Y-40495D01*
X56756Y-40533D01*
X56670Y-40589D01*
X56597Y-40661D01*
X56539Y-40746D01*
X56499Y-40836D01*
X56465Y-40753D01*
X56408Y-40668D01*
X56336Y-40595D01*
X56251Y-40537D01*
X56156Y-40497D01*
X56055Y-40476D01*
X55953Y-40476D01*
X55852Y-40495D01*
X55756Y-40533D01*
X55670Y-40589D01*
X55597Y-40661D01*
X55539Y-40746D01*
X55499Y-40836D01*
X55465Y-40753D01*
X55408Y-40668D01*
X55336Y-40595D01*
X55251Y-40537D01*
X55156Y-40497D01*
X55055Y-40476D01*
X54953Y-40476D01*
X54852Y-40495D01*
X54756Y-40533D01*
X54670Y-40589D01*
X54597Y-40661D01*
X54539Y-40746D01*
X54499Y-40836D01*
X54465Y-40753D01*
X54408Y-40668D01*
X54336Y-40595D01*
X54251Y-40537D01*
X54156Y-40497D01*
X54055Y-40476D01*
X53953Y-40476D01*
X53852Y-40495D01*
X53756Y-40533D01*
X53670Y-40589D01*
X53597Y-40661D01*
X53539Y-40746D01*
X53499Y-40836D01*
X53465Y-40753D01*
X53408Y-40668D01*
X53336Y-40595D01*
X53251Y-40537D01*
X53156Y-40497D01*
X53055Y-40476D01*
X52953Y-40476D01*
X52852Y-40495D01*
X52756Y-40533D01*
X52749Y-40537D01*
X52749Y-36320D01*
X52749Y-36281D01*
X52749Y-35680D01*
X52741Y-35642D01*
X52726Y-35606D01*
X52705Y-35573D01*
X52677Y-35546D01*
X52645Y-35524D01*
X52609Y-35509D01*
X52570Y-35501D01*
X52531Y-35501D01*
X51930Y-35501D01*
X51892Y-35509D01*
X51856Y-35524D01*
X51823Y-35545D01*
X51796Y-35573D01*
X51774Y-35605D01*
X51759Y-35641D01*
X51751Y-35680D01*
X51751Y-35719D01*
X51751Y-36320D01*
X51759Y-36358D01*
X51774Y-36394D01*
X51795Y-36427D01*
X51823Y-36454D01*
X51855Y-36476D01*
X51891Y-36491D01*
X51930Y-36499D01*
X51969Y-36499D01*
X52570Y-36499D01*
X52608Y-36491D01*
X52644Y-36476D01*
X52677Y-36455D01*
X52704Y-36427D01*
X52726Y-36395D01*
X52741Y-36359D01*
X52749Y-36320D01*
X52749Y-40537D01*
X52670Y-40589D01*
X52597Y-40661D01*
X52539Y-40746D01*
X52524Y-40780D01*
X52524Y-40655D01*
X52516Y-40617D01*
X52501Y-40581D01*
X52480Y-40548D01*
X52452Y-40521D01*
X52420Y-40499D01*
X52384Y-40484D01*
X52345Y-40476D01*
X52306Y-40476D01*
X51675Y-40476D01*
X51675Y-34524D01*
X51694Y-34524D01*
X52345Y-34524D01*
X52383Y-34516D01*
X52419Y-34501D01*
X52452Y-34480D01*
X52479Y-34452D01*
X52501Y-34420D01*
X52516Y-34384D01*
X52524Y-34345D01*
X52524Y-34306D01*
X52524Y-34220D01*
X52532Y-34240D01*
X52587Y-34327D01*
X52658Y-34401D01*
X52743Y-34459D01*
X52837Y-34501D01*
X52937Y-34523D01*
X53040Y-34525D01*
X53141Y-34507D01*
X53237Y-34470D01*
X53324Y-34415D01*
X53398Y-34344D01*
X53458Y-34260D01*
X53499Y-34167D01*
X53500Y-34160D01*
X53532Y-34240D01*
X53587Y-34327D01*
X53658Y-34401D01*
X53743Y-34459D01*
X53837Y-34501D01*
X53937Y-34523D01*
X54040Y-34525D01*
X54141Y-34507D01*
X54237Y-34470D01*
X54324Y-34415D01*
X54398Y-34344D01*
X54458Y-34260D01*
X54499Y-34167D01*
X54500Y-34160D01*
X54532Y-34240D01*
X54587Y-34327D01*
X54658Y-34401D01*
X54743Y-34459D01*
X54837Y-34501D01*
X54937Y-34523D01*
X55040Y-34525D01*
X55141Y-34507D01*
X55237Y-34470D01*
X55324Y-34415D01*
X55398Y-34344D01*
X55458Y-34260D01*
X55499Y-34167D01*
X55500Y-34160D01*
X55532Y-34240D01*
X55587Y-34327D01*
X55658Y-34401D01*
X55743Y-34459D01*
X55837Y-34501D01*
X55937Y-34523D01*
X56040Y-34525D01*
X56141Y-34507D01*
X56237Y-34470D01*
X56324Y-34415D01*
X56398Y-34344D01*
X56458Y-34260D01*
X56499Y-34167D01*
X56500Y-34160D01*
X56532Y-34240D01*
X56587Y-34327D01*
X56658Y-34401D01*
X56743Y-34459D01*
X56837Y-34501D01*
X56937Y-34523D01*
X57040Y-34525D01*
X57141Y-34507D01*
X57237Y-34470D01*
X57324Y-34415D01*
X57398Y-34344D01*
X57458Y-34260D01*
X57499Y-34167D01*
X57500Y-34160D01*
X57532Y-34240D01*
X57587Y-34327D01*
X57658Y-34401D01*
X57743Y-34459D01*
X57837Y-34501D01*
X57937Y-34523D01*
X58040Y-34525D01*
X58141Y-34507D01*
X58237Y-34470D01*
X58324Y-34415D01*
X58398Y-34344D01*
X58458Y-34260D01*
X58499Y-34167D01*
X58500Y-34160D01*
X58532Y-34240D01*
X58587Y-34327D01*
X58658Y-34401D01*
X58743Y-34459D01*
X58837Y-34501D01*
X58937Y-34523D01*
X59040Y-34525D01*
X59141Y-34507D01*
X59237Y-34470D01*
X59324Y-34415D01*
X59398Y-34344D01*
X59458Y-34260D01*
X59499Y-34167D01*
X59500Y-34160D01*
X59532Y-34240D01*
X59587Y-34327D01*
X59658Y-34401D01*
X59743Y-34459D01*
X59837Y-34501D01*
X59937Y-34523D01*
X60040Y-34525D01*
X60141Y-34507D01*
X60237Y-34470D01*
X60324Y-34415D01*
X60398Y-34344D01*
X60458Y-34260D01*
X60499Y-34167D01*
X60500Y-34160D01*
X60532Y-34240D01*
X60587Y-34327D01*
X60658Y-34401D01*
X60743Y-34459D01*
X60837Y-34501D01*
X60937Y-34523D01*
X61040Y-34525D01*
X61141Y-34507D01*
X61237Y-34470D01*
X61324Y-34415D01*
X61398Y-34344D01*
X61458Y-34260D01*
X61499Y-34167D01*
X61500Y-34160D01*
X61532Y-34240D01*
X61587Y-34327D01*
X61658Y-34401D01*
X61743Y-34459D01*
X61837Y-34501D01*
X61937Y-34523D01*
X62040Y-34525D01*
X62141Y-34507D01*
X62237Y-34470D01*
X62324Y-34415D01*
X62398Y-34344D01*
X62458Y-34260D01*
X62499Y-34167D01*
X62500Y-34160D01*
X62532Y-34240D01*
X62587Y-34327D01*
X62658Y-34401D01*
X62743Y-34459D01*
X62837Y-34501D01*
X62937Y-34523D01*
X63040Y-34525D01*
X63141Y-34507D01*
X63237Y-34470D01*
X63324Y-34415D01*
X63325Y-34414D01*
X63325Y-40587D01*
M02*
