M48
INCH,TZ
T1C0.013
T2C0.040
%
G90
G05
T1
X055335Y-035768
X055335Y-039232
X055728Y-035768
X055728Y-039232
X056122Y-035768
X056122Y-039232
X056516Y-035768
X056516Y-039232
X056909Y-035768
X056909Y-039232
X057303Y-035768
X057303Y-039232
X057697Y-035768
X057697Y-039232
X058091Y-035768
X058091Y-039232
X058484Y-035768
X058484Y-039232
X058878Y-035768
X058878Y-039232
X059272Y-035768
X059272Y-039232
X059665Y-035768
X059665Y-039232
T2
X052000Y-034000
X052000Y-041000
X052250Y-036000
X052250Y-039000
X053000Y-034000
X053000Y-041000
X054000Y-034000
X054000Y-041000
X055000Y-034000
X055000Y-041000
X056000Y-034000
X056000Y-041000
X057000Y-034000
X057000Y-041000
X058000Y-034000
X058000Y-041000
X059000Y-034000
X059000Y-041000
X060000Y-034000
X060000Y-041000
X061000Y-034000
X061000Y-041000
X062000Y-034000
X062000Y-041000
X062750Y-036250
X062750Y-038750
X063000Y-034000
X063000Y-041000
T0
M30
