G04 (created by PCBNEW-RS274X (2012-jan-04)-stable) date Sun 02 Sep 2012 08:45:38 PM CEST*
G01*
G70*
G90*
%MOIN*%
G04 Gerber Fmt 3.4, Leading zero omitted, Abs format*
%FSLAX34Y34*%
G04 APERTURE LIST*
%ADD10C,0.006000*%
%ADD11C,0.010000*%
%ADD12R,0.060000X0.060000*%
%ADD13R,0.065000X0.065000*%
%ADD14C,0.065000*%
%ADD15R,0.025600X0.063000*%
%ADD16R,0.025600X0.039400*%
G04 APERTURE END LIST*
G54D10*
G54D11*
X61304Y-36361D02*
X61037Y-36361D01*
X61075Y-36361D02*
X61056Y-36380D01*
X61037Y-36418D01*
X61037Y-36476D01*
X61056Y-36514D01*
X61094Y-36533D01*
X61304Y-36533D01*
X61094Y-36533D02*
X61056Y-36552D01*
X61037Y-36590D01*
X61037Y-36647D01*
X61056Y-36685D01*
X61094Y-36704D01*
X61304Y-36704D01*
X61304Y-37066D02*
X61094Y-37066D01*
X61056Y-37047D01*
X61037Y-37009D01*
X61037Y-36932D01*
X61056Y-36894D01*
X61285Y-37066D02*
X61304Y-37028D01*
X61304Y-36932D01*
X61285Y-36894D01*
X61247Y-36875D01*
X61209Y-36875D01*
X61171Y-36894D01*
X61152Y-36932D01*
X61152Y-37028D01*
X61132Y-37066D01*
X61304Y-37428D02*
X60904Y-37428D01*
X61285Y-37428D02*
X61304Y-37390D01*
X61304Y-37313D01*
X61285Y-37275D01*
X61266Y-37256D01*
X61228Y-37237D01*
X61113Y-37237D01*
X61075Y-37256D01*
X61056Y-37275D01*
X61037Y-37313D01*
X61037Y-37390D01*
X61056Y-37428D01*
X61285Y-37771D02*
X61304Y-37733D01*
X61304Y-37656D01*
X61285Y-37618D01*
X61247Y-37599D01*
X61094Y-37599D01*
X61056Y-37618D01*
X61037Y-37656D01*
X61037Y-37733D01*
X61056Y-37771D01*
X61094Y-37790D01*
X61132Y-37790D01*
X61171Y-37599D01*
X61037Y-38209D02*
X61037Y-38361D01*
X61304Y-38266D02*
X60961Y-38266D01*
X60923Y-38285D01*
X60904Y-38323D01*
X60904Y-38361D01*
X61304Y-38552D02*
X61285Y-38514D01*
X61266Y-38495D01*
X61228Y-38476D01*
X61113Y-38476D01*
X61075Y-38495D01*
X61056Y-38514D01*
X61037Y-38552D01*
X61037Y-38610D01*
X61056Y-38648D01*
X61075Y-38667D01*
X61113Y-38686D01*
X61228Y-38686D01*
X61266Y-38667D01*
X61285Y-38648D01*
X61304Y-38610D01*
X61304Y-38552D01*
X61304Y-38857D02*
X61037Y-38857D01*
X61113Y-38857D02*
X61075Y-38876D01*
X61056Y-38895D01*
X61037Y-38933D01*
X61037Y-38972D01*
X61964Y-36448D02*
X61564Y-36448D01*
X61850Y-36582D01*
X61564Y-36715D01*
X61964Y-36715D01*
X61754Y-37039D02*
X61773Y-37096D01*
X61792Y-37115D01*
X61831Y-37134D01*
X61888Y-37134D01*
X61926Y-37115D01*
X61945Y-37096D01*
X61964Y-37058D01*
X61964Y-36905D01*
X61564Y-36905D01*
X61564Y-37039D01*
X61583Y-37077D01*
X61602Y-37096D01*
X61640Y-37115D01*
X61678Y-37115D01*
X61716Y-37096D01*
X61735Y-37077D01*
X61754Y-37039D01*
X61754Y-36905D01*
X61964Y-37305D02*
X61564Y-37305D01*
X61564Y-37686D02*
X61564Y-37495D01*
X61754Y-37476D01*
X61735Y-37495D01*
X61716Y-37533D01*
X61716Y-37629D01*
X61735Y-37667D01*
X61754Y-37686D01*
X61792Y-37705D01*
X61888Y-37705D01*
X61926Y-37686D01*
X61945Y-37667D01*
X61964Y-37629D01*
X61964Y-37533D01*
X61945Y-37495D01*
X61926Y-37476D01*
X61564Y-37952D02*
X61564Y-37991D01*
X61583Y-38029D01*
X61602Y-38048D01*
X61640Y-38067D01*
X61716Y-38086D01*
X61812Y-38086D01*
X61888Y-38067D01*
X61926Y-38048D01*
X61945Y-38029D01*
X61964Y-37991D01*
X61964Y-37952D01*
X61945Y-37914D01*
X61926Y-37895D01*
X61888Y-37876D01*
X61812Y-37857D01*
X61716Y-37857D01*
X61640Y-37876D01*
X61602Y-37895D01*
X61583Y-37914D01*
X61564Y-37952D01*
X61564Y-38219D02*
X61564Y-38467D01*
X61716Y-38333D01*
X61716Y-38391D01*
X61735Y-38429D01*
X61754Y-38448D01*
X61792Y-38467D01*
X61888Y-38467D01*
X61926Y-38448D01*
X61945Y-38429D01*
X61964Y-38391D01*
X61964Y-38276D01*
X61945Y-38238D01*
X61926Y-38219D01*
X61564Y-38714D02*
X61564Y-38753D01*
X61583Y-38791D01*
X61602Y-38810D01*
X61640Y-38829D01*
X61716Y-38848D01*
X61812Y-38848D01*
X61888Y-38829D01*
X61926Y-38810D01*
X61945Y-38791D01*
X61964Y-38753D01*
X61964Y-38714D01*
X61945Y-38676D01*
X61926Y-38657D01*
X61888Y-38638D01*
X61812Y-38619D01*
X61716Y-38619D01*
X61640Y-38638D01*
X61602Y-38657D01*
X61583Y-38676D01*
X61564Y-38714D01*
X60380Y-36673D02*
X60399Y-36692D01*
X60418Y-36673D01*
X60399Y-36654D01*
X60380Y-36673D01*
X60418Y-36673D01*
X60266Y-36673D02*
X60037Y-36654D01*
X60018Y-36673D01*
X60037Y-36692D01*
X60266Y-36673D01*
X60018Y-36673D01*
X60399Y-37340D02*
X60418Y-37302D01*
X60418Y-37225D01*
X60399Y-37187D01*
X60380Y-37168D01*
X60342Y-37149D01*
X60227Y-37149D01*
X60189Y-37168D01*
X60170Y-37187D01*
X60151Y-37225D01*
X60151Y-37302D01*
X60170Y-37340D01*
X60151Y-37683D02*
X60418Y-37683D01*
X60151Y-37511D02*
X60361Y-37511D01*
X60399Y-37530D01*
X60418Y-37568D01*
X60418Y-37626D01*
X60399Y-37664D01*
X60380Y-37683D01*
X60151Y-37816D02*
X60151Y-37968D01*
X60018Y-37873D02*
X60361Y-37873D01*
X60399Y-37892D01*
X60418Y-37930D01*
X60418Y-37968D01*
X60380Y-38407D02*
X60399Y-38426D01*
X60418Y-38407D01*
X60399Y-38388D01*
X60380Y-38407D01*
X60418Y-38407D01*
X60266Y-38407D02*
X60037Y-38388D01*
X60018Y-38407D01*
X60037Y-38426D01*
X60266Y-38407D01*
X60018Y-38407D01*
X53430Y-36057D02*
X53220Y-36057D01*
X53182Y-36038D01*
X53163Y-36000D01*
X53163Y-35923D01*
X53182Y-35885D01*
X53411Y-36057D02*
X53430Y-36019D01*
X53430Y-35923D01*
X53411Y-35885D01*
X53373Y-35866D01*
X53335Y-35866D01*
X53297Y-35885D01*
X53278Y-35923D01*
X53278Y-36019D01*
X53258Y-36057D01*
X53163Y-36247D02*
X53430Y-36247D01*
X53201Y-36247D02*
X53182Y-36266D01*
X53163Y-36304D01*
X53163Y-36362D01*
X53182Y-36400D01*
X53220Y-36419D01*
X53430Y-36419D01*
X53430Y-36781D02*
X53030Y-36781D01*
X53411Y-36781D02*
X53430Y-36743D01*
X53430Y-36666D01*
X53411Y-36628D01*
X53392Y-36609D01*
X53354Y-36590D01*
X53239Y-36590D01*
X53201Y-36609D01*
X53182Y-36628D01*
X53163Y-36666D01*
X53163Y-36743D01*
X53182Y-36781D01*
X53163Y-37219D02*
X53163Y-37371D01*
X53030Y-37276D02*
X53373Y-37276D01*
X53411Y-37295D01*
X53430Y-37333D01*
X53430Y-37371D01*
X53430Y-37505D02*
X53030Y-37505D01*
X53430Y-37677D02*
X53220Y-37677D01*
X53182Y-37658D01*
X53163Y-37620D01*
X53163Y-37562D01*
X53182Y-37524D01*
X53201Y-37505D01*
X53411Y-38020D02*
X53430Y-37982D01*
X53430Y-37905D01*
X53411Y-37867D01*
X53373Y-37848D01*
X53220Y-37848D01*
X53182Y-37867D01*
X53163Y-37905D01*
X53163Y-37982D01*
X53182Y-38020D01*
X53220Y-38039D01*
X53258Y-38039D01*
X53297Y-37848D01*
X53430Y-38572D02*
X53411Y-38534D01*
X53392Y-38515D01*
X53354Y-38496D01*
X53239Y-38496D01*
X53201Y-38515D01*
X53182Y-38534D01*
X53163Y-38572D01*
X53163Y-38630D01*
X53182Y-38668D01*
X53201Y-38687D01*
X53239Y-38706D01*
X53354Y-38706D01*
X53392Y-38687D01*
X53411Y-38668D01*
X53430Y-38630D01*
X53430Y-38572D01*
X53163Y-38877D02*
X53430Y-38877D01*
X53201Y-38877D02*
X53182Y-38896D01*
X53163Y-38934D01*
X53163Y-38992D01*
X53182Y-39030D01*
X53220Y-39049D01*
X53430Y-39049D01*
X53411Y-39392D02*
X53430Y-39354D01*
X53430Y-39277D01*
X53411Y-39239D01*
X53373Y-39220D01*
X53220Y-39220D01*
X53182Y-39239D01*
X53163Y-39277D01*
X53163Y-39354D01*
X53182Y-39392D01*
X53220Y-39411D01*
X53258Y-39411D01*
X53297Y-39220D01*
X53823Y-36857D02*
X54090Y-36933D01*
X53899Y-37010D01*
X54090Y-37086D01*
X53823Y-37162D01*
X54090Y-37314D02*
X53690Y-37314D01*
X54090Y-37486D02*
X53880Y-37486D01*
X53842Y-37467D01*
X53823Y-37429D01*
X53823Y-37371D01*
X53842Y-37333D01*
X53861Y-37314D01*
X54090Y-37676D02*
X53823Y-37676D01*
X53690Y-37676D02*
X53709Y-37657D01*
X53728Y-37676D01*
X53709Y-37695D01*
X53690Y-37676D01*
X53728Y-37676D01*
X54071Y-38038D02*
X54090Y-38000D01*
X54090Y-37923D01*
X54071Y-37885D01*
X54052Y-37866D01*
X54014Y-37847D01*
X53899Y-37847D01*
X53861Y-37866D01*
X53842Y-37885D01*
X53823Y-37923D01*
X53823Y-38000D01*
X53842Y-38038D01*
X54090Y-38209D02*
X53690Y-38209D01*
X54090Y-38381D02*
X53880Y-38381D01*
X53842Y-38362D01*
X53823Y-38324D01*
X53823Y-38266D01*
X53842Y-38228D01*
X53861Y-38209D01*
X54750Y-36552D02*
X54483Y-36552D01*
X54559Y-36552D02*
X54521Y-36571D01*
X54502Y-36590D01*
X54483Y-36628D01*
X54483Y-36667D01*
X54731Y-36953D02*
X54750Y-36915D01*
X54750Y-36838D01*
X54731Y-36800D01*
X54693Y-36781D01*
X54540Y-36781D01*
X54502Y-36800D01*
X54483Y-36838D01*
X54483Y-36915D01*
X54502Y-36953D01*
X54540Y-36972D01*
X54578Y-36972D01*
X54617Y-36781D01*
X54750Y-37143D02*
X54483Y-37143D01*
X54521Y-37143D02*
X54502Y-37162D01*
X54483Y-37200D01*
X54483Y-37258D01*
X54502Y-37296D01*
X54540Y-37315D01*
X54750Y-37315D01*
X54540Y-37315D02*
X54502Y-37334D01*
X54483Y-37372D01*
X54483Y-37429D01*
X54502Y-37467D01*
X54540Y-37486D01*
X54750Y-37486D01*
X54750Y-37848D02*
X54540Y-37848D01*
X54502Y-37829D01*
X54483Y-37791D01*
X54483Y-37714D01*
X54502Y-37676D01*
X54731Y-37848D02*
X54750Y-37810D01*
X54750Y-37714D01*
X54731Y-37676D01*
X54693Y-37657D01*
X54655Y-37657D01*
X54617Y-37676D01*
X54598Y-37714D01*
X54598Y-37810D01*
X54578Y-37848D01*
X54750Y-38038D02*
X54483Y-38038D01*
X54350Y-38038D02*
X54369Y-38019D01*
X54388Y-38038D01*
X54369Y-38057D01*
X54350Y-38038D01*
X54388Y-38038D01*
X54483Y-38228D02*
X54750Y-38228D01*
X54521Y-38228D02*
X54502Y-38247D01*
X54483Y-38285D01*
X54483Y-38343D01*
X54502Y-38381D01*
X54540Y-38400D01*
X54750Y-38400D01*
X54731Y-38571D02*
X54750Y-38609D01*
X54750Y-38685D01*
X54731Y-38724D01*
X54693Y-38743D01*
X54674Y-38743D01*
X54636Y-38724D01*
X54617Y-38685D01*
X54617Y-38628D01*
X54598Y-38590D01*
X54559Y-38571D01*
X54540Y-38571D01*
X54502Y-38590D01*
X54483Y-38628D01*
X54483Y-38685D01*
X54502Y-38724D01*
X61636Y-34841D02*
X61636Y-34917D01*
X61483Y-34841D02*
X61483Y-34917D01*
X61312Y-35031D02*
X61178Y-35031D01*
X61121Y-35241D02*
X61312Y-35241D01*
X61312Y-34841D01*
X61121Y-34841D01*
X60893Y-35241D02*
X60931Y-35222D01*
X60950Y-35184D01*
X60950Y-34841D01*
X60740Y-35241D02*
X60740Y-34974D01*
X60740Y-34841D02*
X60759Y-34860D01*
X60740Y-34879D01*
X60721Y-34860D01*
X60740Y-34841D01*
X60740Y-34879D01*
X60550Y-35241D02*
X60550Y-34974D01*
X60550Y-35012D02*
X60531Y-34993D01*
X60493Y-34974D01*
X60435Y-34974D01*
X60397Y-34993D01*
X60378Y-35031D01*
X60378Y-35241D01*
X60378Y-35031D02*
X60359Y-34993D01*
X60321Y-34974D01*
X60264Y-34974D01*
X60226Y-34993D01*
X60207Y-35031D01*
X60207Y-35241D01*
X60017Y-35241D02*
X60017Y-34974D01*
X60017Y-34841D02*
X60036Y-34860D01*
X60017Y-34879D01*
X59998Y-34860D01*
X60017Y-34841D01*
X60017Y-34879D01*
X59827Y-34974D02*
X59827Y-35241D01*
X59827Y-35012D02*
X59808Y-34993D01*
X59770Y-34974D01*
X59712Y-34974D01*
X59674Y-34993D01*
X59655Y-35031D01*
X59655Y-35241D01*
X59293Y-35241D02*
X59293Y-35031D01*
X59312Y-34993D01*
X59350Y-34974D01*
X59427Y-34974D01*
X59465Y-34993D01*
X59293Y-35222D02*
X59331Y-35241D01*
X59427Y-35241D01*
X59465Y-35222D01*
X59484Y-35184D01*
X59484Y-35146D01*
X59465Y-35108D01*
X59427Y-35089D01*
X59331Y-35089D01*
X59293Y-35069D01*
X59160Y-34974D02*
X59008Y-34974D01*
X59103Y-34841D02*
X59103Y-35184D01*
X59084Y-35222D01*
X59046Y-35241D01*
X59008Y-35241D01*
X58721Y-35222D02*
X58759Y-35241D01*
X58836Y-35241D01*
X58874Y-35222D01*
X58893Y-35184D01*
X58893Y-35031D01*
X58874Y-34993D01*
X58836Y-34974D01*
X58759Y-34974D01*
X58721Y-34993D01*
X58702Y-35031D01*
X58702Y-35069D01*
X58893Y-35108D01*
X58054Y-35241D02*
X58054Y-35031D01*
X58073Y-34993D01*
X58111Y-34974D01*
X58188Y-34974D01*
X58226Y-34993D01*
X58054Y-35222D02*
X58092Y-35241D01*
X58188Y-35241D01*
X58226Y-35222D01*
X58245Y-35184D01*
X58245Y-35146D01*
X58226Y-35108D01*
X58188Y-35089D01*
X58092Y-35089D01*
X58054Y-35069D01*
X57807Y-35241D02*
X57845Y-35222D01*
X57864Y-35184D01*
X57864Y-34841D01*
X57597Y-35241D02*
X57635Y-35222D01*
X57654Y-35184D01*
X57654Y-34841D01*
X57082Y-35241D02*
X57120Y-35222D01*
X57139Y-35203D01*
X57158Y-35165D01*
X57158Y-35050D01*
X57139Y-35012D01*
X57120Y-34993D01*
X57082Y-34974D01*
X57024Y-34974D01*
X56986Y-34993D01*
X56967Y-35012D01*
X56948Y-35050D01*
X56948Y-35165D01*
X56967Y-35203D01*
X56986Y-35222D01*
X57024Y-35241D01*
X57082Y-35241D01*
X56834Y-34974D02*
X56682Y-34974D01*
X56777Y-34841D02*
X56777Y-35184D01*
X56758Y-35222D01*
X56720Y-35241D01*
X56682Y-35241D01*
X56548Y-35241D02*
X56548Y-34841D01*
X56376Y-35241D02*
X56376Y-35031D01*
X56395Y-34993D01*
X56433Y-34974D01*
X56491Y-34974D01*
X56529Y-34993D01*
X56548Y-35012D01*
X56033Y-35222D02*
X56071Y-35241D01*
X56148Y-35241D01*
X56186Y-35222D01*
X56205Y-35184D01*
X56205Y-35031D01*
X56186Y-34993D01*
X56148Y-34974D01*
X56071Y-34974D01*
X56033Y-34993D01*
X56014Y-35031D01*
X56014Y-35069D01*
X56205Y-35108D01*
X55843Y-35241D02*
X55843Y-34974D01*
X55843Y-35050D02*
X55824Y-35012D01*
X55805Y-34993D01*
X55767Y-34974D01*
X55728Y-34974D01*
X55347Y-34974D02*
X55195Y-34974D01*
X55290Y-35241D02*
X55290Y-34898D01*
X55271Y-34860D01*
X55233Y-34841D01*
X55195Y-34841D01*
X54889Y-35241D02*
X54889Y-35031D01*
X54908Y-34993D01*
X54946Y-34974D01*
X55023Y-34974D01*
X55061Y-34993D01*
X54889Y-35222D02*
X54927Y-35241D01*
X55023Y-35241D01*
X55061Y-35222D01*
X55080Y-35184D01*
X55080Y-35146D01*
X55061Y-35108D01*
X55023Y-35089D01*
X54927Y-35089D01*
X54889Y-35069D01*
X54527Y-35222D02*
X54565Y-35241D01*
X54642Y-35241D01*
X54680Y-35222D01*
X54699Y-35203D01*
X54718Y-35165D01*
X54718Y-35050D01*
X54699Y-35012D01*
X54680Y-34993D01*
X54642Y-34974D01*
X54565Y-34974D01*
X54527Y-34993D01*
X54413Y-34974D02*
X54261Y-34974D01*
X54356Y-34841D02*
X54356Y-35184D01*
X54337Y-35222D01*
X54299Y-35241D01*
X54261Y-35241D01*
X54070Y-35241D02*
X54108Y-35222D01*
X54127Y-35203D01*
X54146Y-35165D01*
X54146Y-35050D01*
X54127Y-35012D01*
X54108Y-34993D01*
X54070Y-34974D01*
X54012Y-34974D01*
X53974Y-34993D01*
X53955Y-35012D01*
X53936Y-35050D01*
X53936Y-35165D01*
X53955Y-35203D01*
X53974Y-35222D01*
X54012Y-35241D01*
X54070Y-35241D01*
X53765Y-35241D02*
X53765Y-34974D01*
X53765Y-35050D02*
X53746Y-35012D01*
X53727Y-34993D01*
X53689Y-34974D01*
X53650Y-34974D01*
X53536Y-35222D02*
X53498Y-35241D01*
X53422Y-35241D01*
X53383Y-35222D01*
X53364Y-35184D01*
X53364Y-35165D01*
X53383Y-35127D01*
X53422Y-35108D01*
X53479Y-35108D01*
X53517Y-35089D01*
X53536Y-35050D01*
X53536Y-35031D01*
X53517Y-34993D01*
X53479Y-34974D01*
X53422Y-34974D01*
X53383Y-34993D01*
X62359Y-40359D02*
X62359Y-40092D01*
X62359Y-40130D02*
X62340Y-40111D01*
X62302Y-40092D01*
X62244Y-40092D01*
X62206Y-40111D01*
X62187Y-40149D01*
X62187Y-40359D01*
X62187Y-40149D02*
X62168Y-40111D01*
X62130Y-40092D01*
X62073Y-40092D01*
X62035Y-40111D01*
X62016Y-40149D01*
X62016Y-40359D01*
X61654Y-40092D02*
X61654Y-40359D01*
X61826Y-40092D02*
X61826Y-40302D01*
X61807Y-40340D01*
X61769Y-40359D01*
X61711Y-40359D01*
X61673Y-40340D01*
X61654Y-40321D01*
X61483Y-40340D02*
X61445Y-40359D01*
X61369Y-40359D01*
X61330Y-40340D01*
X61311Y-40302D01*
X61311Y-40283D01*
X61330Y-40245D01*
X61369Y-40226D01*
X61426Y-40226D01*
X61464Y-40207D01*
X61483Y-40168D01*
X61483Y-40149D01*
X61464Y-40111D01*
X61426Y-40092D01*
X61369Y-40092D01*
X61330Y-40111D01*
X61197Y-40092D02*
X61045Y-40092D01*
X61140Y-39959D02*
X61140Y-40302D01*
X61121Y-40340D01*
X61083Y-40359D01*
X61045Y-40359D01*
X60606Y-40359D02*
X60606Y-39959D01*
X60606Y-40111D02*
X60568Y-40092D01*
X60491Y-40092D01*
X60453Y-40111D01*
X60434Y-40130D01*
X60415Y-40168D01*
X60415Y-40283D01*
X60434Y-40321D01*
X60453Y-40340D01*
X60491Y-40359D01*
X60568Y-40359D01*
X60606Y-40340D01*
X60091Y-40340D02*
X60129Y-40359D01*
X60206Y-40359D01*
X60244Y-40340D01*
X60263Y-40302D01*
X60263Y-40149D01*
X60244Y-40111D01*
X60206Y-40092D01*
X60129Y-40092D01*
X60091Y-40111D01*
X60072Y-40149D01*
X60072Y-40187D01*
X60263Y-40226D01*
X59653Y-40092D02*
X59501Y-40092D01*
X59596Y-39959D02*
X59596Y-40302D01*
X59577Y-40340D01*
X59539Y-40359D01*
X59501Y-40359D01*
X59367Y-40359D02*
X59367Y-39959D01*
X59195Y-40359D02*
X59195Y-40149D01*
X59214Y-40111D01*
X59252Y-40092D01*
X59310Y-40092D01*
X59348Y-40111D01*
X59367Y-40130D01*
X58852Y-40340D02*
X58890Y-40359D01*
X58967Y-40359D01*
X59005Y-40340D01*
X59024Y-40302D01*
X59024Y-40149D01*
X59005Y-40111D01*
X58967Y-40092D01*
X58890Y-40092D01*
X58852Y-40111D01*
X58833Y-40149D01*
X58833Y-40187D01*
X59024Y-40226D01*
X58414Y-40092D02*
X58262Y-40092D01*
X58357Y-39959D02*
X58357Y-40302D01*
X58338Y-40340D01*
X58300Y-40359D01*
X58262Y-40359D01*
X58128Y-40359D02*
X58128Y-40092D01*
X58128Y-40168D02*
X58109Y-40130D01*
X58090Y-40111D01*
X58052Y-40092D01*
X58013Y-40092D01*
X57708Y-40092D02*
X57708Y-40359D01*
X57880Y-40092D02*
X57880Y-40302D01*
X57861Y-40340D01*
X57823Y-40359D01*
X57765Y-40359D01*
X57727Y-40340D01*
X57708Y-40321D01*
X57575Y-40092D02*
X57423Y-40092D01*
X57518Y-39959D02*
X57518Y-40302D01*
X57499Y-40340D01*
X57461Y-40359D01*
X57423Y-40359D01*
X57289Y-40359D02*
X57289Y-39959D01*
X57117Y-40359D02*
X57117Y-40149D01*
X57136Y-40111D01*
X57174Y-40092D01*
X57232Y-40092D01*
X57270Y-40111D01*
X57289Y-40130D01*
X56946Y-39959D02*
X56946Y-40035D01*
X56793Y-39959D02*
X56793Y-40035D01*
X56317Y-40207D02*
X56012Y-40207D01*
X55536Y-40340D02*
X55479Y-40359D01*
X55383Y-40359D01*
X55345Y-40340D01*
X55326Y-40321D01*
X55307Y-40283D01*
X55307Y-40245D01*
X55326Y-40207D01*
X55345Y-40187D01*
X55383Y-40168D01*
X55460Y-40149D01*
X55498Y-40130D01*
X55517Y-40111D01*
X55536Y-40073D01*
X55536Y-40035D01*
X55517Y-39997D01*
X55498Y-39978D01*
X55460Y-39959D01*
X55364Y-39959D01*
X55307Y-39978D01*
X55136Y-40321D02*
X55117Y-40340D01*
X55136Y-40359D01*
X55155Y-40340D01*
X55136Y-40321D01*
X55136Y-40359D01*
X54641Y-40359D02*
X54641Y-39959D01*
X54641Y-40149D02*
X54412Y-40149D01*
X54412Y-40359D02*
X54412Y-39959D01*
X54165Y-40359D02*
X54203Y-40340D01*
X54222Y-40321D01*
X54241Y-40283D01*
X54241Y-40168D01*
X54222Y-40130D01*
X54203Y-40111D01*
X54165Y-40092D01*
X54107Y-40092D01*
X54069Y-40111D01*
X54050Y-40130D01*
X54031Y-40168D01*
X54031Y-40283D01*
X54050Y-40321D01*
X54069Y-40340D01*
X54107Y-40359D01*
X54165Y-40359D01*
X53803Y-40359D02*
X53841Y-40340D01*
X53860Y-40302D01*
X53860Y-39959D01*
X53650Y-40359D02*
X53650Y-40092D01*
X53650Y-40130D02*
X53631Y-40111D01*
X53593Y-40092D01*
X53535Y-40092D01*
X53497Y-40111D01*
X53478Y-40149D01*
X53478Y-40359D01*
X53478Y-40149D02*
X53459Y-40111D01*
X53421Y-40092D01*
X53364Y-40092D01*
X53326Y-40111D01*
X53307Y-40149D01*
X53307Y-40359D01*
X52964Y-40340D02*
X53002Y-40359D01*
X53079Y-40359D01*
X53117Y-40340D01*
X53136Y-40302D01*
X53136Y-40149D01*
X53117Y-40111D01*
X53079Y-40092D01*
X53002Y-40092D01*
X52964Y-40111D01*
X52945Y-40149D01*
X52945Y-40187D01*
X53136Y-40226D01*
X52793Y-40340D02*
X52755Y-40359D01*
X52679Y-40359D01*
X52640Y-40340D01*
X52621Y-40302D01*
X52621Y-40283D01*
X52640Y-40245D01*
X52679Y-40226D01*
X52736Y-40226D01*
X52774Y-40207D01*
X52793Y-40168D01*
X52793Y-40149D01*
X52774Y-40111D01*
X52736Y-40092D01*
X52679Y-40092D01*
X52640Y-40111D01*
%LPC*%
G54D12*
X52250Y-36000D03*
X62750Y-36250D03*
X52250Y-39000D03*
X62750Y-38750D03*
G54D13*
X52000Y-34000D03*
G54D14*
X53000Y-34000D03*
X54000Y-34000D03*
X55000Y-34000D03*
X56000Y-34000D03*
X57000Y-34000D03*
X58000Y-34000D03*
X59000Y-34000D03*
X60000Y-34000D03*
X61000Y-34000D03*
X62000Y-34000D03*
X63000Y-34000D03*
G54D13*
X52000Y-41000D03*
G54D14*
X53000Y-41000D03*
X54000Y-41000D03*
X55000Y-41000D03*
X56000Y-41000D03*
X57000Y-41000D03*
X58000Y-41000D03*
X59000Y-41000D03*
X60000Y-41000D03*
X61000Y-41000D03*
X62000Y-41000D03*
X63000Y-41000D03*
G54D15*
X55335Y-39075D03*
X55728Y-39075D03*
X56122Y-39075D03*
X56516Y-39075D03*
X56909Y-39075D03*
X57303Y-39075D03*
X57697Y-39075D03*
X58091Y-39075D03*
X58484Y-39075D03*
X58878Y-39075D03*
X59272Y-39075D03*
X59665Y-39075D03*
X59665Y-35925D03*
X59272Y-35925D03*
X58878Y-35925D03*
X58484Y-35925D03*
X58091Y-35925D03*
X57697Y-35925D03*
X57303Y-35925D03*
X56909Y-35925D03*
X56516Y-35925D03*
X56122Y-35925D03*
X55728Y-35925D03*
X55335Y-35925D03*
G54D16*
X59666Y-36693D03*
X59666Y-37205D03*
X56516Y-38288D03*
X56516Y-37776D03*
X56910Y-38288D03*
X56910Y-37776D03*
X57304Y-38288D03*
X57304Y-37776D03*
X57697Y-38288D03*
X57697Y-37776D03*
X58091Y-38288D03*
X58091Y-37776D03*
X58485Y-38288D03*
X58485Y-37776D03*
X58878Y-38288D03*
X58878Y-37776D03*
X59272Y-38288D03*
X59272Y-37776D03*
X59666Y-38288D03*
X59666Y-37776D03*
X59272Y-36693D03*
X59272Y-37205D03*
X58878Y-36693D03*
X58878Y-37205D03*
X58485Y-36693D03*
X58485Y-37205D03*
X58091Y-36693D03*
X58091Y-37205D03*
X57697Y-36693D03*
X57697Y-37205D03*
X57304Y-36693D03*
X57304Y-37205D03*
X56910Y-36693D03*
X56910Y-37205D03*
X56516Y-36693D03*
X56516Y-37205D03*
X56122Y-36693D03*
X56122Y-37205D03*
X55729Y-36693D03*
X55729Y-37205D03*
X55335Y-36693D03*
X55335Y-37205D03*
X56122Y-38288D03*
X56122Y-37776D03*
X55729Y-38288D03*
X55729Y-37776D03*
X55335Y-38288D03*
X55335Y-37776D03*
M02*
